{
.appVersion = "3337";
.formatVersion = 3;
axes = (
{
default = 400;
name = Weight;
tag = wght;
}
);
classes = (
{
automatic = 1;

glyphs = (
{
glyphname = A;
kernLeft = A;
kernRight = A;
layers = (
{
layerId = m01;
shapes = (
{
closed = 1;
nodes = (
(447,242,l),
(157,242,l),
(133,182,l),
(471,182,l)
);
},
{
closed = 1;
nodes = (
(595,0,l),
(337,660,l),
(273,660,l),
(14,0,l),
(84,0,l),
(311,582,l),
(298,582,l),
(525,0,l)
);
}
);
width = 609;
},
{
layerId = "4DE8B86A-429B-4593-9BC8-49866BB1A430";
shapes = (
{
closed = 1;
nodes = (
(447,243,l),
(117,243,l),
(109,221,l),
(456,221,l)
);
},
{
closed = 1;
nodes = (
(555,0,l),
(297,660,l),
(270,660,l),
(11,0,l),
(36,0,l),
(287,642,l),
(279,642,l),
(530,0,l)
);
}
);
width = 567;
},
{
layerId = "0BE882A4-FC89-4865-8E81-154FB3EE808B";
shapes = (
{
closed = 1;
nodes = (
(445,245,l),
(214,245,l),
(164,121,l),
(494,121,l)
);
},
{
closed = 1;
nodes = (
(654,0,l),
(396,660,l),
(273,660,l),
(14,0,l),
(158,0,l),
(350,492,l),
(320,492,l),
(511,0,l)
);
}
);
width = 667;
},
{
layerId = "9C2CFEA6-85BB-4338-BB26-B1BEA40B5780";
shapes = (
{
closed = 1;
nodes = (
(445,246,l),
(223,246,l),
(170,110,l),
(497,110,l)
);
},
{
closed = 1;
nodes = (
(665,0,l),
(407,660,l),
(273,660,l),
(14,0,l),
(170,0,l),
(356,477,l),
(323,477,l),
(509,0,l)
);
}
);
width = 676;
}
);
note = A;
unicode = 65;
},
{
glyphname = AE;
kernLeft = AE;
kernRight = AE;
layers = (
{
layerId = m01;
shapes = (
{
closed = 1;
nodes = (
(111,0,l),
(274,210,l),
(541,210,l),
(541,0,l),
(968,0,l),
(968,60,l),
(607,60,l),
(607,304,l),
(898,304,l),
(898,364,l),
(607,364,l),
(607,600,l),
(968,600,l),
(968,660,l),
(548,660,l),
(28,0,l)
);
},
{
closed = 1;
nodes = (
(541,550,l),
(541,271,l),
(323,271,l)
);
}
);
width = 1039;
},
{
layerId = "4DE8B86A-429B-4593-9BC8-49866BB1A430";
shapes = (
{
closed = 1;
nodes = (
(65,-1,l),
(239,224,l),
(551,224,l),
(551,0,l),
(958,0,l),
(958,18,l),
(571,18,l),
(571,326,l),
(883,326,l),
(883,343,l),
(571,343,l),
(571,642,l),
(958,642,l),
(958,660,l),
(556,660,l),
(38,-1,l)
);
},
{
closed = 1;
nodes = (
(551,619,l),
(551,243,l),
(255,243,l)
);
}
);
width = 1039;
},
{
layerId = "0BE882A4-FC89-4865-8E81-154FB3EE808B";
shapes = (
{
closed = 1;
nodes = (
(181,1,l),
(327,188,l),
(526,188,l),
(526,0,l),
(983,0,l),
(983,124,l),
(661,124,l),
(661,271,l),
(921,271,l),
(921,395,l),
(661,395,l),
(661,536,l),
(983,536,l),
(983,660,l),
(537,660,l),
(12,1,l)
);
},
{
closed = 1;
nodes = (
(526,446,l),
(526,313,l),
(425,313,l)
);
}
);
width = 1039;
},
{
layerId = "9C2CFEA6-85BB-4338-BB26-B1BEA40B5780";
shapes = (
{
closed = 1;
nodes = (
(192,1,l),
(335,185,l),
(523,185,l),
(523,0,l),
(986,0,l),
(986,134,l),
(670,134,l),
(670,265,l),
(924,265,l),
(924,401,l),
(670,401,l),
(670,526,l),
(986,526,l),
(986,660,l),
(535,660,l),
(9,1,l)
);
},
{
closed = 1;
nodes = (
(523,429,l),
(523,321,l),
(442,321,l)
);
}
);
width = 1039;
}
);
note = AE;
unicode = 198;
},
{
glyphname = B;
kernRight = B;
layers = (
{
layerId = m01;
shapes = (
{
closed = 1;
nodes = (
(528,266,o),
(475,348,o),
(392,388,o),
(348,388,qs),
(141,388,l),
(141,372,l),
(291,372,ls),
(378,372,o),
(446,443,o),
(446,505,qs),
(446,548,o),
(404,619,o),
(333,660,o),
(291,660,qs),
(75,660,l),
(75,0,l),
(311,0,ls),
(374,0,o),
(473,52,o),
(528,146,o),
(528,206,qs)
);
},
{
closed = 1;
nodes = (
(141,60,l),
(141,351,l),
(314,351,ls),
(364,351,o),
(431,310,o),
(462,244,o),
(462,206,qs),
(462,140,o),
(378,60,o),
(292,60,qs)
);
},
{
closed = 1;
nodes = (
(141,411,l),
(141,600,l),
(291,600,ls),
(315,600,o),
(356,575,o),
(380,531,o),
(380,505,qs),
(380,462,o),
(341,411,o),
(293,411,qs)
);
}
);
width = 556;
},
{
layerId = "4DE8B86A-429B-4593-9BC8-49866BB1A430";
shapes = (
{
closed = 1;
nodes = (
(509,256,o),
(461,342,o),
(380,389,o),
(332,389,qs),
(92,390,l),
(92,376,l),
(262,376,ls),
(356,377,o),
(422,463,o),
(422,517,qs),
(422,556,o),
(383,622,o),
(318,660,o),
(279,660,qs),
(73,660,l),
(73,0,l),
(297,0,ls),
(360,0,o),
(456,48,o),
(509,138,o),
(509,198,qs)
);
},
{
closed = 1;
nodes = (
(96,21,l),
(96,374,l),
(321,374,ls),
(378,374,o),
(452,319,o),
(484,239,o),
(484,198,qs),
(484,120,o),
(389,22,o),
(284,22,qs)
);
},
{
closed = 1;
nodes = (
(94,393,l),
(94,641,l),
(279,641,ls),
(311,640,o),
(366,607,o),
(399,550,o),
(399,517,qs),
(399,469,o),
(351,393,o),
(289,393,qs)
);
}
);
width = 535;
},
{
layerId = "0BE882A4-FC89-4865-8E81-154FB3EE808B";
shapes = (
{
closed = 1;
nodes = (
(555,277,o),
(492,353,o),
(405,388,o),
(370,388,qs),
(210,388,l),
(210,363,l),
(332,363,ls),
(407,363,o),
(482,424,o),
(482,487,qs),
(482,533,o),
(435,613,o),
(354,660,o),
(306,660,qs),
(75,660,l),
(75,0,l),
(329,0,ls),
(392,0,o),
(496,59,o),
(555,159,o),
(555,219,qs)
);
},
{
closed = 1;
nodes = (
(210,124,l),
(210,313,l),
(302,313,ls),
(338,313,o),
(392,289,o),
(421,246,o),
(421,219,qs),
(421,172,o),
(358,124,o),
(302,124,qs)
);
},
{
closed = 1;
nodes = (
(210,438,l),
(210,536,l),
(297,536,ls),
(312,536,o),
(335,523,o),
(347,501,o),
(347,487,qs),
(347,465,o),
(320,438,o),
(298,438,qs)
);
}
);
width = 583;
},
{
layerId = "9C2CFEA6-85BB-4338-BB26-B1BEA40B5780";
shapes = (
{
closed = 1;
nodes = (
(560,278,o),
(495,353,o),
(407,388,o),
(373,388,qs),
(221,388,l),
(221,361,l),
(338,361,ls),
(412,361,o),
(488,421,o),
(488,484,qs),
(488,531,o),
(440,612,o),
(358,660,o),
(309,660,qs),
(75,660,l),
(75,0,l),
(332,0,ls),
(395,0,o),
(500,60,o),
(560,162,o),
(560,221,qs)
);
},
{
closed = 1;
nodes = (
(221,134,l),
(221,307,l),
(300,307,ls),
(333,306,o),
(385,285,o),
(414,246,o),
(414,221,qs),
(414,177,o),
(355,135,o),
(304,135,qs)
);
},
{
closed = 1;
nodes = (
(221,443,l),
(221,526,l),
(298,526,ls),
(312,525,o),
(331,515,o),
(341,496,o),
(341,484,qs),
(341,466,o),
(317,443,o),
(299,443,qs)
);
}
);
width = 588;
}
);
note = B;
unicode = 66;
},
{
glyphname = C;
kernLeft = C;
kernRight = C;
layers = (
{
layerId = m01;
shapes = (
{
closed = 1;
nodes = (
(431,-2,o),
(562,69,o),
(606,130,q),
(553,166,l),
(515,114,o),
(415,58,o),
(356,58,qs),
(290,58,o),
(176,131,o),
(108,256,o),
(108,330,qs),
(108,400,o),
(172,524,o),
(286,601,o),
(356,601,qs),
(411,601,o),
(506,552,o),
(543,506,q),
(594,545,l),
(550,600,o),
(427,661,o),
(356,661,qs),
(265,661,o),
(121,567,o),
(42,414,o),
(42,330,qs),
(42,240,o),
(127,88,o),
(271,-2,o),
(356,-2,qs)
);
}
);
width = 635;
},
{
layerId = "4DE8B86A-429B-4593-9BC8-49866BB1A430";
shapes = (
{
closed = 1;
nodes = (
(421,-2,o),
(540,55,o),
(588,110,q),
(568,125,l),
(527,75,o),
(415,20,o),
(352,20,qs),
(274,20,o),
(142,103,o),
(64,245,o),
(64,330,qs),
(64,409,o),
(138,552,o),
(269,639,o),
(352,639,qs),
(410,639,o),
(516,592,o),
(556,549,q),
(574,563,l),
(527,612,o),
(417,661,o),
(352,661,qs),
(261,661,o),
(119,567,o),
(40,415,o),
(40,330,qs),
(40,240,o),
(124,87,o),
(267,-2,o),
(352,-2,qs)
);
}
);
width = 613;
},
{
layerId = "0BE882A4-FC89-4865-8E81-154FB3EE808B";
shapes = (
{
closed = 1;
nodes = (
(445,-2,o),
(596,91,o),
(634,162,q),
(525,234,l),
(493,178,o),
(412,123,o),
(360,123,qs),
(312,123,o),
(228,178,o),
(177,273,o),
(177,330,qs),
(177,384,o),
(225,479,o),
(309,537,o),
(360,537,qs),
(409,537,o),
(487,487,o),
(519,437,q),
(623,515,l),
(585,578,o),
(440,661,o),
(360,661,qs),
(267,661,o),
(122,566,o),
(42,414,o),
(42,330,qs),
(42,240,o),
(128,88,o),
(274,-2,o),
(360,-2,qs)
);
}
);
width = 662;
},
{
layerId = "9C2CFEA6-85BB-4338-BB26-B1BEA40B5780";
shapes = (
{
closed = 1;
nodes = (
(447,-2,o),
(601,95,o),
(638,168,q),
(520,245,l),
(489,189,o),
(411,133,o),
(361,133,qs),
(316,133,o),
(236,185,o),
(189,276,o),
(189,330,qs),
(189,381,o),
(234,472,o),
(313,526,o),
(361,526,qs),
(408,526,o),
(484,476,o),
(515,425,q),
(628,510,l),
(591,575,o),
(442,661,o),
(361,661,qs),
(267,661,o),
(122,566,o),
(42,414,o),
(42,330,qs),
(42,240,o),
(128,88,o),
(274,-2,o),
(361,-2,qs)
);
}
);
width = 667;
}
);
note = C;
unicode = 67;
},
{
glyphname = D;
kernRight = D;
layers = (
{
layerId = m01;
shapes = (
{
closed = 1;
nodes = (
(228,0,ls),
(337,0,o),
(486,84,o),
(559,233,o),
(559,330,qs),
(559,429,o),
(488,577,o),
(337,660,o),
(223,660,qs),
(75,660,l),
(75,0,l)
);
},
{
closed = 1;
nodes = (
(141,60,l),
(141,600,l),
(223,600,ls),
(363,600,o),
(493,460,o),
(493,330,qs),
(493,203,o),
(361,60,o),
(228,60,qs)
);
}
);
width = 602;
},
{
layerId = "4DE8B86A-429B-4593-9BC8-49866BB1A430";
shapes = (
{
closed = 1;
nodes = (
(205,0,ls),
(314,0,o),
(462,83,o),
(534,232,o),
(534,330,qs),
(534,430,o),
(463,578,o),
(314,660,o),
(201,660,qs),
(73,660,l),
(73,0,l)
);
},
{
closed = 1;
nodes = (
(96,21,l),
(96,639,l),
(200,639,ls),
(360,638,o),
(510,476,o),
(510,330,qs),
(510,187,o),
(357,22,o),
(205,22,qs)
);
}
);
width = 575;
},
{
layerId = "0BE882A4-FC89-4865-8E81-154FB3EE808B";
shapes = (
{
closed = 1;
nodes = (
(261,0,ls),
(370,0,o),
(520,86,o),
(595,235,o),
(595,330,qs),
(595,426,o),
(522,575,o),
(371,660,o),
(256,660,qs),
(75,660,l),
(75,0,l)
);
},
{
closed = 1;
nodes = (
(210,124,l),
(210,536,l),
(256,536,ls),
(364,536,o),
(460,432,o),
(460,330,qs),
(460,231,o),
(362,124,o),
(261,124,qs)
);
}
);
width = 638;
},
{
layerId = "9C2CFEA6-85BB-4338-BB26-B1BEA40B5780";
shapes = (
{
closed = 1;
nodes = (
(267,0,ls),
(375,0,o),
(525,86,o),
(601,236,o),
(601,330,qs),
(601,426,o),
(528,575,o),
(376,660,o),
(262,660,qs),
(75,660,l),
(75,0,l)
);
},
{
closed = 1;
nodes = (
(221,134,l),
(221,526,l),
(262,526,ls),
(364,525,o),
(455,428,o),
(455,330,qs),
(455,235,o),
(362,135,o),
(267,135,qs)
);
}
);
width = 644;
}
);
note = D;
unicode = 68;
},
{
glyphname = Eth;
kernLeft = Dcroat;
kernRight = D;
layers = (
{
layerId = m01;
shapes = (
{
closed = 1;
nodes = (
(300,0,ls),
(408,0,o),
(557,84,o),
(631,233,o),
(631,330,qs),
(631,429,o),
(559,577,o),
(409,660,o),
(295,660,qs),
(166,660,l),
(166,337,l),
(19,337,l),
(19,278,l),
(166,278,l),
(166,0,l)
);
},
{
closed = 1;
nodes = (
(232,60,l),
(232,278,l),
(364,278,l),
(364,337,l),
(232,337,l),
(232,600,l),
(295,600,ls),
(435,600,o),
(565,460,o),
(565,330,qs),
(565,203,o),
(432,60,o),
(300,60,qs)
);
}
);
width = 680;
},
{
layerId = "4DE8B86A-429B-4593-9BC8-49866BB1A430";
shapes = (
{
closed = 1;
nodes = (
(294,0,ls),
(403,0,o),
(551,83,o),
(624,232,o),
(624,329.99,qs),
(624,430,o),
(553,578,o),
(403.568,660,o),
(290,660,qs),
(176,660,l),
(176,316,l),
(-6,316,l),
(-6,300,l),
(176,300,l),
(176,0,l)
);
},
{
closed = 1;
nodes = (
(197,18,l),
(197,300,l),
(339,300,l),
(339,316,l),
(197,316,l),
(197,642,l),
(289,642,ls),
(451,642,o),
(604,478,o),
(604,330.296,qs),
(604,186,o),
(448.415,18,o),
(294,18,qs)
);
}
);
width = 680;
},
{
layerId = "0BE882A4-FC89-4865-8E81-154FB3EE808B";
shapes = (
{
closed = 1;
nodes = (
(308,0,ls),
(417,0,o),
(567,86,o),
(641,235,o),
(641,330,qs),
(641,426,o),
(569,575,o),
(417,660,o),
(304,660,qs),
(150,660,l),
(150,368,l),
(58,368,l),
(58,245,l),
(150,245,l),
(150,0,l)
);
},
{
closed = 1;
nodes = (
(285,124,l),
(285,245,l),
(401,245,l),
(401,368,l),
(285,368,l),
(285,536,l),
(303,536,ls),
(411,536,o),
(506,432,o),
(506,330,qs),
(506,231,o),
(409,124,o),
(308,124,qs)
);
}
);
width = 680;
},
{
layerId = "9C2CFEA6-85BB-4338-BB26-B1BEA40B5780";
shapes = (
{
closed = 1;
nodes = (
(310,0,ls),
(419,0,o),
(568,86,o),
(643,236,o),
(643,330,qs),
(643,426,o),
(570,575,o),
(419,660,o),
(306,660,qs),
(147,660,l),
(147,374,l),
(64,374,l),
(64,239,l),
(147,239,l),
(147,0,l)
);
},
{
closed = 1;
nodes = (
(293,134,l),
(293,239,l),
(407,239,l),
(407,374,l),
(293,374,l),
(293,526,l),
(305,526,ls),
(407,525,o),
(497,428,o),
(497,330,qs),
(497,235,o),
(406,135,o),
(310,135,qs)
);
}
);
width = 680;
}
);
note = Eth;
unicode = 208;
},
{
glyphname = E;
kernRight = AE;
layers = (
{
layerId = m01;
shapes = (
{
closed = 1;
nodes = (
(503,0,l),
(503,60,l),
(141,60,l),
(141,304,l),
(432,304,l),
(432,364,l),
(141,364,l),
(141,600,l),
(502,600,l),
(502,660,l),
(75,660,l),
(75,0,l)
);
}
);
width = 532;
},
{
layerId = "4DE8B86A-429B-4593-9BC8-49866BB1A430";
shapes = (
{
closed = 1;
nodes = (
(482,0,l),
(482,21,l),
(96,21,l),
(96,324,l),
(406,324,l),
(406,345,l),
(96,345,l),
(96,639,l),
(481,639,l),
(481,660,l),
(73,660,l),
(73,0,l)
);
}
);
width = 500;
},
{
layerId = "0BE882A4-FC89-4865-8E81-154FB3EE808B";
shapes = (
{
closed = 1;
nodes = (
(533,0,l),
(533,124,l),
(210,124,l),
(210,271,l),
(470,271,l),
(470,395,l),
(210,395,l),
(210,536,l),
(532,536,l),
(532,660,l),
(75,660,l),
(75,0,l)
);
}
);
width = 575;
},
{
layerId = "9C2CFEA6-85BB-4338-BB26-B1BEA40B5780";
shapes = (
{
closed = 1;
nodes = (
(538,0,l),
(538,134,l),
(221,134,l),
(221,265,l),
(476,265,l),
(476,401,l),
(221,401,l),
(221,526,l),
(537,526,l),
(537,660,l),
(75,660,l),
(75,0,l)
);
}
);
width = 583;
}
);
note = E;
unicode = 69;
},
{
glyphname = Schwa;
layers = (
{
layerId = m01;
shapes = (
{
closed = 1;
nodes = (
(568,351,l),
(17,351,l),
(-1,257,o),
(56,94,o),
(198,-6,o),
(302,-6,qs),
(400,-6,o),
(541,80,o),
(614,229,o),
(614,321,qs),
(614,414,o),
(536,574,o),
(388,669,o),
(288,669,qs),
(206,669,o),
(91,615,o),
(29,547,o),
(13,517,q),
(60,480,l),
(91,543,o),
(205,617,o),
(288,617,qs),
(360,617,o),
(482,541,o),
(554,406,o),
(554,321,qs),
(554,237,o),
(487,114,o),
(373,49,o),
(302,49,qs),
(228,49,o),
(116,117,o),
(63,235,o),
(73,305,q),
(52,300,l),
(568,300,l)
);
}
);
width = 624;
},
{
layerId = "4DE8B86A-429B-4593-9BC8-49866BB1A430";
shapes = (
{
closed = 1;
nodes = (
(576,336,l),
(19,336,l),
(5,271,o),
(41,112,o),
(171,-6,o),
(291,-6,qs),
(388,-6,o),
(526,81,o),
(597,229,o),
(597,319,qs),
(597,414,o),
(523,574,o),
(380,668,o),
(280,668,qs),
(191,668,o),
(74,603,o),
(17,527,o),
(17,516,q),
(34,508,l),
(64,571,o),
(185,647,o),
(280,647,qs),
(361,647,o),
(495,569,o),
(573,420,o),
(573,319,qs),
(573,213,o),
(491,75,o),
(362,11,o),
(291,11,qs),
(210,11,o),
(86,85,o),
(25,225,o),
(35,321,q),
(29,315,l),
(576,315,l)
);
}
);
width = 607;
},
{
layerId = "0BE882A4-FC89-4865-8E81-154FB3EE808B";
shapes = (
{
closed = 1;
nodes = (
(560,362,l),
(18,362,l),
(5,228,o),
(92,64,o),
(239,-6,o),
(322,-6,qs),
(423,-6,o),
(568,79,o),
(645,229,o),
(645,325,qs),
(645,417,o),
(569,575,o),
(415,670,o),
(303,670,qs),
(231,670,o),
(118,631,o),
(37,563,o),
(10,518,q),
(95,440,l),
(114,503,o),
(210,568,o),
(302,568,qs),
(368,568,o),
(475,516,o),
(539,406,o),
(539,324,qs),
(539,246,o),
(487,142,o),
(392,92,o),
(326,92,qs),
(256,92,o),
(162,137,o),
(113,233,o),
(113,306,q),
(69,276,l),
(560,276,l)
);
}
);
width = 655;
},
{
layerId = "9C2CFEA6-85BB-4338-BB26-B1BEA40B5780";
shapes = (
{
closed = 1;
nodes = (
(559,355,l),
(18,355,l),
(-3,215,o),
(89,54,o),
(243,-6,o),
(326,-6,qs),
(427,-6,o),
(573,78,o),
(650,228,o),
(650,325,qs),
(650,417,o),
(574,575,o),
(419,670,o),
(305,670,qs),
(235,670,o),
(123,634,o),
(39,566,o),
(10,518,q),
(108,424,l),
(123,484,o),
(214,552,o),
(305,552,qs),
(370,552,o),
(469,507,o),
(526,405,o),
(526,324,qs),
(526,247,o),
(483,147,o),
(397,99,o),
(332,99,qs),
(263,99,o),
(166,147,o),
(123,234,o),
(134,290,q),
(115,257,l),
(559,257,l)
);
}
);
width = 660;
}
);
note = uni018F;
unicode = 399;
},
{
glyphname = F;
kernRight = F;
layers = (
{
layerId = m01;
shapes = (
{
closed = 1;
nodes = (
(141,0,l),
(141,304,l),
(413,304,l),
(413,364,l),
(141,364,l),
(141,601,l),
(484,601,l),
(484,661,l),
(75,661,l),
(75,0,l)
);
}
);
width = 498;
},
{
layerId = "4DE8B86A-429B-4593-9BC8-49866BB1A430";
shapes = (
{
closed = 1;
nodes = (
(96,0,l),
(96,324,l),
(386,324,l),
(386,344,l),
(96,344,l),
(96,639,l),
(462,639,l),
(462,660,l),
(73,660,l),
(73,0,l)
);
}
);
width = 466;
},
{
layerId = "0BE882A4-FC89-4865-8E81-154FB3EE808B";
shapes = (
{
closed = 1;
nodes = (
(210,0,l),
(210,272,l),
(453,272,l),
(453,396,l),
(210,396,l),
(210,537,l),
(516,537,l),
(516,661,l),
(75,661,l),
(75,0,l)
);
}
);
width = 542;
},
{
layerId = "9C2CFEA6-85BB-4338-BB26-B1BEA40B5780";
shapes = (
{
closed = 1;
nodes = (
(221,0,l),
(221,266,l),
(459,266,l),
(459,402,l),
(221,402,l),
(221,527,l),
(522,527,l),
(522,661,l),
(75,661,l),
(75,0,l)
);
}
);
width = 550;
}
);
note = F;
unicode = 70;
},
{
glyphname = G;
kernLeft = C;
kernRight = G;
layers = (
{
layerId = m01;
shapes = (
{
closed = 1;
nodes = (
(450,-6,o),
(594,65,o),
(641,128,q),
(641,331,l),
(396,331,l),
(396,271,l),
(574,271,l),
(574,147,l),
(536,103,o),
(429,55,o),
(373,55,qs),
(302,55,o),
(180,128,o),
(108,254,o),
(108,330,qs),
(108,406,o),
(179,532,o),
(301,605,o),
(373,605,qs),
(428,605,o),
(523,557,o),
(560,511,q),
(611,550,l),
(567,604,o),
(444,666,o),
(373,666,qs),
(282,666,o),
(130,575,o),
(42,421,o),
(42,330,qs),
(42,238,o),
(131,84,o),
(283,-6,o),
(373,-6,qs)
);
}
);
width = 670;
},
{
layerId = "4DE8B86A-429B-4593-9BC8-49866BB1A430";
shapes = (
{
closed = 1;
nodes = (
(444,-6,o),
(584,60,o),
(631,120,q),
(631,310,l),
(377,310,l),
(377,285,l),
(606,285,l),
(606,127,l),
(562,75,o),
(435,16,o),
(369,16,qs),
(287,16,o),
(147,100,o),
(64,244,o),
(64,330,qs),
(64,416,o),
(145,560,o),
(285,644,o),
(369,644,qs),
(428,644,o),
(534,596,o),
(573,553,q),
(592,568,l),
(544,617,o),
(434,666,o),
(369,666,qs),
(279,666,o),
(128,575,o),
(40,421,o),
(40,330,qs),
(40,237,o),
(129,84,o),
(280,-6,o),
(369,-6,qs)
);
}
);
width = 657;
},
{
layerId = "0BE882A4-FC89-4865-8E81-154FB3EE808B";
shapes = (
{
closed = 1;
nodes = (
(457,-6,o),
(607,72,o),
(654,141,q),
(654,366,l),
(358,366,l),
(358,242,l),
(517,242,l),
(517,180,l),
(489,151,o),
(414.822,119,o),
(376,119,qs),
(322.683,119,o),
(231.068,174.759,o),
(177,271,o),
(177,329.504,qs),
(177,388.007,o),
(231,485,o),
(322.186,541,o),
(376,541,qs),
(425,541,o),
(503,492,o),
(535,441,q),
(639,520,l),
(601,583,o),
(456,666,o),
(376,666,qs),
(284.175,666,o),
(130.798,575,o),
(42,421,o),
(42,330,qs),
(42,238,o),
(131.807,84,o),
(285.184,-6,o),
(376,-6,qs)
);
}
);
width = 683;
},
{
layerId = "9C2CFEA6-85BB-4338-BB26-B1BEA40B5780";
shapes = (
{
closed = 1;
nodes = (
(458,-6,o),
(609,73,o),
(656,143,q),
(656,372,l),
(352,372,l),
(352,237,l),
(508,237,l),
(508,186,l),
(481,158,o),
(413,129,o),
(377,129,qs),
(326,129,o),
(240,182,o),
(189,274,o),
(189,330,qs),
(189,386,o),
(239,478,o),
(326,531,o),
(377,531,qs),
(424,531,o),
(500,481,o),
(531,430,q),
(644,515,l),
(607,580,o),
(459,666,o),
(377,666,qs),
(284,666,o),
(131,575,o),
(42,421,o),
(42,330,qs),
(42,238,o),
(132,84,o),
(286,-6,o),
(377,-6,qs)
);
}
);
width = 685;
}
);
note = G;
unicode = 71;
},
{
glyphname = H;
layers = (
{
layerId = m01;
shapes = (
{
closed = 1;
nodes = (
(141,0,l),
(141,304,l),
(527,304,l),
(527,0,l),
(593,0,l),
(593,660,l),
(527,660,l),
(527,364,l),
(141,364,l),
(141,660,l),
(75,660,l),
(75,0,l)
);
}
);
width = 669;
},
{
layerId = "4DE8B86A-429B-4593-9BC8-49866BB1A430";
shapes = (
{
closed = 1;
nodes = (
(96,0,l),
(96,324,l),
(554,324,l),
(554,0,l),
(577,0,l),
(577,660,l),
(554,660,l),
(554,345,l),
(96,345,l),
(96,660,l),
(73,660,l),
(73,0,l)
);
}
);
width = 651;
},
{
layerId = "0BE882A4-FC89-4865-8E81-154FB3EE808B";
shapes = (
{
closed = 1;
nodes = (
(210,0,l),
(210,271,l),
(479,271,l),
(479,0,l),
(614,0,l),
(614,660,l),
(479,660,l),
(479,395,l),
(210,395,l),
(210,660,l),
(75,660,l),
(75,0,l)
);
}
);
width = 690;
},
{
layerId = "9C2CFEA6-85BB-4338-BB26-B1BEA40B5780";
shapes = (
{
closed = 1;
nodes = (
(221,0,l),
(221,265,l),
(471,265,l),
(471,0,l),
(618,0,l),
(618,660,l),
(471,660,l),
(471,401,l),
(221,401,l),
(221,660,l),
(75,660,l),
(75,0,l)
);
}
);
width = 693;
}
);
note = H;
unicode = 72;
},
{
glyphname = Hbar;
layers = (
{
layerId = m01;
shapes = (
{
closed = 1;
nodes = (
(141,0,l),
(141,304,l),
(527,304,l),
(527,0,l),
(593,0,l),
(593,660,l),
(527,660,l),
(527,364,l),
(141,364,l),
(141,660,l),
(75,660,l),
(75,0,l)
);
},
{
closed = 1;
nodes = (
(22,475,l),
(680,475,l),
(680,541,l),
(22,541,l)
);
}
);
width = 669;
},
{
layerId = "4DE8B86A-429B-4593-9BC8-49866BB1A430";
shapes = (
{
closed = 1;
nodes = (
(96,0,l),
(96,324,l),
(554,324,l),
(554,0,l),
(577,0,l),
(577,660,l),
(554,660,l),
(554,345,l),
(96,345,l),
(96,660,l),
(73,660,l),
(73,0,l)
);
},
{
closed = 1;
nodes = (
(28,495,l),
(658,495,l),
(658,518,l),
(28,518,l)
);
}
);
width = 655;
},
{
layerId = "0BE882A4-FC89-4865-8E81-154FB3EE808B";
shapes = (
{
closed = 1;
nodes = (
(210,0,l),
(210,271,l),
(479,271,l),
(479,0,l),
(614,0,l),
(614,660,l),
(479,660,l),
(479,395,l),
(210,395,l),
(210,660,l),
(75,660,l),
(75,0,l)
);
},
{
closed = 1;
nodes = (
(15,440,l),
(720,440,l),
(720,575,l),
(15,575,l)
);
}
);
width = 690;
},
{
layerId = "9C2CFEA6-85BB-4338-BB26-B1BEA40B5780";
shapes = (
{
closed = 1;
nodes = (
(221,0,l),
(221,265,l),
(471,265,l),
(471,0,l),
(618,0,l),
(618,660,l),
(471,660,l),
(471,401,l),
(221,401,l),
(221,660,l),
(75,660,l),
(75,0,l)
);
},
{
closed = 1;
nodes = (
(-2,434,l),
(733,434,l),
(733,581,l),
(-2,581,l)
);
}
);
width = 693;
}
);
note = Hbar;
unicode = 294;
},
{
glyphname = I;
layers = (
{
layerId = m01;
shapes = (
{
closed = 1;
nodes = (
(141,0,l),
(141,660,l),
(75,660,l),
(75,0,l)
);
}
);
width = 217;
},
{
layerId = "4DE8B86A-429B-4593-9BC8-49866BB1A430";
shapes = (
{
closed = 1;
nodes = (
(96,0,l),
(96,660,l),
(73,660,l),
(73,0,l)
);
}
);
width = 170;
},
{
layerId = "0BE882A4-FC89-4865-8E81-154FB3EE808B";
shapes = (
{
closed = 1;
nodes = (
(210,0,l),
(210,660,l),
(75,660,l),
(75,0,l)
);
}
);
width = 286;
},
{
layerId = "9C2CFEA6-85BB-4338-BB26-B1BEA40B5780";
shapes = (
{
closed = 1;
nodes = (
(221,0,l),
(221,660,l),
(75,660,l),
(75,0,l)
);
}
);
width = 297;
}
);
note = I;
unicode = 73;
},
{
glyphname = J;
kernLeft = J;
kernRight = IJ;
layers = (
{
layerId = m01;
shapes = (
{
closed = 1;
nodes = (
(250,-2,o),
(327,37,o),
(372,114,o),
(372,169,qs),
(372,660,l),
(305,660,l),
(305,169,ls),
(305,112,o),
(247,58,o),
(202,58,qs),
(174,58,o),
(126,88,o),
(97,138,o),
(97,169,q),
(31,169,l),
(31,122,o),
(77,44,o),
(155,-2,o),
(202,-2,qs)
);
}
);
width = 437;
},
{
layerId = "4DE8B86A-429B-4593-9BC8-49866BB1A430";
shapes = (
{
closed = 1;
nodes = (
(228,-2,o),
(298,29,o),
(339,101,o),
(339,159,qs),
(340,660,l),
(315,660,l),
(315,152,ls),
(315,84,o),
(241,20,o),
(182,20,qs),
(148,20,o),
(90,50,o),
(49,103,o),
(42,137,q),
(20,137,l),
(27,98,o),
(74,34,o),
(143,-2,o),
(182,-2,qs)
);
}
);
width = 397;
},
{
layerId = "0BE882A4-FC89-4865-8E81-154FB3EE808B";
shapes = (
{
closed = 1;
nodes = (
(282,-2,o),
(369,49,o),
(420,135,o),
(420,186,qs),
(420,660,l),
(284,660,l),
(284,196,ls),
(284,157,o),
(254,123,o),
(230,123,qs),
(211,123,o),
(180,150,o),
(171,196,o),
(182,222,q),
(43,222,l),
(32,164,o),
(78,60,o),
(172,-2,o),
(230,-2,qs)
);
}
);
width = 494;
},
{
layerId = "9C2CFEA6-85BB-4338-BB26-B1BEA40B5780";
shapes = (
{
closed = 1;
nodes = (
(287,-2,o),
(376,51,o),
(428,139,o),
(428,189,qs),
(429,660,l),
(280,660,l),
(280,201,ls),
(280,165,o),
(255,133,o),
(235,133,qs),
(217,133,o),
(189,161,o),
(183,206,o),
(196,230,q),
(45,230,l),
(32,170,o),
(78,63,o),
(175,-2,o),
(235,-2,qs)
);
}
);
width = 503;
}
);
note = J;
unicode = 74;
},
{
glyphname = K;
kernRight = K;
layers = (
{
layerId = m01;
shapes = (
{
closed = 1;
nodes = (
(141,0,l),
(141,296,l),
(130,267,l),
(213,344,l),
(198,348,l),
(463,0,l),
(547,0,l),
(249,388,l),
(246,374,l),
(553,660,l),
(458,660,l),
(127,352,l),
(141,334,l),
(141,660,l),
(75,660,l),
(75,0,l)
);
}
);
width = 562;
},
{
layerId = "4DE8B86A-429B-4593-9BC8-49866BB1A430";
shapes = (
{
closed = 1;
nodes = (
(96,0,l),
(96,313,l),
(83,288,l),
(177,375,l),
(158,377,l),
(444,0,l),
(477,0,l),
(181,388,l),
(166,364,l),
(485,660,l),
(453,660,l),
(94,328,l),
(96,321,l),
(96,660,l),
(73,660,l),
(73,0,l)
);
}
);
width = 489;
},
{
layerId = "0BE882A4-FC89-4865-8E81-154FB3EE808B";
shapes = (
{
closed = 1;
nodes = (
(210,0,l),
(210,266,l),
(193,226,l),
(272,299,l),
(250,307,l),
(486,0,l),
(653,0,l),
(350,392,l),
(351,372,l),
(658,660,l),
(467,660,l),
(179,389,l),
(210,389,l),
(210,660,l),
(75,660,l),
(75,0,l)
);
}
);
width = 667;
},
{
layerId = "9C2CFEA6-85BB-4338-BB26-B1BEA40B5780";
shapes = (
{
closed = 1;
nodes = (
(221,0,l),
(221,261,l),
(204,219,l),
(283,291,l),
(258,301,l),
(489,0,l),
(671,0,l),
(367,393,l),
(369,372,l),
(676,660,l),
(469,660,l),
(187,395,l),
(221,398,l),
(221,660,l),
(75,660,l),
(75,0,l)
);
}
);
width = 684;
}
);
note = K;
unicode = 75;
},
{
glyphname = L;
kernRight = L;
layers = (
{
layerId = m01;
shapes = (
{
closed = 1;
nodes = (
(447,0,l),
(447,60,l),
(141,60,l),
(141,660,l),
(75,660,l),
(75,0,l)
);
}
);
width = 466;
},
{
layerId = "4DE8B86A-429B-4593-9BC8-49866BB1A430";
shapes = (
{
closed = 1;
nodes = (
(417,0,l),
(417,21,l),
(96,21,l),
(96,660,l),
(73,660,l),
(73,0,l)
);
}
);
width = 434;
},
{
layerId = "0BE882A4-FC89-4865-8E81-154FB3EE808B";
shapes = (
{
closed = 1;
nodes = (
(490,0,l),
(490,124,l),
(210,124,l),
(210,660,l),
(75,660,l),
(75,0,l)
);
}
);
width = 509;
},
{
layerId = "9C2CFEA6-85BB-4338-BB26-B1BEA40B5780";
shapes = (
{
closed = 1;
nodes = (
(498,0,l),
(498,134,l),
(221,134,l),
(221,660,l),
(75,660,l),
(75,0,l)
);
}
);
width = 517;
}
);
note = L;
unicode = 76;
},
{
glyphname = Lslash;
kernLeft = Lslash;
kernRight = L;
layers = (
{
layerId = m01;
shapes = (
{
closed = 1;
nodes = (
(324,417,l),
(324,484,l),
(18,348,l),
(18,282,l)
);
},
{
closed = 1;
nodes = (
(447,0,l),
(447,60,l),
(141,60,l),
(141,660,l),
(75,660,l),
(75,0,l)
);
}
);
width = 461;
},
{
layerId = "4DE8B86A-429B-4593-9BC8-49866BB1A430";
shapes = (
{
closed = 1;
nodes = (
(300,438,l),
(300,458,l),
(23,334,l),
(23,316,l)
);
},
{
closed = 1;
nodes = (
(417,0,l),
(417,21,l),
(96,21,l),
(96,660,l),
(73,660,l),
(73,0,l)
);
}
);
width = 432;
},
{
layerId = "0BE882A4-FC89-4865-8E81-154FB3EE808B";
shapes = (
{
closed = 1;
nodes = (
(362,386,l),
(362,524,l),
(11,369,l),
(11,231,l)
);
},
{
closed = 1;
nodes = (
(490,0,l),
(490,124,l),
(210,124,l),
(210,660,l),
(75,660,l),
(75,0,l)
);
}
);
width = 504;
},
{
layerId = "9C2CFEA6-85BB-4338-BB26-B1BEA40B5780";
shapes = (
{
closed = 1;
nodes = (
(368,381,l),
(368,530,l),
(10,373,l),
(10,223,l)
);
},
{
closed = 1;
nodes = (
(498,0,l),
(498,134,l),
(221,134,l),
(221,660,l),
(75,660,l),
(75,0,l)
);
}
);
width = 512;
}
);
note = Lslash;
unicode = 321;
},
{
glyphname = M;
layers = (
{
layerId = m01;
shapes = (
{
closed = 1;
nodes = (
(659,533,l),
(659,0,l),
(725,0,l),
(725,660,l),
(652,660,l),
(400,188,l),
(150,660,l),
(75,660,l),
(75,0,l),
(141,0,l),
(141,535,l),
(400,45,l)
);
}
);
width = 801;
},
{
layerId = "4DE8B86A-429B-4593-9BC8-49866BB1A430";
shapes = (
{
closed = 1;
nodes = (
(695,608,l),
(695,0,l),
(719,0,l),
(719,660,l),
(696,660,l),
(396,117,l),
(99,660,l),
(73,660,l),
(73,0,l),
(96,0,l),
(96,611,l),
(396,65,l)
);
}
);
width = 792;
},
{
layerId = "0BE882A4-FC89-4865-8E81-154FB3EE808B";
shapes = (
{
closed = 1;
nodes = (
(596,406,l),
(596,0,l),
(731,0,l),
(731,660,l),
(578,660,l),
(403,303,l),
(228,660,l),
(75,660,l),
(75,0,l),
(210,0,l),
(210,407,l),
(403,11,l)
);
}
);
width = 807;
},
{
layerId = "9C2CFEA6-85BB-4338-BB26-B1BEA40B5780";
shapes = (
{
closed = 1;
nodes = (
(585,385,l),
(585,0,l),
(732,0,l),
(732,660,l),
(566,660,l),
(404,322,l),
(241,660,l),
(75,660,l),
(75,0,l),
(221,0,l),
(221,385,l),
(404,5,l)
);
}
);
width = 808;
}
);
note = M;
unicode = 77;
},
{
glyphname = N;
layers = (
{
layerId = m01;
shapes = (
{
closed = 1;
nodes = (
(141,0,l),
(141,553,l),
(135,552,l),
(513,0,l),
(574,0,l),
(574,660,l),
(507,660,l),
(507,97,l),
(518,107,l),
(138,660,l),
(75,660,l),
(75,0,l)
);
}
);
width = 650;
},
{
layerId = "4DE8B86A-429B-4593-9BC8-49866BB1A430";
shapes = (
{
closed = 1;
nodes = (
(96,0,l),
(96,637,l),
(89,632,l),
(521,0,l),
(544,0,l),
(544,660,l),
(519,660,l),
(519,19,l),
(530,33,l),
(100,660,l),
(73,660,l),
(73,0,l)
);
}
);
width = 618;
},
{
layerId = "0BE882A4-FC89-4865-8E81-154FB3EE808B";
shapes = (
{
closed = 1;
nodes = (
(210,0,l),
(210,430,l),
(198,430,l),
(494,0,l),
(616,0,l),
(616,660,l),
(482,660,l),
(482,207,l),
(500,220,l),
(196,660,l),
(75,660,l),
(75,0,l)
);
}
);
width = 692;
},
{
layerId = "9C2CFEA6-85BB-4338-BB26-B1BEA40B5780";
shapes = (
{
closed = 1;
nodes = (
(221,0,l),
(221,410,l),
(209,411,l),
(491,0,l),
(624,0,l),
(624,660,l),
(478,660,l),
(478,226,l),
(497,239,l),
(206,660,l),
(75,660,l),
(75,0,l)
);
}
);
width = 700;
}
);
note = N;
unicode = 78;
},
{
glyphname = Nhookleft;
layers = (
{
layerId = m01;
shapes = (
{
closed = 1;
nodes = (
(141,0,l),
(75,0,l),
(75,-91,ls),
(75,-113,o),
(60,-132,o),
(47,-132,qs),
(29,-132,o),
(-6,-117,o),
(-25,-102,q),
(-25,-159,l),
(-20,-163,ls),
(-7,-175,o),
(32,-191,o),
(57,-191,qs),
(100,-191,o),
(141,-129,o),
(141,-80,qs)
);
},
{
closed = 1;
nodes = (
(141,0,l),
(141,553,l),
(135,552,l),
(513,0,l),
(574,0,l),
(574,660,l),
(507,660,l),
(507,97,l),
(518,107,l),
(138,660,l),
(75,660,l),
(75,0,l)
);
}
);
width = 640;
},
{
layerId = "4DE8B86A-429B-4593-9BC8-49866BB1A430";
shapes = (
{
closed = 1;
nodes = (
(95,0,l),
(75,0,l),
(75,-130,ls),
(75,-152,o),
(58,-173,o),
(45,-173,qs),
(26,-173,o),
(-6,-158,o),
(-25,-141,q),
(-25,-159,l),
(-22,-163,ls),
(-14,-173,o),
(24,-191,o),
(45,-191,qs),
(78,-191,o),
(95,-143,o),
(95,-111,qs)
);
},
{
closed = 1;
nodes = (
(96,0,l),
(96,637,l),
(89,632,l),
(521,0,l),
(544,0,l),
(544,660,l),
(519,660,l),
(519,19,l),
(530,33,l),
(100,660,l),
(73,660,l),
(73,0,l)
);
}
);
width = 612;
},
{
layerId = "0BE882A4-FC89-4865-8E81-154FB3EE808B";
shapes = (
{
closed = 1;
nodes = (
(210,0,l),
(75,0,l),
(75,-33,ls),
(75,-55,o),
(63,-72,o),
(50,-72,qs),
(33,-72,o),
(-7,-57,o),
(-25,-42,q),
(-25,-159,l),
(-18,-164,ls),
(3,-177,o),
(43,-191,o),
(74,-191,qs),
(136,-191,o),
(210,-116,o),
(210,-33,qs)
);
},
{
closed = 1;
nodes = (
(210,0,l),
(210,430,l),
(198,430,l),
(494,0,l),
(616,0,l),
(616,660,l),
(482,660,l),
(482,207,l),
(500,220,l),
(196,660,l),
(75,660,l),
(75,0,l)
);
}
);
width = 682;
},
{
layerId = "9C2CFEA6-85BB-4338-BB26-B1BEA40B5780";
shapes = (
{
closed = 1;
nodes = (
(221,0,l),
(75,0,l),
(75,-24,ls),
(75,-46,o),
(63,-61,o),
(51,-61,qs),
(34,-61,o),
(-7,-46,o),
(-25,-32,q),
(-25,-159,l),
(-17,-164,ls),
(5,-177,o),
(44,-191,o),
(76,-191,qs),
(143,-191,o),
(222,-114,o),
(222,-25,qs)
);
},
{
closed = 1;
nodes = (
(221,0,l),
(221,410,l),
(209,411,l),
(491,0,l),
(624,0,l),
(624,660,l),
(478,660,l),
(478,226,l),
(497,239,l),
(206,660,l),
(75,660,l),
(75,0,l)
);
}
);
width = 690;
}
);
note = uni019D;
unicode = 413;
},
{
glyphname = Eng;
layers = (
{
layerId = m01;
shapes = (
{
closed = 1;
nodes = (
(574,0,l),
(513,0,l),
(513,-91,ls),
(513,-113,o),
(497,-132,o),
(485,-132,qs),
(466,-132,o),
(426,-117,o),
(408,-102,q),
(408,-159,l),
(412,-163,ls),
(425,-175,o),
(464,-191,o),
(489,-191,qs),
(533,-191,o),
(574,-129,o),
(574,-80,qs)
);
},
{
closed = 1;
nodes = (
(141,0,l),
(141,553,l),
(135,552,l),
(513,0,l),
(574,0,l),
(574,660,l),
(507,660,l),
(507,97,l),
(518,107,l),
(138,660,l),
(75,660,l),
(75,0,l)
);
}
);
width = 640;
},
{
layerId = "4DE8B86A-429B-4593-9BC8-49866BB1A430";
shapes = (
{
closed = 1;
nodes = (
(546,0,l),
(525,0,l),
(525,-130,ls),
(525,-152,o),
(508,-173,o),
(495,-173,qs),
(476,-173,o),
(445,-158,o),
(426,-141,q),
(426,-159,l),
(428,-163,l),
(436,-173,o),
(474,-191,o),
(496,-191,qs),
(528,-191,o),
(546,-143,o),
(546,-111,qs)
);
},
{
closed = 1;
nodes = (
(96,0,l),
(96,637,l),
(89,632,l),
(521,0,l),
(544,0,l),
(544,660,l),
(519,660,l),
(519,19,l),
(530,33,l),
(100,660,l),
(73,660,l),
(73,0,l)
);
}
);
width = 612;
},
{
layerId = "0BE882A4-FC89-4865-8E81-154FB3EE808B";
shapes = (
{
closed = 1;
nodes = (
(616,0,l),
(494,0,l),
(494,-33,ls),
(494,-55,o),
(481,-72,o),
(469,-72,qs),
(451,-72,o),
(399,-56,o),
(382,-42,q),
(382,-159,l),
(388,-163,ls),
(409,-177,o),
(449,-191,o),
(480,-191,qs),
(543,-191,o),
(617,-116,o),
(617,-33,qs)
);
},
{
closed = 1;
nodes = (
(210,0,l),
(210,430,l),
(198,430,l),
(494,0,l),
(616,0,l),
(616,660,l),
(482,660,l),
(482,207,l),
(500,220,l),
(196,660,l),
(75,660,l),
(75,0,l)
);
}
);
width = 682;
},
{
layerId = "9C2CFEA6-85BB-4338-BB26-B1BEA40B5780";
shapes = (
{
closed = 1;
nodes = (
(624,0,l),
(491,0,l),
(491,-24,ls),
(491,-46,o),
(479,-61,o),
(466,-61,qs),
(448,-61,o),
(394,-46,o),
(377,-32,q),
(377,-159,l),
(383,-163,ls),
(407,-177,o),
(446,-191,o),
(478,-191,qs),
(545,-191,o),
(624,-114,o),
(624,-25,qs)
);
},
{
closed = 1;
nodes = (
(221,0,l),
(221,410,l),
(209,411,l),
(491,0,l),
(624,0,l),
(624,660,l),
(478,660,l),
(478,226,l),
(497,239,l),
(206,660,l),
(75,660,l),
(75,0,l)
);
}
);
width = 690;
}
);
note = Eng;
unicode = 330;
},
{
glyphname = O;
kernLeft = C;
kernRight = D;
layers = (
{
layerId = m01;
shapes = (
{
closed = 1;
nodes = (
(456,-6,o),
(609,75,o),
(705,228,o),
(705,330,qs),
(705,422,o),
(616,576,o),
(464,666,o),
(373,666,qs),
(282,666,o),
(130,575,o),
(42,421,o),
(42,330,qs),
(42,238,o),
(131,84,o),
(283,-6,o),
(373,-6,qs)
);
},
{
closed = 1;
nodes = (
(302,55,o),
(180,128,o),
(108,254,o),
(108,330,qs),
(108,406,o),
(179,532,o),
(301,605,o),
(373,605,qs),
(445,605,o),
(567,533,o),
(639,406,o),
(639,330,qs),
(639,247,o),
(562,121,o),
(439,55,o),
(373,55,qs)
);
}
);
width = 748;
},
{
layerId = "4DE8B86A-429B-4593-9BC8-49866BB1A430";
shapes = (
{
closed = 1;
nodes = (
(451.939,-6,o),
(604,76,o),
(700,228,o),
(700,330,qs),
(700,422,o),
(611,576,o),
(459,666,o),
(369,666,qs),
(279,666,o),
(127.633,575,o),
(40,421,o),
(40,329.503,qs),
(40,237,o),
(129,84,o),
(280,-6,o),
(369.448,-6,qs)
);
},
{
closed = 1;
nodes = (
(287.283,16,o),
(146.868,99.638,o),
(64,244,o),
(64,330,qs),
(64,416,o),
(145.301,560.362,o),
(285,644,o),
(369,644,qs),
(453,644,o),
(593,561,o),
(676,417,o),
(676,330,qs),
(676,235.483,o),
(587,92,o),
(446,16,o),
(369,16,qs)
);
}
);
width = 740;
},
{
layerId = "0BE882A4-FC89-4865-8E81-154FB3EE808B";
shapes = (
{
closed = 1;
nodes = (
(459.061,-6,o),
(613,76,o),
(710,228,o),
(710,330,qs),
(710,422,o),
(621,576,o),
(467,666,o),
(376,666,qs),
(284.175,666,o),
(130.798,575,o),
(42,421,o),
(42,330,qs),
(42,238,o),
(131.739,84,o),
(285,-6,o),
(375.552,-6,qs)
);
},
{
closed = 1;
nodes = (
(322,119,o),
(230.814,174.759,o),
(177,271,o),
(177,329.504,qs),
(177,388.007,o),
(231,485,o),
(322,541,o),
(375.893,541,qs),
(429.787,541,o),
(521.107,486.005,o),
(575,389,o),
(575,330,qs),
(575,266.459,o),
(518,170,o),
(426,119,o),
(375.898,119,qs)
);
}
);
width = 753;
},
{
layerId = "9C2CFEA6-85BB-4338-BB26-B1BEA40B5780";
shapes = (
{
closed = 1;
nodes = (
(460.061,-6,o),
(614,76,o),
(711,228,o),
(711,330,qs),
(711,422,o),
(621,576,o),
(468.374,666,o),
(377,666,qs),
(284,666,o),
(130.733,575,o),
(42,421,o),
(42,330,qs),
(42,238,o),
(132.108,84,o),
(286,-6,o),
(376.552,-6,qs)
);
},
{
closed = 1;
nodes = (
(326,129,o),
(240,182,o),
(189,274.46,o),
(189,330.23,qs),
(189,386,o),
(239.399,477.809,o),
(326,531,o),
(376.5,531,qs),
(427,531,o),
(513.784,478.375,o),
(565,385.549,o),
(565,330,qs),
(565,269,o),
(510,178,o),
(424,129,o),
(376.788,129,qs)
);
}
);
width = 754;
}
);
note = O;
unicode = 79;
},
{
glyphname = Oslash;
kernLeft = C;
kernRight = D;
layers = (
{
layerId = m01;
shapes = (
{
closed = 1;
nodes = (
(447,0,o),
(600,81,o),
(697,231,o),
(697,331,qs),
(697,421,o),
(607,573,o),
(455,662,o),
(365,662,qs),
(274,662,o),
(122,572,o),
(34,420,o),
(34,331,qs),
(34,241,o),
(123,89,o),
(275,0,o),
(365,0,qs)
);
},
{
closed = 1;
nodes = (
(515,722,l),
(457,740,l),
(217,-56,l),
(275,-73,l)
);
},
{
closed = 1;
nodes = (
(294,60,o),
(172,133,o),
(100,257,o),
(100,331,qs),
(100,404,o),
(171,529,o),
(293,602,o),
(365,602,qs),
(437,602,o),
(559,529,o),
(631,405,o),
(631,331,qs),
(631,250,o),
(554,127,o),
(431,60,o),
(365,60,qs)
);
}
);
width = 730;
},
{
layerId = "4DE8B86A-429B-4593-9BC8-49866BB1A430";
shapes = (
{
closed = 1;
nodes = (
(439,0,o),
(592,81,o),
(688,231,o),
(688,331,qs),
(688,421,o),
(599,573,o),
(447,662,o),
(357.428,662,qs),
(266.86,662,o),
(115.582,572,o),
(28,420,o),
(28,331,qs),
(28,241,o),
(116.569,89,o),
(267.833,0,o),
(357.397,0,qs)
);
},
{
closed = 1;
nodes = (
(501,732,l),
(475,739,l),
(231,-65,l),
(257,-72,l)
);
},
{
closed = 1;
nodes = (
(274.236,18,o),
(131.964,102.487,o),
(48,246,o),
(48,331.368,qs),
(48,415.583,o),
(130.772,559.786,o),
(273,644,o),
(357.5,644,qs),
(442,644,o),
(584.124,559.883,o),
(668,417,o),
(668,331.022,qs),
(668,236.91,o),
(578,94,o),
(434,18,o),
(357.033,18,qs)
);
}
);
width = 715;
},
{
layerId = "0BE882A4-FC89-4865-8E81-154FB3EE808B";
shapes = (
{
closed = 1;
nodes = (
(458,0,o),
(613,81,o),
(710,231,o),
(710,331,qs),
(710,421,o),
(620,573,o),
(466.719,662,o),
(375.924,662,qs),
(284.12,662,o),
(130.777,572,o),
(42,420,o),
(42,331,qs),
(42,241,o),
(131.739,89,o),
(285,0,o),
(375.523,0,qs)
);
},
{
closed = 1;
nodes = (
(536,707,l),
(431,741,l),
(196,-42,l),
(301,-74,l)
);
},
{
closed = 1;
nodes = (
(322.94,124,o),
(231.163,179.954,o),
(177,275,o),
(177,331.316,qs),
(177,386.871,o),
(231,482,o),
(322,538,o),
(375.5,538,qs),
(429,538,o),
(521,483,o),
(575,388,o),
(575,331.302,qs),
(575,269.241,o),
(517,175,o),
(426,124,o),
(376.35,124,qs)
);
}
);
width = 753;
},
{
layerId = "9C2CFEA6-85BB-4338-BB26-B1BEA40B5780";
shapes = (
{
closed = 1;
nodes = (
(460,0,o),
(615,81,o),
(712,231,o),
(712,331,qs),
(712,421,o),
(622,573,o),
(468.719,662,o),
(377.924,662,qs),
(286.12,662,o),
(132.777,572,o),
(44,420,o),
(44,331,qs),
(44,241,o),
(133.739,89,o),
(287,0,o),
(377.523,0,qs)
);
},
{
closed = 1;
nodes = (
(540,704,l),
(426,741,l),
(192,-39,l),
(306,-74,l)
);
},
{
closed = 1;
nodes = (
(327,135,o),
(241,187,o),
(190,277,o),
(190,330.623,qs),
(190,383.522,o),
(240.767,474.101,o),
(328,527,o),
(378,527,qs),
(428.474,527,o),
(514,475,o),
(566,385,o),
(566,331.23,qs),
(566,272.374,o),
(511,183,o),
(425,135,o),
(377.788,135,qs)
);
}
);
width = 756;
}
);
note = Oslash;
unicode = 216;
},
{
glyphname = OE;
kernLeft = C;
kernRight = AE;
layers = (
{
layerId = m01;
shapes = (
{
closed = 1;
nodes = (
(413,0,o),
(506,28,o),
(548,55,q),
(548,0,l),
(975,0,l),
(975,60,l),
(614,60,l),
(614,304,l),
(904,304,l),
(904,364,l),
(614,364,l),
(614,600,l),
(974,600,l),
(974,660,l),
(548,660,l),
(548,607,l),
(465,662,o),
(365,662,qs),
(274,662,o),
(122,572,o),
(34,420,o),
(34,331,qs),
(34,241,o),
(123,89,o),
(275,0,o),
(365,0,qs)
);
},
{
closed = 1;
nodes = (
(294,60,o),
(172,133,o),
(100,257,o),
(100,331,qs),
(100,404,o),
(171,529,o),
(293,602,o),
(365,602,qs),
(417,602,o),
(511,563,o),
(548,527,q),
(548,134,l),
(510,98,o),
(414,60,o),
(365,60,qs)
);
}
);
width = 1004;
},
{
layerId = "4DE8B86A-429B-4593-9BC8-49866BB1A430";
shapes = (
{
closed = 1;
nodes = (
(424.234,0,o),
(539,39,o),
(589,76,q),
(589,0,l),
(997,0,l),
(997,18,l),
(609,18,l),
(609,326,l),
(920,326,l),
(920,343,l),
(609,343,l),
(609,642,l),
(996,642,l),
(996,660,l),
(589,660,l),
(589,585,l),
(489,662,o),
(383.432,662,qs),
(287.364,662,o),
(126.9,572,o),
(34,420,o),
(34,331,qs),
(34,241,o),
(123,89,o),
(275,0,o),
(365,0,qs)
);
},
{
closed = 1;
nodes = (
(288,9,o),
(143.361,96.081,o),
(58,244,o),
(58,331,qs),
(58,418,o),
(142,565,o),
(286,652,o),
(372,652,qs),
(433.661,652,o),
(545.126,606.24,o),
(589,564,q),
(589,97,l),
(545,55,o),
(430.778,9,o),
(372.477,9,qs)
);
}
);
width = 1017;
},
{
layerId = "0BE882A4-FC89-4865-8E81-154FB3EE808B";
shapes = (
{
closed = 1;
nodes = (
(396.319,0,o),
(457,11,o),
(486,23,q),
(486,0,l),
(943,0,l),
(943,124,l),
(621,124,l),
(621,271,l),
(879,271,l),
(879,395,l),
(621,395,l),
(621,536,l),
(942,536,l),
(942,660,l),
(486,660,l),
(486,640,l),
(428,662,o),
(336.585,662,qs),
(253.397,662,o),
(114.445,572,o),
(34,420,o),
(34,331,qs),
(34,241,o),
(123,89,o),
(275,0,o),
(365,0,qs)
);
},
{
closed = 1;
nodes = (
(303.631,137,o),
(215.822,189.203,o),
(164,277.878,o),
(164,330.797,qs),
(164,383,o),
(215.174,473.278,o),
(303.106,526,o),
(355,526,qs),
(391,526,o),
(460,498,o),
(486,472,q),
(486,188.93,l),
(458,163,o),
(390,137,o),
(354.732,137,qs)
);
}
);
width = 985;
},
{
layerId = "9C2CFEA6-85BB-4338-BB26-B1BEA40B5780";
shapes = (
{
closed = 1;
nodes = (
(393,0,o),
(449,9,o),
(475,17,q),
(475,0,l),
(937,0,l),
(937,134,l),
(622,134,l),
(622,265,l),
(876,265,l),
(876,401,l),
(622,401,l),
(622,526,l),
(936,526,l),
(936,660,l),
(475,660,l),
(475,646,l),
(421,662,o),
(365,662,qs),
(274,662,o),
(122,572,o),
(34,420,o),
(34,331,qs),
(34,241,o),
(123,89,o),
(275,0,o),
(351.957,0,qs)
);
},
{
closed = 1;
nodes = (
(305.174,150,o),
(223,198,o),
(174,281,o),
(174,330.787,qs),
(174,379.901,o),
(223,464,o),
(305,514,o),
(352.613,514,qs),
(387,514,o),
(451,487,o),
(475,462.748,q),
(475,198,l),
(449.761,174.649,o),
(386,150,o),
(352.996,150,qs)
);
}
);
width = 982;
}
);
note = OE;
unicode = 338;
},
{
glyphname = P;
kernRight = P;
layers = (
{
layerId = m01;
shapes = (
{
closed = 1;
nodes = (
(141,0,l),
(141,297,l),
(318,297,ls),
(367,297,o),
(451,346,o),
(500,429,o),
(500,478,qs),
(500,527,o),
(450,610,o),
(367,660,o),
(318,660,qs),
(75,660,l),
(75,0,l)
);
},
{
closed = 1;
nodes = (
(141,357,l),
(141,599,l),
(318,599,ls),
(350,599,o),
(403,566,o),
(434,510,o),
(434,478,qs),
(434,444,o),
(402,389,o),
(349,357,o),
(318,357,qs)
);
}
);
width = 533;
},
{
layerId = "4DE8B86A-429B-4593-9BC8-49866BB1A430";
shapes = (
{
closed = 1;
nodes = (
(96,0,l),
(96,316,l),
(309,316,ls),
(354,315,o),
(433,362,o),
(479,440,o),
(479,486,qs),
(479,532,o),
(432,612,o),
(354,660,o),
(308,660,qs),
(73,660,l),
(73,0,l)
);
},
{
closed = 1;
nodes = (
(96,336,l),
(96,637,l),
(309,637,ls),
(348,638,o),
(415,596,o),
(454,526,o),
(454,486,qs),
(454,445,o),
(415,376,o),
(348,336,o),
(308,336,qs)
);
}
);
width = 514;
},
{
layerId = "0BE882A4-FC89-4865-8E81-154FB3EE808B";
shapes = (
{
closed = 1;
nodes = (
(210,0,l),
(210,266,l),
(329,266,ls),
(384,266,o),
(476.211,319.331,o),
(530,409.669,o),
(530,463,qs),
(530,516.083,o),
(476,606,o),
(383.568,660,o),
(329,660,qs),
(75,660,l),
(75,0,l)
);
},
{
closed = 1;
nodes = (
(210,390,l),
(210,535,l),
(329,535,ls),
(349,535,o),
(379,516,o),
(395,483,o),
(395,463,qs),
(395,442.488,o),
(376.793,409.306,o),
(346.638,390,o),
(329,390,qs)
);
}
);
width = 557;
},
{
layerId = "9C2CFEA6-85BB-4338-BB26-B1BEA40B5780";
shapes = (
{
closed = 1;
nodes = (
(221,0,l),
(221,260,l),
(331,260,ls),
(385.923,260,o),
(480.077,316.424,o),
(535,412,o),
(535,466.5,qs),
(535,521,o),
(480,609,o),
(386.311,660,o),
(331,660,qs),
(75,660,l),
(75,0,l)
);
},
{
closed = 1;
nodes = (
(221,396,l),
(221,525,l),
(331,525,ls),
(349,525,o),
(375,507,o),
(389,477,o),
(389,459.545,qs),
(389,441,o),
(373,412,o),
(346.5,396,o),
(331,396,qs)
);
}
);
width = 561;
}
);
note = P;
unicode = 80;
},
{
glyphname = Thorn;
kernRight = Thorn;
layers = (
{
layerId = m01;
shapes = (
{
closed = 1;
nodes = (
(135,0,l),
(135,155,l),
(311,155,ls),
(367,155,o),
(462,210,o),
(518,304,o),
(518,359,qs),
(518,399,o),
(485,476,o),
(457,504,qs),
(430,530,o),
(352,563,o),
(311,563,qs),
(135,563,l),
(135,654,l),
(69,654,l),
(69,0,l)
);
},
{
closed = 1;
nodes = (
(135,215,l),
(135,503,l),
(311,503,ls),
(340,503,o),
(390,481,o),
(410,460,qs),
(430,442,o),
(452,389,o),
(452,359,qs),
(452,319,o),
(414,253,o),
(349,215,o),
(311,215,qs)
);
}
);
width = 566;
},
{
layerId = "4DE8B86A-429B-4593-9BC8-49866BB1A430";
shapes = (
{
closed = 1;
nodes = (
(98,0,l),
(98,166,l),
(312,166,ls),
(365,166,o),
(456,219,o),
(508,309,o),
(508,362,qs),
(508,401,o),
(478,473,o),
(451,500,qs),
(423,526,o),
(351,556,o),
(312,556,qs),
(98,556,l),
(98,654,l),
(78,654,l),
(78,0,l)
);
},
{
closed = 1;
nodes = (
(98,183,l),
(98,540,l),
(312,540,ls),
(349,539,o),
(412,511,o),
(436,486,qs),
(460,463,o),
(488,397,o),
(488,362,qs),
(488,313,o),
(441,231,o),
(360,183,o),
(312,183,qs)
);
}
);
width = 566;
},
{
layerId = "0BE882A4-FC89-4865-8E81-154FB3EE808B";
shapes = (
{
closed = 1;
nodes = (
(190,0,l),
(190,138,l),
(309,138,ls),
(370,138,o),
(471.921,196.775,o),
(532,297.225,o),
(532,356,qs),
(532,396,o),
(496,480,o),
(467.491,509.037,qs),
(440,536,o),
(352,573,o),
(309,573,qs),
(190,573,l),
(190,654,l),
(55,654,l),
(55,0,l)
);
},
{
closed = 1;
nodes = (
(190,263,l),
(190,448,l),
(309,448,ls),
(326.62,448,o),
(357,435,o),
(372,422,q),
(383,409,o),
(397,375,o),
(397,355.588,qs),
(397,329.706,o),
(373,287,o),
(332.612,263,o),
(309,263,qs)
);
}
);
width = 566;
},
{
layerId = "9C2CFEA6-85BB-4338-BB26-B1BEA40B5780";
shapes = (
{
closed = 1;
nodes = (
(199,0,l),
(199,135,l),
(309,135,ls),
(370,135,o),
(474,195,o),
(535,296,o),
(535,355,qs),
(535,396,o),
(498,481,o),
(469,510,qs),
(442,537,o),
(352,575,o),
(309,575,qs),
(199,575,l),
(199,654,l),
(53,654,l),
(53,0,l)
);
},
{
closed = 1;
nodes = (
(199,272,l),
(199,439,l),
(309,439,ls),
(325,438,o),
(353,427,o),
(365,415,qs),
(375,404,o),
(388,373,o),
(388,355,qs),
(388,331,o),
(367,293,o),
(331,272,o),
(309,272,qs)
);
}
);
width = 566;
}
);
note = Thorn;
unicode = 222;
},
{
glyphname = Q;
kernLeft = C;
kernRight = Q;
layers = (
{
layerId = m01;
shapes = (
{
closed = 1;
nodes = (
(456,-6,o),
(609,75,o),
(705,228,o),
(705,330,qs),
(705,422,o),
(616,576,o),
(464,666,o),
(373,666,qs),
(282,666,o),
(130,575,o),
(42,421,o),
(42,330,qs),
(42,238,o),
(131,84,o),
(283,-6,o),
(373,-6,qs)
);
},
{
closed = 1;
nodes = (
(716,0,l),
(419,274,l),
(324,274,l),
(621,0,l)
);
},
{
closed = 1;
nodes = (
(302,55,o),
(180,128,o),
(108,254,o),
(108,330,qs),
(108,406,o),
(179,532,o),
(301,605,o),
(373,605,qs),
(445,605,o),
(567,533,o),
(639,406,o),
(639,330,qs),
(639,247,o),
(562,121,o),
(439,55,o),
(373,55,qs)
);
}
);
width = 748;
},
{
layerId = "4DE8B86A-429B-4593-9BC8-49866BB1A430";
shapes = (
{
closed = 1;
nodes = (
(452,-6,o),
(604,76,o),
(700,228,o),
(700,330,qs),
(700,422,o),
(611,576,o),
(459,666,o),
(369,666,qs),
(279,666,o),
(128,575,o),
(40,421,o),
(40,330,qs),
(40,237,o),
(129,84,o),
(280,-6,o),
(369,-6,qs)
);
},
{
closed = 1;
nodes = (
(684,0,l),
(384,275,l),
(348,275,l),
(647,0,l)
);
},
{
closed = 1;
nodes = (
(287,16,o),
(147,100,o),
(64,244,o),
(64,330,qs),
(64,416,o),
(145,560,o),
(285,644,o),
(369,644,qs),
(453,644,o),
(593,561,o),
(676,417,o),
(676,330,qs),
(676,235,o),
(587,92,o),
(446,16,o),
(369,16,qs)
);
}
);
width = 740;
},
{
layerId = "0BE882A4-FC89-4865-8E81-154FB3EE808B";
shapes = (
{
closed = 1;
nodes = (
(459.061,-6,o),
(613,76,o),
(710,228,o),
(710,330,qs),
(710,422,o),
(621,576,o),
(467,666,o),
(376,666,qs),
(284.175,666,o),
(130.798,575,o),
(42,421,o),
(42,330,qs),
(42,238,o),
(131.739,84,o),
(285,-6,o),
(375.552,-6,qs)
);
},
{
closed = 1;
nodes = (
(766,0,l),
(469,275,l),
(277,275,l),
(574,0,l)
);
},
{
closed = 1;
nodes = (
(322,119,o),
(230.814,174.759,o),
(177,271,o),
(177,329.504,qs),
(177,388.007,o),
(231,485,o),
(322,541,o),
(375.893,541,qs),
(429.787,541,o),
(521.107,486.005,o),
(575,389,o),
(575,330,qs),
(575,266.459,o),
(518,170,o),
(426,119,o),
(375.898,119,qs)
);
}
);
width = 753;
},
{
layerId = "9C2CFEA6-85BB-4338-BB26-B1BEA40B5780";
shapes = (
{
closed = 1;
nodes = (
(460.061,-6,o),
(614,76,o),
(711,228,o),
(711,330,qs),
(711,422,o),
(621,576,o),
(468.374,666,o),
(377,666,qs),
(284,666,o),
(130.733,575,o),
(42,421,o),
(42,330,qs),
(42,238,o),
(132.108,84,o),
(286,-6,o),
(376.552,-6,qs)
);
},
{
closed = 1;
nodes = (
(774,0,l),
(477,275,l),
(269,275,l),
(566,0,l)
);
},
{
closed = 1;
nodes = (
(326,129,o),
(240,182,o),
(189,274.46,o),
(189,330.23,qs),
(189,386,o),
(239.399,477.809,o),
(326,531,o),
(376.5,531,qs),
(427,531,o),
(513.784,478.375,o),
(565,385.549,o),
(565,330,qs),
(565,269,o),
(510,178,o),
(424,129,o),
(376.788,129,qs)
);
}
);
width = 753;
}
);
note = Q;
unicode = 81;
},
{
glyphname = R;
kernRight = R;
layers = (
{
layerId = m01;
shapes = (
{
closed = 1;
nodes = (
(286,350,l),
(511,0,l),
(589,0,l),
(362,351,l)
);
},
{
closed = 1;
nodes = (
(141,396,l),
(141,600,l),
(337,600,ls),
(392,600,o),
(452,543,o),
(452,498,qs),
(452,452,o),
(396,396,o),
(342,396,qs)
);
},
{
closed = 1;
nodes = (
(347,336,ls),
(399,336,o),
(477,379,o),
(518,453,o),
(518,498,qs),
(518,543,o),
(475,617,o),
(393,660,o),
(337,660,qs),
(75,660,l),
(75,0,l),
(141,0,l),
(141,336,l)
);
}
);
width = 604;
},
{
layerId = "4DE8B86A-429B-4593-9BC8-49866BB1A430";
shapes = (
{
closed = 1;
nodes = (
(291,367,l),
(527,0,l),
(558,0,l),
(318,369,l)
);
},
{
closed = 1;
nodes = (
(96,378,l),
(96,639,l),
(324,639,ls),
(397,638,o),
(472,565,o),
(472,508,qs),
(472,451,o),
(400,378,o),
(332,378,qs)
);
},
{
closed = 1;
nodes = (
(329,357,ls),
(384,357,o),
(460,397,o),
(498,465,o),
(498,509,qs),
(498,551,o),
(459,620,o),
(381,660,o),
(325,660,qs),
(73,660,l),
(73,0,l),
(96,0,l),
(96,357,l)
);
}
);
width = 569;
},
{
layerId = "0BE882A4-FC89-4865-8E81-154FB3EE808B";
shapes = (
{
closed = 1;
nodes = (
(271,327,l),
(480,0,l),
(636,0,l),
(427,327,l)
);
},
{
closed = 1;
nodes = (
(210,425,l),
(210,536,l),
(354,536,ls),
(379,536,o),
(414,506,o),
(414,481,qs),
(414,454,o),
(385,425,o),
(356,425,qs)
);
},
{
closed = 1;
nodes = (
(372,300,ls),
(419,300,o),
(499,350,o),
(546,433,o),
(546,480,qs),
(546,529,o),
(498,612,o),
(409,660,o),
(351,660,qs),
(75,660,l),
(75,0,l),
(210,0,l),
(210,300,l)
);
}
);
width = 651;
},
{
layerId = "9C2CFEA6-85BB-4338-BB26-B1BEA40B5780";
shapes = (
{
closed = 1;
nodes = (
(268,324,l),
(475,0,l),
(644,0,l),
(438,324,l)
);
},
{
closed = 1;
nodes = (
(221,430,l),
(221,526,l),
(357,526,ls),
(377,525,o),
(407,500,o),
(407,478,qs),
(407,454,o),
(383,430,o),
(357,430,qs)
);
},
{
closed = 1;
nodes = (
(375,295,ls),
(422,294,o),
(503,346,o),
(551,430,o),
(551,477,qs),
(551,527,o),
(502,611,o),
(412,660,o),
(354,660,qs),
(75,660,l),
(75,0,l),
(221,0,l),
(221,295,l)
);
}
);
width = 659;
}
);
note = R;
unicode = 82;
},
{
glyphname = S;
kernLeft = S;
kernRight = S;
layers = (
{
layerId = m01;
shapes = (
{
closed = 1;
nodes = (
(292,-6,o),
(391,34,o),
(452,113,o),
(452,170,qs),
(452,233,o),
(400,311,o),
(325,353,o),
(255,382,qs),
(192,407,o),
(132,460,o),
(132,503,qs),
(132,548,o),
(195,605,o),
(241,605,qs),
(285,605,o),
(340,576,o),
(367,551,q),
(413,593,l),
(382,626,o),
(302,666,o),
(241,666,qs),
(195,666,o),
(115,624,o),
(66,549,o),
(66,503,qs),
(66,434,o),
(156,354,o),
(228,324,qs),
(254,314,ls),
(299,296,o),
(352,264,o),
(386,211,o),
(386,170,qs),
(386,132,o),
(344,80,o),
(275,55,o),
(235,55,qs),
(186,55,o),
(109,93,o),
(82,124,q),
(33,83,l),
(54,60,o),
(113,20,o),
(191,-6,o),
(235,-6,qs)
);
}
);
width = 485;
},
{
layerId = "4DE8B86A-429B-4593-9BC8-49866BB1A430";
shapes = (
{
closed = 1;
nodes = (
(273,-6,o),
(367,31,o),
(424,105,o),
(425,159,qs),
(425,220,o),
(377,294,o),
(307,331,o),
(229,364,qs),
(159,392,o),
(84,460,o),
(84,514,qs),
(84,571,o),
(165,644,o),
(224,644,qs),
(271,644,o),
(331,616,o),
(357,596,q),
(375,612,l),
(344,637,o),
(277,666,o),
(224,666,qs),
(181,666,o),
(105,626,o),
(60,557,o),
(60,514,qs),
(60,449,o),
(146,370,o),
(218,340,qs),
(245,329,ls),
(297,309,o),
(358,274,o),
(400,210,o),
(400,159,qs),
(400,112,o),
(347,48,o),
(263,18,o),
(217,18,qs),
(164,18,o),
(78,52,o),
(49,79,q),
(30,62,l),
(59,38,o),
(117,8,o),
(180,-6,o),
(217,-6,qs)
);
}
);
width = 456;
},
{
layerId = "0BE882A4-FC89-4865-8E81-154FB3EE808B";
shapes = (
{
closed = 1;
nodes = (
(319,-6,o),
(425,38,o),
(491,126,o),
(491,189,qs),
(491,254,o),
(435,339,o),
(354,387,o),
(292,412,qs),
(243,432,o),
(207,462,o),
(207,485,qs),
(207,511,o),
(243,541,o),
(276,541,qs),
(308,541,o),
(350,511,o),
(378,477,q),
(471,562,l),
(436,609,o),
(339,666,o),
(266,666,qs),
(215,666,o),
(126,619,o),
(72,536,o),
(72,485,qs),
(72,410,o),
(168,326,o),
(241,297,qs),
(264,287,ls),
(297,273,o),
(337,247,o),
(357,213,o),
(357,189,qs),
(357,166,o),
(335,133,o),
(291,116,o),
(260,116,qs),
(215,116,o),
(154,161,o),
(131,197,q),
(33,117,l),
(36,100,o),
(100,40,o),
(202,-6,o),
(260,-6,qs)
);
}
);
width = 525;
},
{
layerId = "9C2CFEA6-85BB-4338-BB26-B1BEA40B5780";
shapes = (
{
closed = 1;
nodes = (
(324,-6,o),
(431,39,o),
(498,128,o),
(498,191,qs),
(498,257,o),
(441,344,o),
(359,392,o),
(299,417,qs),
(251,437,o),
(219,462,o),
(219,482,qs),
(219,504,o),
(250,531,o),
(276,531,qs),
(307,531,o),
(354,497,o),
(380,465,q),
(480,557,l),
(445,607,o),
(345,666,o),
(270,666,qs),
(218,666,o),
(128,618,o),
(73,534,o),
(73,482,qs),
(73,406,o),
(170,323,o),
(243,292,qs),
(265,283,ls),
(297,269,o),
(334,245,o),
(353,213,o),
(353,191,qs),
(353,171,o),
(333,142,o),
(294,126,o),
(265,126,qs),
(220,126,o),
(162,172,o),
(140,209,q),
(33,123,l),
(33,106,o),
(98,43,o),
(204,-6,o),
(265,-6,qs)
);
}
);
width = 531;
}
);
note = S;
unicode = 83;
},
{
glyphname = Germandbls;
layers = (
{
layerId = m01;
shapes = (
{
closed = 1;
nodes = (
(113,0,l),
(113,660,l),
(47,660,l),
(47,0,l)
);
},
{
closed = 1;
nodes = (
(433,-3,o),
(528,51,o),
(580,142,o),
(580,196,qs),
(580,287,o),
(460,384,o),
(345,384,q),
(345,367,l),
(574,660,l),
(460,594,l),
(296,392,l),
(296,338,l),
(355,338,ls),
(435,338,o),
(514,259,o),
(514,196,qs),
(514,137,o),
(436,61,o),
(373,61,qs),
(328,61,o),
(264,104,o),
(241,150,q),
(182,123,l),
(198,84,o),
(256,28,o),
(332,-3,o),
(373,-3,qs)
);
},
{
closed = 1;
nodes = (
(47,594,l),
(460,594,l),
(574,660,l),
(47,660,l)
);
}
);
width = 594;
},
{
layerId = "4DE8B86A-429B-4593-9BC8-49866BB1A430";
shapes = (
{
closed = 1;
nodes = (
(67,0,l),
(67,660,l),
(47,660,l),
(47,0,l)
);
},
{
closed = 1;
nodes = (
(390,-3,o),
(479,48,o),
(529,135,o),
(529,187,qs),
(529,279,o),
(412,377,o),
(296,377,q),
(297,368,l),
(529,660,l),
(491,640,l),
(276,371,l),
(276,360,l),
(305,360,ls),
(410,359,o),
(508,264,o),
(508,187,qs),
(508,114,o),
(411,21,o),
(333,21,qs),
(282,21,o),
(206,59,o),
(174,111,q),
(157,101,l),
(178,61,o),
(237,15,o),
(300,-3,o),
(333,-3,qs)
);
},
{
closed = 1;
nodes = (
(47,640,l),
(491,640,l),
(529,660,l),
(47,660,l)
);
}
);
width = 529;
},
{
layerId = "0BE882A4-FC89-4865-8E81-154FB3EE808B";
shapes = (
{
closed = 1;
nodes = (
(182,0,l),
(182,660,l),
(47,660,l),
(47,0,l)
);
},
{
closed = 1;
nodes = (
(499,-3,o),
(600,55,o),
(656,153,o),
(656,210,qs),
(656,299,o),
(532,394,o),
(419,394,q),
(418,366,l),
(642,660,l),
(413,525,l),
(325,423,l),
(325,305,l),
(430,305,ls),
(473,305,o),
(522,250,o),
(522,210,qs),
(522,171,o),
(475,123,o),
(435,123,qs),
(392,123,o),
(348,173,o),
(342,208,q),
(220,156,l),
(227,120,o),
(285,47,o),
(377,-3,o),
(435,-3,qs)
);
},
{
closed = 1;
nodes = (
(47,525,l),
(413,525,l),
(642,660,l),
(47,660,l)
);
}
);
width = 691;
},
{
layerId = "9C2CFEA6-85BB-4338-BB26-B1BEA40B5780";
shapes = (
{
closed = 1;
nodes = (
(193,0,l),
(193,660,l),
(47,660,l),
(47,0,l)
);
},
{
closed = 1;
nodes = (
(511,-3,o),
(613,56,o),
(670,155,o),
(670,213,qs),
(670,301,o),
(544,396,o),
(431,396,q),
(430,366,l),
(653,660,l),
(405,514,l),
(330,429,l),
(330,299,l),
(443,299,ls),
(479,299,o),
(524,249,o),
(524,213,qs),
(524,177,o),
(481,133,o),
(445,133,qs),
(403,133,o),
(362,185,o),
(359,218,q),
(226,162,l),
(232,127,o),
(289,50,o),
(385,-3,o),
(445,-3,qs)
);
},
{
closed = 1;
nodes = (
(47,514,l),
(405,514,l),
(653,660,l),
(47,660,l)
);
}
);
width = 707;
}
);
note = uni1E9E;
unicode = 7838;
},
{
glyphname = T;
kernLeft = T;
kernRight = T;
layers = (
{
layerId = m01;
shapes = (
{
closed = 1;
nodes = (
(332,0,l),
(332,600,l),
(574,600,l),
(574,660,l),
(24,660,l),
(24,600,l),
(266,600,l),
(266,0,l)
);
}
);
width = 598;
},
{
layerId = "4DE8B86A-429B-4593-9BC8-49866BB1A430";
shapes = (
{
closed = 1;
nodes = (
(301,0,l),
(301,639,l),
(557,639,l),
(557,660,l),
(22,660,l),
(22,639,l),
(276,639,l),
(276,0,l)
);
}
);
width = 578;
},
{
layerId = "0BE882A4-FC89-4865-8E81-154FB3EE808B";
shapes = (
{
closed = 1;
nodes = (
(379,0,l),
(379,536,l),
(599,536,l),
(599,660,l),
(24,660,l),
(24,536,l),
(244,536,l),
(244,0,l)
);
}
);
width = 623;
},
{
layerId = "9C2CFEA6-85BB-4338-BB26-B1BEA40B5780";
shapes = (
{
closed = 1;
nodes = (
(387,0,l),
(387,526,l),
(602,526,l),
(602,660,l),
(24,660,l),
(24,526,l),
(241,526,l),
(241,0,l)
);
}
);
width = 627;
}
);
note = T;
unicode = 84;
},
{
glyphname = U;
kernLeft = U;
kernRight = U;
layers = (
{
layerId = m01;
shapes = (
{
closed = 1;
nodes = (
(406,-6,o),
(522,47,o),
(592,162,o),
(592,250,qs),
(592,660,l),
(526,660,l),
(526,250,ls),
(526,155,o),
(420,55,o),
(334,55,qs),
(248,55,o),
(141,155,o),
(141,250,qs),
(141,660,l),
(75,660,l),
(75,250,ls),
(75,162,o),
(145,47,o),
(262,-6,o),
(334,-6,qs)
);
}
);
width = 668;
},
{
layerId = "4DE8B86A-429B-4593-9BC8-49866BB1A430";
shapes = (
{
closed = 1;
nodes = (
(394,-6,o),
(509,48,o),
(578,163,o),
(578,250,qs),
(578,660,l),
(552,660,l),
(552,254,ls),
(552,139.026,o),
(425,18,o),
(325,18,qs),
(225,18,o),
(99,139.026,o),
(99,254,qs),
(98,660,l),
(73,660,l),
(73,250.669,ls),
(73,162.812,o),
(142,48,o),
(256,-6,o),
(325,-6,qs)
);
}
);
width = 651;
},
{
layerId = "0BE882A4-FC89-4865-8E81-154FB3EE808B";
shapes = (
{
closed = 1;
nodes = (
(420,-6,o),
(540,47,o),
(611,162,o),
(611,250,qs),
(611,660,l),
(479,660,l),
(479,244,ls),
(479,181,o),
(406,116,o),
(343,116,qs),
(280,116,o),
(207,181,o),
(207,244,qs),
(207,660,l),
(75,660,l),
(75,250,ls),
(75,162,o),
(146,47,o),
(267,-6,o),
(343,-6,qs)
);
}
);
width = 687;
},
{
layerId = "9C2CFEA6-85BB-4338-BB26-B1BEA40B5780";
shapes = (
{
closed = 1;
nodes = (
(422,-6,o),
(543,47,o),
(614,162,o),
(614,250,qs),
(614,660,l),
(471,660,l),
(471,243,ls),
(471,185,o),
(404,126,o),
(345,126,qs),
(286,126,o),
(219,185,o),
(219,243,qs),
(218,660,l),
(75,660,l),
(75,250,ls),
(75,162,o),
(146,47,o),
(268,-6,o),
(345,-6,qs)
);
}
);
width = 690;
}
);
note = U;
unicode = 85;
},
{
glyphname = V;
kernLeft = V;
kernRight = V;
layers = (
{
layerId = m01;
shapes = (
{
closed = 1;
nodes = (
(337,0,l),
(592,660,l),
(522,660,l),
(297,77,l),
(315,77,l),
(89,660,l),
(19,660,l),
(275,0,l)
);
}
);
width = 611;
},
{
layerId = "4DE8B86A-429B-4593-9BC8-49866BB1A430";
shapes = (
{
closed = 1;
nodes = (
(284,0,l),
(539,660,l),
(514,660,l),
(271,29,l),
(286,29,l),
(41,660,l),
(16,660,l),
(273,0,l)
);
}
);
width = 555;
},
{
layerId = "0BE882A4-FC89-4865-8E81-154FB3EE808B";
shapes = (
{
closed = 1;
nodes = (
(416,0,l),
(671,660,l),
(528,660,l),
(330,149,l),
(360,149,l),
(163,660,l),
(19,660,l),
(274,0,l)
);
}
);
width = 690;
},
{
layerId = "9C2CFEA6-85BB-4338-BB26-B1BEA40B5780";
shapes = (
{
closed = 1;
nodes = (
(429,0,l),
(684,660,l),
(529,660,l),
(336,161,l),
(368,161,l),
(175,660,l),
(19,660,l),
(274,0,l)
);
}
);
width = 703;
}
);
note = V;
unicode = 86;
},
{
glyphname = W;
kernLeft = W;
kernRight = W;
layers = (
{
layerId = m01;
shapes = (
{
closed = 1;
nodes = (
(251,0,l),
(451,563,l),
(651,0,l),
(720,0,l),
(884,660,l),
(816,660,l),
(680,113,l),
(486,660,l),
(416,660,l),
(222,114,l),
(87,660,l),
(19,660,l),
(183,0,l)
);
}
);
width = 902;
},
{
layerId = "4DE8B86A-429B-4593-9BC8-49866BB1A430";
shapes = (
{
closed = 1;
nodes = (
(218,0,l),
(447,647,l),
(677,0,l),
(715,0,l),
(879,660,l),
(855,660,l),
(695,19,l),
(468,660,l),
(426,660,l),
(199,20,l),
(41,660,l),
(16,660,l),
(180,0,l)
);
}
);
width = 895;
},
{
layerId = "0BE882A4-FC89-4865-8E81-154FB3EE808B";
shapes = (
{
closed = 1;
nodes = (
(301,0,l),
(453,426,l),
(604,0,l),
(723,0,l),
(887,660,l),
(748,660,l),
(651,268,l),
(511,660,l),
(394,660,l),
(255,268,l),
(158,660,l),
(19,660,l),
(183,0,l)
);
}
);
width = 905;
},
{
layerId = "9C2CFEA6-85BB-4338-BB26-B1BEA40B5780";
shapes = (
{
closed = 1;
nodes = (
(309,0,l),
(453,404,l),
(596,0,l),
(724,0,l),
(888,660,l),
(737,660,l),
(646,293,l),
(516,660,l),
(391,660,l),
(261,293,l),
(170,660,l),
(19,660,l),
(183,0,l)
);
}
);
width = 905;
}
);
note = W;
unicode = 87;
},
{
glyphname = X;
kernLeft = X;
kernRight = X;
layers = (
{
layerId = m01;
shapes = (
{
closed = 1;
nodes = (
(306,361,l),
(14,0,l),
(96,0,l),
(348,311,l)
);
},
{
closed = 1;
nodes = (
(584,0,l),
(666,0,l),
(129,660,l),
(47,660,l)
);
},
{
closed = 1;
nodes = (
(375,339,l),
(637,660,l),
(554,660,l),
(334,390,l)
);
}
);
width = 680;
},
{
layerId = "4DE8B86A-429B-4593-9BC8-49866BB1A430";
shapes = (
{
closed = 1;
nodes = (
(303,366,l),
(10,0,l),
(39,0,l),
(319,349,l)
);
},
{
closed = 1;
nodes = (
(585,0,l),
(615,0,l),
(78,660,l),
(49,660,l)
);
},
{
closed = 1;
nodes = (
(320,344,l),
(580,660,l),
(550,660,l),
(306,364,l)
);
}
);
width = 625;
},
{
layerId = "0BE882A4-FC89-4865-8E81-154FB3EE808B";
shapes = (
{
closed = 1;
nodes = (
(308,358,l),
(14,0,l),
(182,0,l),
(393,254,l)
);
},
{
closed = 1;
nodes = (
(576,0,l),
(743,0,l),
(206,660,l),
(38,660,l)
);
},
{
closed = 1;
nodes = (
(454,326,l),
(724,660,l),
(554,660,l),
(369,429,l)
);
}
);
width = 757;
},
{
layerId = "9C2CFEA6-85BB-4338-BB26-B1BEA40B5780";
shapes = (
{
closed = 1;
nodes = (
(308,358,l),
(14,0,l),
(196,0,l),
(401,245,l)
);
},
{
closed = 1;
nodes = (
(575,0,l),
(757,0,l),
(220,660,l),
(36,660,l)
);
},
{
closed = 1;
nodes = (
(467,324,l),
(738,660,l),
(554,660,l),
(375,435,l)
);
}
);
width = 770;
}
);
note = X;
unicode = 88;
},
{
glyphname = Y;
kernLeft = Y;
kernRight = Y;
layers = (
{
layerId = m01;
shapes = (
{
closed = 1;
nodes = (
(344,0,l),
(344,320,l),
(608,660,l),
(527,660,l),
(311,382,l),
(95,660,l),
(14,660,l),
(278,320,l),
(278,0,l)
);
}
);
width = 622;
},
{
layerId = "4DE8B86A-429B-4593-9BC8-49866BB1A430";
shapes = (
{
closed = 1;
nodes = (
(293,0,l),
(293,326,l),
(552,660,l),
(523,660,l),
(281,348,l),
(39,660,l),
(10,660,l),
(269,326,l),
(269,0,l)
);
}
);
width = 562;
},
{
layerId = "0BE882A4-FC89-4865-8E81-154FB3EE808B";
shapes = (
{
closed = 1;
nodes = (
(420,0,l),
(420,310,l),
(693,660,l),
(527,660,l),
(353,437,l),
(180,660,l),
(14,660,l),
(286,310,l),
(286,0,l)
);
}
);
width = 707;
},
{
layerId = "9C2CFEA6-85BB-4338-BB26-B1BEA40B5780";
shapes = (
{
closed = 1;
nodes = (
(434,0,l),
(434,308,l),
(707,660,l),
(527,660,l),
(361,446,l),
(194,660,l),
(14,660,l),
(288,308,l),
(288,0,l)
);
}
);
width = 721;
}
);
note = Y;
unicode = 89;
},
{
glyphname = Z;
kernLeft = Z;
kernRight = Z;
layers = (
{
layerId = m01;
shapes = (
{
closed = 1;
nodes = (
(560,0,l),
(560,60,l),
(133,60,l),
(568,660,l),
(69,660,l),
(69,600,l),
(445,600,l),
(9,0,l)
);
}
);
width = 577;
},
{
layerId = "4DE8B86A-429B-4593-9BC8-49866BB1A430";
shapes = (
{
closed = 1;
nodes = (
(501,0,l),
(501,21,l),
(51,21,l),
(514,660,l),
(81,660,l),
(81,639,l),
(469,639,l),
(5,0,l)
);
}
);
width = 513;
},
{
layerId = "0BE882A4-FC89-4865-8E81-154FB3EE808B";
shapes = (
{
closed = 1;
nodes = (
(648,0,l),
(648,124,l),
(262,124,l),
(650,660,l),
(48,660,l),
(48,536,l),
(398,536,l),
(9,0,l)
);
}
);
width = 668;
},
{
layerId = "9C2CFEA6-85BB-4338-BB26-B1BEA40B5780";
shapes = (
{
closed = 1;
nodes = (
(663,0,l),
(663,134,l),
(284,134,l),
(664,660,l),
(44,660,l),
(44,526,l),
(390,526,l),
(9,0,l)
);
}
);
width = 684;
}
);
note = Z;
unicode = 90;
},
{
glyphname = Saltillo;
layers = (
{
layerId = m01;
shapes = (
{
closed = 1;
nodes = (
(287,376,l),
(340,376,l),
(346,777,l),
(280,777,l)
);
}
);
width = 600;
},
{
layerId = "4DE8B86A-429B-4593-9BC8-49866BB1A430";
shapes = (
{
closed = 1;
nodes = (
(313,376,l),
(329,376,l),
(330,778,l),
(310,778,l)
);
}
);
width = 600;
},
{
layerId = "0BE882A4-FC89-4865-8E81-154FB3EE808B";
shapes = (
{
closed = 1;
nodes = (
(257,376,l),
(365,376,l),
(378,777,l),
(243,777,l)
);
}
);
width = 600;
},
{
layerId = "9C2CFEA6-85BB-4338-BB26-B1BEA40B5780";
shapes = (
{
closed = 1;
nodes = (
(258,376,l),
(375,376,l),
(389,778,l),
(243,778,l)
);
}
);
width = 600;
}
);
note = uniA78B;
unicode = 42891;
},
{
glyphname = a;
kernLeft = a;
kernRight = a;
layers = (
{
layerId = m01;
shapes = (
{
closed = 1;
nodes = (
(242,-6,o),
(311,32,o),
(346,93,o),
(346,126,q),
(343,144,l),
(343,0,l),
(409,0,l),
(409,317,ls),
(409,371,o),
(359,443,o),
(276,477,o),
(225,477,qs),
(164,477,o),
(79,429,o),
(49,391,q),
(94,352,l),
(121,384,o),
(183,417,o),
(225,417,qs),
(282,417,o),
(343,368,o),
(343,317,qs),
(343,231,l),
(368,267,l),
(343,275,o),
(278,284,o),
(248,284,qs),
(154,284,o),
(38,215,o),
(38,130,qs),
(38,97,o),
(71,34,o),
(142,-6,o),
(196,-6,qs)
);
},
{
closed = 1;
nodes = (
(152,57,o),
(104,105,o),
(104,137,qs),
(104,187,o),
(184,233,o),
(261,233,qs),
(304,233,o),
(343,223,q),
(343,144,o),
(265,57,o),
(196,57,qs)
);
}
);
width = 480;
},
{
layerId = "4DE8B86A-429B-4593-9BC8-49866BB1A430";
shapes = (
{
closed = 1;
nodes = (
(248,-7,o),
(328,42,o),
(370,119,o),
(370,160,q),
(368,178,l),
(368,0,l),
(391,0,l),
(391,329,ls),
(392,382,o),
(346,448,o),
(271,477,o),
(225,477,qs),
(165,477,o),
(89,433,o),
(59,397,q),
(75,384,l),
(107,419,o),
(175,455,o),
(225,455,qs),
(293,455,o),
(368,393,o),
(368,325,qs),
(368,252,l),
(377,259,l),
(350,264,o),
(290,271,o),
(262,271,qs),
(162,271,o),
(45,206,o),
(45,119,qs),
(45,90,o),
(76,32,o),
(142,-7,o),
(193,-7,qs)
);
},
{
closed = 1;
nodes = (
(132,18,o),
(69,84,o),
(69,126,qs),
(69,192,o),
(171,250,o),
(269,250,qs),
(320,250,o),
(368,240,q),
(368,132,o),
(273,18,o),
(188,18,qs)
);
}
);
width = 482;
},
{
layerId = "0BE882A4-FC89-4865-8E81-154FB3EE808B";
shapes = (
{
closed = 1;
nodes = (
(234,-5,o),
(283,16,o),
(309,52,o),
(310,74,q),
(305,93,l),
(305,0,l),
(434,0,l),
(434,298,ls),
(435,355,o),
(378,436,o),
(283,477,o),
(225,477,qs),
(161,477,o),
(63,424,o),
(34,383,q),
(121,304,l),
(142,333,o),
(193,360,o),
(225,360,qs),
(266,360,o),
(306,330,o),
(306,304,qs),
(305,251,l),
(324,288,l),
(309,294,o),
(253,304,o),
(225,304,qs),
(141,304,o),
(25,225,o),
(25,144,qs),
(25,104,o),
(63,36,o),
(141,-5,o),
(201,-5,qs)
);
},
{
closed = 1;
nodes = (
(181,114,o),
(155,136,o),
(155,152,qs),
(155,181,o),
(203,207,o),
(248,207,qs),
(280,207,o),
(306,199,q),
(305,160,o),
(252,114,o),
(207,114,qs)
);
}
);
width = 477;
},
{
layerId = "9C2CFEA6-85BB-4338-BB26-B1BEA40B5780";
shapes = (
{
closed = 1;
nodes = (
(233,-5,o),
(279,13,o),
(303,45,o),
(304,66,q),
(299,85,l),
(299,0,l),
(439,0,l),
(439,295,ls),
(439,353,o),
(382,435,o),
(284,477,o),
(225,477,qs),
(161,477,o),
(61,423,o),
(31,382,q),
(126,296,l),
(146,324,o),
(195,351,o),
(225,351,qs),
(263,351,o),
(299,324,o),
(299,302,qs),
(299,255,l),
(315,292,l),
(299,298,o),
(248,307,o),
(222,307,qs),
(139,307,o),
(24,227,o),
(24,147,qs),
(24,106,o),
(61,37,o),
(141,-5,o),
(202,-5,qs)
);
},
{
closed = 1;
nodes = (
(187,124,o),
(163,142,o),
(163,155,qs),
(163,180,o),
(206,204,o),
(246,204,qs),
(275,204,o),
(299,195,q),
(299,164,o),
(250,124,o),
(209,124,qs)
);
}
);
width = 477;
}
);
note = a;
unicode = 97;
},
{
glyphname = b;
kernLeft = b;
kernRight = b;
layers = (
{
layerId = m01;
shapes = (
{
closed = 1;
nodes = (
(57,1,l),
(123,1,l),
(123,67,l),
(172,-5,o),
(270,-5,qs),
(335,-5,o),
(446,59,o),
(510,169,o),
(510,236,qs),
(510,304,o),
(448,414,o),
(341,478,o),
(275,478,qs),
(225,478,o),
(149,443,o),
(123,405,q),
(123,661,l),
(57,661,l)
);
},
{
closed = 1;
nodes = (
(322,417,o),
(399,371,o),
(444,288,o),
(444,236,qs),
(444,185,o),
(397,102,o),
(317,55,o),
(270,55,qs),
(213,55,o),
(137,109,o),
(123,147,q),
(123,324,l),
(139,363,o),
(219,417,o),
(275,417,qs)
);
}
);
width = 543;
},
{
layerId = "4DE8B86A-429B-4593-9BC8-49866BB1A430";
shapes = (
{
closed = 1;
nodes = (
(57,1,l),
(81,1,l),
(81,93,l),
(142,-5,o),
(258,-5,qs),
(321,-5,o),
(428,58,o),
(491,169,o),
(491,236,qs),
(491,305,o),
(430,415,o),
(327,478,o),
(265,478,qs),
(205,478,o),
(112,430,o),
(80,377,q),
(81,661,l),
(57,661,l)
);
},
{
closed = 1;
nodes = (
(320,457,o),
(413,401,o),
(468,300,o),
(468,236,qs),
(468,174,o),
(410,73,o),
(314,16,o),
(258,16,qs),
(191,16,o),
(98,86,o),
(80,133,q),
(81,338,l),
(99,388,o),
(199,457,o),
(265,457,qs)
);
}
);
width = 524;
},
{
layerId = "0BE882A4-FC89-4865-8E81-154FB3EE808B";
shapes = (
{
closed = 1;
nodes = (
(57,1,l),
(187,1,l),
(187,27,l),
(217,-5,o),
(287,-5,qs),
(358,-5,o),
(473,59,o),
(538,169,o),
(538,236,qs),
(538,303,o),
(475,414,o),
(363,478,o),
(291,478,qs),
(256,478,o),
(206,463,o),
(187,447,q),
(187,661,l),
(57,661,l)
);
},
{
closed = 1;
nodes = (
(325,358,o),
(379,326,o),
(409,270,o),
(409,236,qs),
(409,201,o),
(377,145,o),
(321,115,o),
(287,115,qs),
(245,115,o),
(196,144,o),
(187,166,q),
(187,302,l),
(198,326,o),
(251,358,o),
(291,358,qs)
);
}
);
width = 571;
},
{
layerId = "9C2CFEA6-85BB-4338-BB26-B1BEA40B5780";
shapes = (
{
closed = 1;
nodes = (
(57,1,l),
(197,1,l),
(197,21,l),
(225,-5,o),
(290,-5,qs),
(361,-5,o),
(477,59,o),
(543,169,o),
(543,236,qs),
(543,303,o),
(480,413,o),
(366,478,o),
(294,478,qs),
(261,478,o),
(215,466,o),
(197,454,q),
(197,661,l),
(57,661,l)
);
},
{
closed = 1;
nodes = (
(326,348,o),
(376,318,o),
(404,267,o),
(404,236,qs),
(404,203,o),
(374,152,o),
(322,124,o),
(290,124,qs),
(251,124,o),
(206,149,o),
(197,169,q),
(197,299,l),
(207,320,o),
(256,348,o),
(294,348,qs)
);
}
);
width = 576;
}
);
note = b;
unicode = 98;
},
{
glyphname = c;
kernLeft = c;
kernRight = c;
layers = (
{
layerId = m01;
shapes = (
{
closed = 1;
nodes = (
(347,-6,o),
(443,46,o),
(472,88,q),
(422,128,l),
(401,94,o),
(334,55,o),
(281,55,qs),
(231,55,o),
(148,97,o),
(99,180,o),
(99,237,qs),
(99,291,o),
(147,373,o),
(230,417,o),
(281,417,qs),
(327,417,o),
(401,375,o),
(417,340,q),
(466,383,l),
(442,428,o),
(338,477,o),
(281,477,qs),
(211,477,o),
(98,416,o),
(33,307,o),
(33,237,qs),
(33,164,o),
(99,54,o),
(212,-6,o),
(281,-6,qs)
);
}
);
width = 501;
},
{
layerId = "4DE8B86A-429B-4593-9BC8-49866BB1A430";
shapes = (
{
closed = 1;
nodes = (
(334,-6,o),
(421,39,o),
(449,76,q),
(430,91,l),
(403,57,o),
(336,16,o),
(274,16,qs),
(215,16,o),
(116,67,o),
(57,168,o),
(57,238,qs),
(57,304,o),
(115,403,o),
(214,456,o),
(274,456,qs),
(329,456,o),
(409,408,o),
(423,371,q),
(445,384,l),
(424,433,o),
(326,477,o),
(274,477,qs),
(208,477,o),
(97,418,o),
(33,310,o),
(33,238,qs),
(33,162,o),
(98,52,o),
(208,-6,o),
(274,-6,qs)
);
}
);
width = 478;
},
{
layerId = "0BE882A4-FC89-4865-8E81-154FB3EE808B";
shapes = (
{
closed = 1;
nodes = (
(366,-6,o),
(477,55,o),
(507,105,q),
(411,183,l),
(394,148,o),
(333,113,o),
(291,113,qs),
(254,113,o),
(196,143,o),
(162,198,o),
(162,236,qs),
(162,271,o),
(196,327,o),
(254,357,o),
(291,357,qs),
(325,357,o),
(390,326,o),
(406,295,q),
(497,381,l),
(468,423,o),
(356,477,o),
(291,477,qs),
(217,477,o),
(99,413,o),
(33,302,o),
(33,236,qs),
(33,166,o),
(101,56,o),
(219,-6,o),
(291,-6,qs)
);
}
);
width = 536;
},
{
layerId = "9C2CFEA6-85BB-4338-BB26-B1BEA40B5780";
shapes = (
{
closed = 1;
nodes = (
(369,-6,o),
(483,57,o),
(513,108,q),
(409,192,l),
(392,156,o),
(333,123,o),
(293,123,qs),
(258,123,o),
(204,150,o),
(173,201,o),
(173,236,qs),
(173,268,o),
(204,319,o),
(259,348,o),
(293,348,qs),
(325,348,o),
(388,318,o),
(405,288,q),
(503,381,l),
(472,422,o),
(359,477,o),
(293,477,qs),
(218,477,o),
(99,412,o),
(33,302,o),
(33,236,qs),
(33,167,o),
(101,56,o),
(220,-6,o),
(293,-6,qs)
);
}
);
width = 542;
}
);
note = c;
unicode = 99;
},
{
glyphname = d;
kernLeft = d;
layers = (
{
layerId = m01;
shapes = (
{
closed = 1;
nodes = (
(421,660,l),
(421,405,l),
(394,443,o),
(318,477,o),
(268,477,qs),
(202,477,o),
(95,414,o),
(33,304,o),
(33,236,qs),
(33,169,o),
(97,58,o),
(208,-6,o),
(273,-6,qs),
(371,-6,o),
(421,67,q),
(421,0,l),
(487,0,l),
(487,660,l)
);
},
{
closed = 1;
nodes = (
(324,417,o),
(404,363,o),
(421,323,q),
(421,146,l),
(406,108,o),
(330,55,o),
(273,55,qs),
(227,55,o),
(146,101,o),
(99,184,o),
(99,236,qs),
(99,288,o),
(144,371,o),
(221,417,o),
(268,417,qs)
);
}
);
width = 543;
},
{
layerId = "4DE8B86A-429B-4593-9BC8-49866BB1A430";
shapes = (
{
closed = 1;
nodes = (
(445,660,l),
(445,377,l),
(412,430,o),
(319,477,o),
(259,477,qs),
(198,477,o),
(94,414,o),
(33,304,o),
(33,236,qs),
(33,169,o),
(97,58,o),
(204,-6,o),
(266,-6,qs),
(382,-6,o),
(444,93,q),
(445,0,l),
(468,0,l),
(468,660,l)
);
},
{
closed = 1;
nodes = (
(326,456,o),
(425,387,o),
(444,338,q),
(445,133,l),
(426,85,o),
(333,15,o),
(266,15,qs),
(211,15,o),
(114,73,o),
(57,174,o),
(57,236,qs),
(57,300,o),
(112,401,o),
(205,456,o),
(259,456,qs)
);
}
);
width = 524;
},
{
layerId = "0BE882A4-FC89-4865-8E81-154FB3EE808B";
shapes = (
{
closed = 1;
nodes = (
(385,660,l),
(385,447,l),
(366,463,o),
(315,477,o),
(280,477,qs),
(209,477,o),
(96,413,o),
(33,303,o),
(33,236,qs),
(33,169,o),
(99,58,o),
(214,-6,o),
(285,-6,qs),
(355,-6,o),
(385,27,q),
(385,0,l),
(515,0,l),
(515,660,l)
);
},
{
closed = 1;
nodes = (
(321,357,o),
(374,326,o),
(385,302,q),
(385,166,l),
(375,143,o),
(326,114,o),
(285,114,qs),
(251,114,o),
(195,145,o),
(162,200,o),
(162,236,qs),
(162,270,o),
(192,325,o),
(246,357,o),
(280,357,qs)
);
}
);
width = 571;
},
{
layerId = "9C2CFEA6-85BB-4338-BB26-B1BEA40B5780";
shapes = (
{
closed = 1;
nodes = (
(380,660,l),
(380,454,l),
(361,466,o),
(315,477,o),
(282,477,qs),
(210,477,o),
(96,413,o),
(33,302,o),
(33,236,qs),
(33,169,o),
(99,58,o),
(215,-6,o),
(287,-6,qs),
(351,-6,o),
(379,21,q),
(380,0,l),
(520,0,l),
(520,660,l)
);
},
{
closed = 1;
nodes = (
(320,347,o),
(369,319,o),
(379,298,q),
(380,169,l),
(370,148,o),
(326,124,o),
(287,124,qs),
(254,124,o),
(202,152,o),
(173,203,o),
(173,236,qs),
(173,267,o),
(200,318,o),
(250,347,o),
(282,347,qs)
);
}
);
width = 576;
}
);
note = d;
unicode = 100;
},
{
glyphname = dcroat;
kernLeft = d;
layers = (
{
layerId = m01;
shapes = (
{
closed = 1;
nodes = (
(421,660,l),
(421,405,l),
(394,443,o),
(318,477,o),
(268,477,qs),
(202,477,o),
(95,414,o),
(33,304,o),
(33,236,qs),
(33,169,o),
(97,58,o),
(208,-6,o),
(273,-6,qs),
(371,-6,o),
(421,67,q),
(421,0,l),
(487,0,l),
(487,660,l)
);
},
{
closed = 1;
nodes = (
(324,417,o),
(404,363,o),
(421,323,q),
(421,146,l),
(406,108,o),
(330,55,o),
(273,55,qs),
(227,55,o),
(146,101,o),
(99,184,o),
(99,236,qs),
(99,288,o),
(144,371,o),
(221,417,o),
(268,417,qs)
);
},
{
closed = 1;
nodes = (
(278,531,l),
(560,531,l),
(560,597,l),
(278,597,l)
);
}
);
width = 543;
},
{
layerId = "4DE8B86A-429B-4593-9BC8-49866BB1A430";
shapes = (
{
closed = 1;
nodes = (
(445,660,l),
(445,377,l),
(412,430,o),
(319,477,o),
(259,477,qs),
(198,477,o),
(94,414,o),
(33,304,o),
(33,236,qs),
(33,169,o),
(97,58,o),
(204,-6,o),
(266,-6,qs),
(382,-6,o),
(444,93,q),
(445,0,l),
(468,0,l),
(468,660,l)
);
},
{
closed = 1;
nodes = (
(326,456,o),
(425,387,o),
(444,338,q),
(445,133,l),
(426,85,o),
(333,15,o),
(266,15,qs),
(211,15,o),
(114,73,o),
(57,174,o),
(57,236,qs),
(57,300,o),
(112,401,o),
(205,456,o),
(259,456,qs)
);
},
{
closed = 1;
nodes = (
(320,551,l),
(542,551,l),
(542,574,l),
(320,574,l)
);
}
);
width = 524;
},
{
layerId = "0BE882A4-FC89-4865-8E81-154FB3EE808B";
shapes = (
{
closed = 1;
nodes = (
(385,660,l),
(385,447,l),
(366,463,o),
(315,477,o),
(280,477,qs),
(209,477,o),
(96,413,o),
(33,303,o),
(33,236,qs),
(33,169,o),
(99,58,o),
(214,-6,o),
(285,-6,qs),
(355,-6,o),
(385,27,q),
(385,0,l),
(515,0,l),
(515,660,l)
);
},
{
closed = 1;
nodes = (
(321,357,o),
(374,326,o),
(385,302,q),
(385,166,l),
(375,143,o),
(326,114,o),
(285,114,qs),
(251,114,o),
(195,145,o),
(162,200,o),
(162,236,qs),
(162,270,o),
(192,325,o),
(246,357,o),
(280,357,qs)
);
},
{
closed = 1;
nodes = (
(217,496,l),
(588,496,l),
(588,631,l),
(217,631,l)
);
}
);
width = 571;
},
{
layerId = "9C2CFEA6-85BB-4338-BB26-B1BEA40B5780";
shapes = (
{
closed = 1;
nodes = (
(380,660,l),
(380,454,l),
(361,466,o),
(315,477,o),
(282,477,qs),
(210,477,o),
(96,413,o),
(33,302,o),
(33,236,qs),
(33,169,o),
(99,58,o),
(215,-6,o),
(287,-6,qs),
(351,-6,o),
(379,21,q),
(380,0,l),
(520,0,l),
(520,660,l)
);
},
{
closed = 1;
nodes = (
(320,347,o),
(369,319,o),
(379,298,q),
(380,169,l),
(370,148,o),
(326,124,o),
(287,124,qs),
(254,124,o),
(202,152,o),
(173,203,o),
(173,236,qs),
(173,267,o),
(200,318,o),
(250,347,o),
(282,347,qs)
);
},
{
closed = 1;
nodes = (
(199,490,l),
(596,490,l),
(596,637,l),
(199,637,l)
);
}
);
width = 576;
}
);
note = dcroat;
unicode = 273;
},
{
glyphname = eth;
kernLeft = c;
kernRight = eth;
layers = (
{
layerId = m01;
shapes = (
{
closed = 1;
nodes = (
(331,-8,o),
(418,54,o),
(467,158,o),
(467,216,qs),
(467,343,o),
(380,557,o),
(302,620,q),
(372,702,l),
(323,741,l),
(249,656,l),
(174,696,o),
(85,696,q),
(85,636,l),
(151,636,o),
(207,607,q),
(169,564,l),
(219,524,l),
(260,572,l),
(329,516,o),
(368,414,q),
(325,440,o),
(277,440,qs),
(223,440,o),
(136,377,o),
(88,274,o),
(88,216,qs),
(88,155,o),
(139,52,o),
(226,-8,o),
(277,-8,qs)
);
},
{
closed = 1;
nodes = (
(246,52,o),
(189,95,o),
(154,170,o),
(154,216,qs),
(154,257,o),
(186,333,o),
(242,380,o),
(277,380,qs),
(309,380,o),
(366,337,o),
(401,262,o),
(401,216,qs),
(401,177,o),
(370,101,o),
(314,52,o),
(277,52,qs)
);
}
);
width = 566;
},
{
layerId = "4DE8B86A-429B-4593-9BC8-49866BB1A430";
shapes = (
{
closed = 1;
nodes = (
(327,-12,o),
(409,49,o),
(455,145,o),
(455,196,qs),
(455,333,o),
(364,557,o),
(284,622,q),
(361,712,l),
(330,733,l),
(254,647,l),
(183,690,o),
(97,697,q),
(97,680,l),
(178,674,o),
(243,634,q),
(196,580,l),
(229,558,l),
(271,607,l),
(370,528,o),
(420,378,q),
(351,421,o),
(277,421,qs),
(224,421,o),
(143,359,o),
(100,259,o),
(100,204,qs),
(100,145,o),
(148,46,o),
(230,-12,o),
(277,-12,qs)
);
},
{
closed = 1;
nodes = (
(236,5,o),
(163,58,o),
(120,149,o),
(120,204,qs),
(120,251,o),
(161,344,o),
(233,404,o),
(277,404,qs),
(318,404,o),
(391,351,o),
(435,259,o),
(435,204,qs),
(435,161,o),
(396,68,o),
(324,5,o),
(277,5,qs)
);
}
);
width = 566;
},
{
layerId = "0BE882A4-FC89-4865-8E81-154FB3EE808B";
shapes = (
{
closed = 1;
nodes = (
(336,-3,o),
(430,63,o),
(484,177,o),
(484,246,qs),
(484,357,o),
(405,555,o),
(329,618,q),
(389,687,l),
(313,752,l),
(241,670,l),
(158,704,o),
(67,695,q),
(67,570,l),
(111,576,o),
(152,568,q),
(128,539,l),
(204,473,l),
(243,519,l),
(273,494,o),
(290,468,q),
(286,470,o),
(277,470,qs),
(221,470,o),
(125,405,o),
(70,296,o),
(70,234,qs),
(70,170,o),
(125,62,o),
(220,-3,o),
(277,-3,qs)
);
},
{
closed = 1;
nodes = (
(260,123,o),
(226,151,o),
(205,202,o),
(205,234,qs),
(205,267,o),
(223,317,o),
(256,345,o),
(277,345,qs),
(294,345,o),
(328,317,o),
(350,266,o),
(350,235,qs),
(350,200,o),
(331,149,o),
(298,123,o),
(277,123,qs)
);
}
);
width = 566;
},
{
layerId = "9C2CFEA6-85BB-4338-BB26-B1BEA40B5780";
shapes = (
{
closed = 1;
nodes = (
(337,-2,o),
(433,65,o),
(487,180,o),
(487,251,qs),
(487,360,o),
(409,556,o),
(334,618,q),
(392,684,l),
(311,754,l),
(241,673,l),
(156,706,o),
(64,695,q),
(64,559,l),
(105,567,o),
(142,561,q),
(121,536,l),
(201,465,l),
(240,511,l),
(258,494,o),
(276,477,q),
(279,475,o),
(277,474,q),
(220,474,o),
(124,409,o),
(67,299,o),
(67,237,qs),
(67,173,o),
(123,63,o),
(219,-2,o),
(277,-2,qs)
);
},
{
closed = 1;
nodes = (
(262,135,o),
(232,161,o),
(213,207,o),
(213,237,qs),
(213,269,o),
(229,315,o),
(258,339,o),
(277,339,qs),
(292,339,o),
(322,313,o),
(341,267,o),
(341,238,qs),
(341,204,o),
(325,158,o),
(296,135,o),
(277,135,qs)
);
}
);
width = 566;
}
);
note = eth;
unicode = 240;
},
{
glyphname = e;
kernLeft = c;
kernRight = ae;
layers = (
{
layerId = m01;
shapes = (
{
closed = 1;
nodes = (
(67,223,l),
(470,223,l),
(482,292,o),
(441,411,o),
(337,484,o),
(261,484,qs),
(189,484,o),
(86,421,o),
(33,313,o),
(33,245,qs),
(33,176,o),
(87,60,o),
(195,-9,o),
(272,-9,qs),
(331,-9,o),
(415,31,o),
(461,80,o),
(472,102,q),
(422,141,l),
(404,100,o),
(331,51,o),
(272,51,qs),
(221,51,o),
(143,96,o),
(99,183,o),
(99,245,qs),
(99,306,o),
(142,389,o),
(216,429,o),
(261,429,qs),
(312,429,o),
(381,386,o),
(411,308,o),
(404,256,q),
(422,275,l),
(67,275,l)
);
}
);
width = 503;
},
{
layerId = "4DE8B86A-429B-4593-9BC8-49866BB1A430";
shapes = (
{
closed = 1;
nodes = (
(48,234,l),
(456,234,l),
(468,278,o),
(441,396,o),
(344,484,o),
(256,484,qs),
(185,484,o),
(84,420,o),
(33,313,o),
(33,247,qs),
(33,177,o),
(87,61,o),
(191,-8,o),
(264,-8,qs),
(329,-8,o),
(415,39,o),
(456,95,o),
(456,103,q),
(437,116,l),
(415,70,o),
(329,14,o),
(264,14,qs),
(206,14,o),
(112,70,o),
(58,176,o),
(58,247,qs),
(58,318,o),
(115,416,o),
(206,464,o),
(256,464,qs),
(315,464,o),
(402,411,o),
(443,312,o),
(436,245,q),
(441,256,l),
(48,256,l)
);
}
);
width = 488;
},
{
layerId = "0BE882A4-FC89-4865-8E81-154FB3EE808B";
shapes = (
{
closed = 1;
nodes = (
(95,206,l),
(492,206,l),
(506,311,o),
(442,435,o),
(332,484,o),
(269,484,qs),
(195,484,o),
(89,422,o),
(33,313,o),
(33,242,qs),
(33,175,o),
(88,60,o),
(201,-10,o),
(283,-10,qs),
(335,-10,o),
(418,18,o),
(477,68,o),
(497,101,q),
(399,180,l),
(389,145,o),
(335,106,o),
(283,106,qs),
(245,106,o),
(191,133,o),
(161,194,o),
(161,242,qs),
(161,289,o),
(184,348,o),
(231,377,o),
(269,377,qs),
(307,377,o),
(350,350,o),
(362,303,o),
(356,273,q),
(394,303,l),
(95,303,l)
);
}
);
width = 526;
},
{
layerId = "9C2CFEA6-85BB-4338-BB26-B1BEA40B5780";
shapes = (
{
closed = 1;
nodes = (
(100,203,l),
(495,203,l),
(510,315,o),
(443,439,o),
(332,484,o),
(270,484,qs),
(196,484,o),
(89,422,o),
(33,313,o),
(33,242,qs),
(33,175,o),
(88,60,o),
(202,-10,o),
(285,-10,qs),
(336,-10,o),
(418,16,o),
(480,66,o),
(501,101,q),
(396,186,l),
(386,153,o),
(336,115,o),
(285,115,qs),
(249,115,o),
(199,140,o),
(172,196,o),
(172,242,qs),
(172,287,o),
(191,342,o),
(234,369,o),
(270,369,qs),
(307,369,o),
(346,344,o),
(355,303,o),
(348,276,q),
(389,308,l),
(100,308,l)
);
}
);
width = 529;
}
);
note = e;
unicode = 101;
},
{
glyphname = f;
kernLeft = f;
kernRight = f;
layers = (
{
layerId = m01;
shapes = (
{
closed = 1;
nodes = (
(163,0,l),
(163,411,l),
(298,411,l),
(298,472,l),
(163,472,l),
(163,538,ls),
(163,576,o),
(191,616,o),
(223,616,qs),
(261,616,o),
(291,581,q),
(325,629,l),
(310,651,o),
(252,674,o),
(218,674,qs),
(153,674,o),
(97,602,o),
(97,538,qs),
(97,472,l),
(8,472,l),
(8,411,l),
(97,411,l),
(97,0,l)
);
}
);
width = 324;
},
{
layerId = "4DE8B86A-429B-4593-9BC8-49866BB1A430";
shapes = (
{
closed = 1;
nodes = (
(125,0,l),
(125,451,l),
(273,451,l),
(273,472,l),
(125,472,l),
(125,556,ls),
(125,604,o),
(161,654,o),
(205,654,qs),
(251,654,o),
(283,621,q),
(298,637,l),
(290,653,o),
(240,677,o),
(207,677,qs),
(153,677,o),
(102,617,o),
(102,556,qs),
(102,472,l),
(4,472,l),
(4,451,l),
(102,451,l),
(102,0,l)
);
}
);
width = 293;
},
{
layerId = "0BE882A4-FC89-4865-8E81-154FB3EE808B";
shapes = (
{
closed = 1;
nodes = (
(220,0,l),
(220,352,l),
(335,352,l),
(335,472,l),
(220,472,l),
(220,511,ls),
(220,535,o),
(237,557,o),
(250,557,qs),
(277,557,o),
(305,520,q),
(366,616,l),
(340,646,o),
(273,670,o),
(234,670,qs),
(152,670,o),
(91,580,o),
(91,511,qs),
(90,472,l),
(14,472,l),
(14,352,l),
(90,352,l),
(90,0,l)
);
}
);
width = 371;
},
{
layerId = "9C2CFEA6-85BB-4338-BB26-B1BEA40B5780";
shapes = (
{
closed = 1;
nodes = (
(229,0,l),
(229,342,l),
(341,342,l),
(341,472,l),
(229,472,l),
(229,506,ls),
(229,529,o),
(245,548,o),
(255,548,qs),
(280,548,o),
(306,509,q),
(372,614,l),
(345,645,o),
(276,670,o),
(237,670,qs),
(152,670,o),
(90,577,o),
(90,506,qs),
(89,472,l),
(15,472,l),
(15,342,l),
(89,342,l),
(89,0,l)
);
}
);
width = 379;
}
);
note = f;
unicode = 102;
},
{
glyphname = g;
kernLeft = g;
kernRight = g;
layers = (
{
layerId = m01;
shapes = (
{
closed = 1;
nodes = (
(381,409,l),
(490,393,l),
(501,467,l),
(323,456,l)
);
},
{
closed = 1;
nodes = (
(228,195,o),
(180,224,o),
(151,274,o),
(151,306,qs),
(151,339,o),
(180,389,o),
(228,417,o),
(256,417,qs),
(285,417,o),
(334,389,o),
(363,339,o),
(363,306,qs),
(363,274,o),
(334,224,o),
(285,195,o),
(256,195,qs)
);
},
{
closed = 1;
nodes = (
(131,2,l),
(86,-18,o),
(31,-93,o),
(31,-141,qs),
(31,-180,o),
(74,-247,o),
(166,-288,o),
(236,-288,qs),
(324,-288,o),
(440,-237,o),
(495,-153,o),
(495,-101,qs),
(495,-42,o),
(435,19,o),
(339,38,o),
(268,38,qs),
(197,37,ls),
(150,37,o),
(97,62,o),
(97,94,qs),
(97,122,o),
(127,150,o),
(167,155,o),
(181,150,qs),
(205,141,o),
(237,135,o),
(256,135,qs),
(303,135,o),
(383,181,o),
(429,260,o),
(429,306,qs),
(429,353,o),
(382,431,o),
(303,477,o),
(256,477,qs),
(210,477,o),
(131,431,o),
(85,353,o),
(85,306,qs),
(85,267,o),
(117,200,o),
(145,175,q),
(178,188,l),
(137,193,o),
(72,168,o),
(37,117,o),
(37,86,qs),
(37,39,o),
(94,-9,o),
(182,-22,o),
(247,-23,qs),
(280,-23,ls),
(355,-23,o),
(430,-56,o),
(430,-105,qs),
(430,-166,o),
(326,-227,o),
(237,-227,qs),
(158,-227,o),
(90,-165,o),
(91,-117,qs),
(91,-94,o),
(114,-52,o),
(152,-21,o),
(174,-16,q)
);
}
);
width = 529;
},
{
layerId = "4DE8B86A-429B-4593-9BC8-49866BB1A430";
shapes = (
{
closed = 1;
nodes = (
(360,436,l),
(472,422,l),
(486,466,l),
(326,454,l)
);
},
{
closed = 1;
nodes = (
(219,169,o),
(155,207,o),
(117,273,o),
(117,313,qs),
(117,354,o),
(155,420,o),
(219,456,o),
(256,456,qs),
(294,456,o),
(359,419,o),
(397,354,o),
(397,313,qs),
(397,273,o),
(359,206,o),
(294,169,o),
(256,169,qs)
);
},
{
closed = 1;
nodes = (
(138,14,l),
(92,-8,o),
(40,-86,o),
(40,-136,qs),
(40,-170,o),
(74,-240,o),
(162,-289,o),
(237,-289,qs),
(324,-289,o),
(437,-233,o),
(487,-151,o),
(487,-108,qs),
(487,-52,o),
(433,5,o),
(343,22,o),
(269,22,qs),
(196,21,ls),
(146,21,o),
(83,51,o),
(83,91,qs),
(83,126,o),
(119,164,o),
(166,173,o),
(180,166,q),
(211,154,o),
(238,147,o),
(256,147,qs),
(301,147,o),
(376,191,o),
(421,268,o),
(421,313,qs),
(421,358,o),
(376,433,o),
(301,477,o),
(256,477,qs),
(212,477,o),
(137,433,o),
(93,358,o),
(93,313,qs),
(93,272,o),
(128,203,o),
(159,178,q),
(174,181,l),
(133,184,o),
(81,154,o),
(58,109,o),
(58,88,qs),
(58,44,o),
(118,3,o),
(195,-5,o),
(246,-4,qs),
(266,-4,ls),
(367,-4,o),
(461,-43,o),
(461,-103,qs),
(461,-183,o),
(344,-266,o),
(237,-266,qs),
(141,-266,o),
(61,-182,o),
(62,-120,qs),
(63,-95,o),
(88,-45,o),
(133,-6,o),
(163,2,q)
);
}
);
width = 525;
},
{
layerId = "0BE882A4-FC89-4865-8E81-154FB3EE808B";
shapes = (
{
closed = 1;
nodes = (
(412,368,l),
(517,350,l),
(524,468,l),
(318,459,l)
);
},
{
closed = 1;
nodes = (
(242,235,o),
(217,249,o),
(202,277,o),
(202,296,qs),
(202,315,o),
(217,343,o),
(242,357,o),
(256,357,qs),
(271,357,o),
(297,343,o),
(312,315,o),
(312,296,qs),
(312,277,o),
(297,249,o),
(271,235,o),
(256,235,qs)
);
},
{
closed = 1;
nodes = (
(121,-16,l),
(78,-33,o),
(19,-103,o),
(19,-147,qs),
(19,-195,o),
(74,-258,o),
(171,-287,o),
(235,-287,qs),
(324,-287,o),
(445,-244,o),
(507,-157,o),
(507,-90,qs),
(507,-26,o),
(437,41,o),
(333,62,o),
(266,62,qs),
(198,61,ls),
(156,61,o),
(118,79,o),
(118,100,qs),
(118,115,o),
(139,129,o),
(169,130,o),
(183,125,qs),
(198,121,o),
(235,116,o),
(256,116,qs),
(307,116,o),
(391,165,o),
(441,247,o),
(441,296,qs),
(441,345,o),
(392,428,o),
(307,477,o),
(256,477,qs),
(206,477,o),
(122,428,o),
(73,345,o),
(73,296,qs),
(73,261,o),
(100,196,o),
(124,172,q),
(186,192,l),
(143,205,o),
(59,188,o),
(6,129,o),
(6,83,qs),
(6,30,o),
(58,-27,o),
(160,-49,o),
(247,-50,qs),
(301,-51,ls),
(336,-51,o),
(383,-77,o),
(383,-108,qs),
(383,-141,o),
(299,-170,o),
(237,-170,qs),
(184,-170,o),
(133,-139,o),
(133,-112,qs),
(133,-92,o),
(153,-61,o),
(181,-43,o),
(190,-43,q)
);
}
);
width = 535;
},
{
layerId = "9C2CFEA6-85BB-4338-BB26-B1BEA40B5780";
shapes = (
{
closed = 1;
nodes = (
(418,361,l),
(522,342,l),
(527,468,l),
(317,460,l)
);
},
{
closed = 1;
nodes = (
(244,241,o),
(223,254,o),
(210,278,o),
(210,294,qs),
(210,311,o),
(223,336,o),
(244,348,o),
(256,348,qs),
(269,348,o),
(290,336,o),
(304,311,o),
(304,294,qs),
(304,277,o),
(291,254,o),
(269,241,o),
(256,241,qs)
);
},
{
closed = 1;
nodes = (
(119,-19,l),
(77,-35,o),
(17,-105,o),
(17,-148,qs),
(17,-198,o),
(74,-260,o),
(171,-287,o),
(235,-287,qs),
(324,-287,o),
(446,-246,o),
(509,-157,o),
(509,-88,qs),
(509,-24,o),
(437,44,o),
(332,66,o),
(266,66,qs),
(198,65,ls),
(157,65,o),
(122,81,o),
(122,101,qs),
(122,114,o),
(141,126,o),
(169,125,o),
(183,122,q),
(197,117,o),
(235,113,o),
(256,113,qs),
(307,113,o),
(393,162,o),
(443,245,o),
(443,294,qs),
(443,344,o),
(393,428,o),
(307,477,o),
(256,477,qs),
(206,477,o),
(121,428,o),
(71,344,o),
(71,294,qs),
(71,259,o),
(97,195,o),
(120,171,q),
(186,193,l),
(144,207,o),
(58,192,o),
(1,132,o),
(1,83,qs),
(1,29,o),
(52,-30,o),
(156,-53,o),
(247,-55,qs),
(305,-56,ls),
(333,-56,o),
(375,-80,o),
(375,-108,qs),
(375,-137,o),
(296,-160,o),
(237,-160,qs),
(188,-160,o),
(141,-135,o),
(141,-111,qs),
(140,-92,o),
(160,-62,o),
(186,-47,o),
(192,-48,q)
);
}
);
width = 536;
}
);
note = g;
unicode = 103;
},
{
glyphname = h;
kernLeft = b;
kernRight = h;
layers = (
{
layerId = m01;
shapes = (
{
closed = 1;
nodes = (
(113,0,l),
(113,300,l),
(118,328,o),
(158,382,o),
(220,417,o),
(256,417,qs),
(319,417,o),
(383,348,o),
(383,276,qs),
(383,0,l),
(449,0,l),
(449,277,ls),
(449,378,o),
(357,477,o),
(265,477,qs),
(230,477,o),
(167,447,o),
(123,399,o),
(113,373,q),
(113,660,l),
(47,660,l),
(47,0,l)
);
}
);
width = 496;
},
{
layerId = "4DE8B86A-429B-4593-9BC8-49866BB1A430";
shapes = (
{
closed = 1;
nodes = (
(71,0,l),
(71,299,l),
(73,334,o),
(117,407,o),
(194,456,o),
(242,456,qs),
(318,456,o),
(395,372,o),
(395,283,qs),
(395,0,l),
(419,0,l),
(419,285,ls),
(419,391,o),
(330,477,o),
(242,477,qs),
(201,477,o),
(130,438,o),
(81,379,o),
(71,348,q),
(71,660,l),
(47,660,l),
(47,0,l)
);
}
);
width = 466;
},
{
layerId = "0BE882A4-FC89-4865-8E81-154FB3EE808B";
shapes = (
{
closed = 1;
nodes = (
(176,0,l),
(176,301,l),
(185,319,o),
(218,345,o),
(257,357,o),
(275,357,qs),
(319,357,o),
(365,312,o),
(365,266,qs),
(365,0,l),
(494,0,l),
(494,266,ls),
(494,359,o),
(398,477,o),
(299,477,qs),
(271,477,o),
(222,460,o),
(186,430,o),
(176,411,q),
(176,660,l),
(47,660,l),
(47,0,l)
);
}
);
width = 541;
},
{
layerId = "9C2CFEA6-85BB-4338-BB26-B1BEA40B5780";
shapes = (
{
closed = 1;
nodes = (
(187,0,l),
(187,301,l),
(196,318,o),
(228,339,o),
(263,348,o),
(279,348,qs),
(320,348,o),
(362,306,o),
(362,264,qs),
(362,0,l),
(502,0,l),
(502,264,ls),
(502,356,o),
(405,477,o),
(305,477,qs),
(278,477,o),
(231,462,o),
(196,436,o),
(187,418,q),
(187,660,l),
(47,660,l),
(47,0,l)
);
}
);
width = 549;
}
);
note = h;
unicode = 104;
},
{
glyphname = hbar;
kernRight = h;
layers = (
{
layerId = m01;
shapes = (
{
closed = 1;
nodes = (
(113,0,l),
(113,300,l),
(118,328,o),
(158,382,o),
(220,417,o),
(256,417,qs),
(319,417,o),
(383,348,o),
(383,276,qs),
(383,0,l),
(449,0,l),
(449,277,ls),
(449,378,o),
(357,477,o),
(265,477,qs),
(230,477,o),
(167,447,o),
(123,399,o),
(113,373,q),
(113,660,l),
(47,660,l),
(47,0,l)
);
},
{
closed = 1;
nodes = (
(-1,531,l),
(281,531,l),
(281,597,l),
(-1,597,l)
);
}
);
width = 496;
},
{
layerId = "4DE8B86A-429B-4593-9BC8-49866BB1A430";
shapes = (
{
closed = 1;
nodes = (
(71,0,l),
(71,299,l),
(73,334,o),
(117,407,o),
(194,456,o),
(242,456,qs),
(318,456,o),
(395,372,o),
(395,283,qs),
(395,0,l),
(419,0,l),
(419,285,ls),
(419,391,o),
(330,477,o),
(242,477,qs),
(201,477,o),
(130,438,o),
(81,379,o),
(71,348,q),
(71,660,l),
(47,660,l),
(47,0,l)
);
},
{
closed = 1;
nodes = (
(2,551,l),
(225,551,l),
(225,574,l),
(2,574,l)
);
}
);
width = 466;
},
{
layerId = "0BE882A4-FC89-4865-8E81-154FB3EE808B";
shapes = (
{
closed = 1;
nodes = (
(176,0,l),
(176,301,l),
(185,319,o),
(218,345,o),
(257,357,o),
(275,357,qs),
(319,357,o),
(365,312,o),
(365,266,qs),
(365,0,l),
(494,0,l),
(494,266,ls),
(494,359,o),
(398,477,o),
(299,477,qs),
(271,477,o),
(222,460,o),
(186,430,o),
(176,411,q),
(176,660,l),
(47,660,l),
(47,0,l)
);
},
{
closed = 1;
nodes = (
(-3,508,l),
(367,508,l),
(367,616,l),
(-3,616,l)
);
}
);
width = 541;
},
{
layerId = "9C2CFEA6-85BB-4338-BB26-B1BEA40B5780";
shapes = (
{
closed = 1;
nodes = (
(187,0,l),
(187,301,l),
(196,318,o),
(228,339,o),
(263,348,o),
(279,348,qs),
(320,348,o),
(362,306,o),
(362,264,qs),
(362,0,l),
(502,0,l),
(502,264,ls),
(502,356,o),
(405,477,o),
(305,477,qs),
(278,477,o),
(231,462,o),
(196,436,o),
(187,418,q),
(187,660,l),
(47,660,l),
(47,0,l)
);
},
{
closed = 1;
nodes = (
(-12,497,l),
(386,497,l),
(386,614,l),
(-12,614,l)
);
}
);
width = 549;
}
);
note = hbar;
unicode = 295;
},
{
glyphname = idotless;
kernLeft = i;
kernRight = i;
layers = (
{
layerId = m01;
shapes = (
{
closed = 1;
nodes = (
(124,0,l),
(124,472,l),
(58,472,l),
(58,0,l)
);
}
);
width = 182;
},
{
layerId = "4DE8B86A-429B-4593-9BC8-49866BB1A430";
shapes = (
{
closed = 1;
nodes = (
(89,0,l),
(89,472,l),
(66,472,l),
(66,0,l)
);
}
);
width = 154;
},
{
layerId = "0BE882A4-FC89-4865-8E81-154FB3EE808B";
shapes = (
{
closed = 1;
nodes = (
(176,0,l),
(176,472,l),
(47,472,l),
(47,0,l)
);
}
);
width = 223;
},
{
layerId = "9C2CFEA6-85BB-4338-BB26-B1BEA40B5780";
shapes = (
{
closed = 1;
nodes = (
(184,0,l),
(184,472,l),
(45,472,l),
(45,0,l)
);
}
);
width = 230;
}
);
note = dotlessi;
unicode = 305;
},
{
glyphname = jdotless;
kernLeft = j;
kernRight = ij;
layers = (
{
layerId = m01;
shapes = (
{
closed = 1;
nodes = (
(-70,-192,l),
(-18,-192,o),
(71,-149,o),
(124,-66,o),
(124,-8,qs),
(124,472,l),
(58,472,l),
(58,-8,ls),
(58,-67,o),
(-15,-132,o),
(-70,-132,q)
);
}
);
width = 172;
},
{
layerId = "4DE8B86A-429B-4593-9BC8-49866BB1A430";
shapes = (
{
closed = 1;
nodes = (
(-75,-208,l),
(-27,-203,o),
(47,-157,o),
(90,-80,o),
(90,-28,qs),
(89,472,l),
(66,472,l),
(66,-28,ls),
(66,-96,o),
(-14,-181,o),
(-74,-190,q)
);
}
);
width = 137;
},
{
layerId = "0BE882A4-FC89-4865-8E81-154FB3EE808B";
shapes = (
{
closed = 1;
nodes = (
(-63,-167,l),
(-4,-177,o),
(107,-138,o),
(176,-46,o),
(176,21,qs),
(176,472,l),
(47,472,l),
(47,21,ls),
(47,-24,o),
(-17,-59,o),
(-63,-46,q)
);
}
);
width = 224;
},
{
layerId = "9C2CFEA6-85BB-4338-BB26-B1BEA40B5780";
shapes = (
{
closed = 1;
nodes = (
(-62,-164,l),
(-2,-175,o),
(113,-136,o),
(185,-43,o),
(185,25,qs),
(184,472,l),
(45,472,l),
(45,26,ls),
(45,-16,o),
(-18,-47,o),
(-62,-32,q)
);
}
);
width = 233;
}
);
note = uni0237;
unicode = 567;
},
{
glyphname = k;
kernLeft = b;
kernRight = k;
layers = (
{
layerId = m01;
shapes = (
{
closed = 1;
nodes = (
(123,0,l),
(123,280,l),
(103,207,l),
(187,273,l),
(357,0,l),
(431,0,l),
(221,338,l),
(205,288,l),
(440,472,l),
(335,472,l),
(109,296,l),
(123,284,l),
(123,660,l),
(57,660,l),
(57,0,l)
);
}
);
width = 455;
},
{
layerId = "4DE8B86A-429B-4593-9BC8-49866BB1A430";
shapes = (
{
closed = 1;
nodes = (
(81,0,l),
(81,290,l),
(68,229,l),
(153,295,l),
(336,0,l),
(366,0,l),
(164,326,l),
(138,284,l),
(378,472,l),
(339,472,l),
(68,259,l),
(81,249,l),
(81,660,l),
(57,660,l),
(57,0,l)
);
}
);
width = 393;
},
{
layerId = "0BE882A4-FC89-4865-8E81-154FB3EE808B";
shapes = (
{
closed = 1;
nodes = (
(186,0,l),
(186,264,l),
(156,175,l),
(238,240,l),
(388,0,l),
(528,0,l),
(306,356,l),
(305,294,l),
(533,472,l),
(329,472,l),
(171,352,l),
(186,336,l),
(186,660,l),
(57,660,l),
(57,0,l)
);
}
);
width = 548;
},
{
layerId = "9C2CFEA6-85BB-4338-BB26-B1BEA40B5780";
shapes = (
{
closed = 1;
nodes = (
(197,0,l),
(197,261,l),
(164,169,l),
(246,234,l),
(394,0,l),
(544,0,l),
(320,359,l),
(322,295,l),
(549,472,l),
(328,472,l),
(182,361,l),
(197,344,l),
(197,660,l),
(57,660,l),
(57,0,l)
);
}
);
width = 564;
}
);
note = k;
unicode = 107;
},
{
glyphname = kgreenlandic;
kernLeft = b;
kernRight = k;
layers = (
{
layerId = m01;
shapes = (
{
closed = 1;
nodes = (
(137,0,l),
(137,280,l),
(117,207,l),
(201,273,l),
(372,0,l),
(445,0,l),
(235,338,l),
(219,288,l),
(455,472,l),
(349,472,l),
(124,296,l),
(137,284,l),
(137,472,l),
(71,472,l),
(71,0,l)
);
}
);
width = 470;
},
{
layerId = "4DE8B86A-429B-4593-9BC8-49866BB1A430";
shapes = (
{
closed = 1;
nodes = (
(95,0,l),
(95,290,l),
(82,229,l),
(167,295,l),
(351,0,l),
(380,0,l),
(178,326,l),
(152,284,l),
(395,472,l),
(355,472,l),
(83,259,l),
(95,249,l),
(95,472,l),
(71,472,l),
(71,0,l)
);
}
);
width = 409;
},
{
layerId = "0BE882A4-FC89-4865-8E81-154FB3EE808B";
shapes = (
{
closed = 1;
nodes = (
(200,0,l),
(200,264,l),
(170,175,l),
(252,240,l),
(403,0,l),
(542,0,l),
(320,356,l),
(319,294,l),
(546,472,l),
(341,472,l),
(186,352,l),
(200,336,l),
(200,472,l),
(71,472,l),
(71,0,l)
);
}
);
width = 561;
},
{
layerId = "9C2CFEA6-85BB-4338-BB26-B1BEA40B5780";
shapes = (
{
closed = 1;
nodes = (
(211,0,l),
(211,261,l),
(178,169,l),
(260,234,l),
(409,0,l),
(558,0,l),
(334,359,l),
(336,295,l),
(561,472,l),
(340,472,l),
(197,361,l),
(211,344,l),
(211,472,l),
(71,472,l),
(71,0,l)
);
}
);
width = 577;
}
);
note = kgreenlandic;
unicode = 312;
},
{
glyphname = l;
kernLeft = b;
kernRight = l;
lastChange = "2025-01-07 21:22:46 +0000";
layers = (
{
layerId = m01;
shapes = (
{
closed = 1;
nodes = (
(123,0,l),
(123,660,l),
(57,660,l),
(57,0,l)
);
}
);
width = 179;
},
{
layerId = "4DE8B86A-429B-4593-9BC8-49866BB1A430";
shapes = (
{
closed = 1;
nodes = (
(81,0,l),
(81,660,l),
(57,660,l),
(57,0,l)
);
}
);
width = 137;
},
{
layerId = "0BE882A4-FC89-4865-8E81-154FB3EE808B";
shapes = (
{
closed = 1;
nodes = (
(186,0,l),
(186,660,l),
(57,660,l),
(57,0,l)
);
}
);
width = 242;
},
{
layerId = "9C2CFEA6-85BB-4338-BB26-B1BEA40B5780";
shapes = (
{
closed = 1;
nodes = (
(197,0,l),
(197,660,l),
(57,660,l),
(57,0,l)
);
}
);
width = 263;
}
);
note = l;
unicode = 108;
},
{
glyphname = lslash;
kernLeft = lslash;
layers = (
{
layerId = m01;
shapes = (
{
closed = 1;
nodes = (
(194,0,l),
(194,331,l),
(306,382,l),
(279,438,l),
(194,399,l),
(194,660,l),
(128,660,l),
(128,369,l),
(31,324,l),
(58,270,l),
(128,302,l),
(128,0,l)
);
}
);
width = 335;
},
{
layerId = "4DE8B86A-429B-4593-9BC8-49866BB1A430";
shapes = (
{
closed = 1;
nodes = (
(167,0,l),
(167,326,l),
(290,382,l),
(274,414,l),
(167,366,l),
(167,660,l),
(143,660,l),
(143,356,l),
(39,308,l),
(56,278,l),
(143,318,l),
(143,0,l)
);
}
);
width = 335;
},
{
layerId = "0BE882A4-FC89-4865-8E81-154FB3EE808B";
shapes = (
{
closed = 1;
nodes = (
(235,0,l),
(235,339,l),
(330,382,l),
(287,473,l),
(235,449,l),
(235,660,l),
(105,660,l),
(105,389,l),
(18,348,l),
(61,258,l),
(105,278,l),
(105,0,l)
);
}
);
width = 335;
},
{
layerId = "9C2CFEA6-85BB-4338-BB26-B1BEA40B5780";
shapes = (
{
closed = 1;
nodes = (
(242,0,l),
(242,339,l),
(333,382,l),
(287,479,l),
(242,457,l),
(242,660,l),
(102,660,l),
(102,393,l),
(16,351,l),
(62,256,l),
(102,275,l),
(102,0,l)
);
}
);
width = 335;
}
);
note = lslash;
unicode = 322;
},
{
glyphname = m;
kernLeft = m;
kernRight = h;
layers = (
{
layerId = m01;
shapes = (
{
closed = 1;
nodes = (
(113,0,l),
(113,300,l),
(118,328,o),
(158,382,o),
(220,417,o),
(256,417,qs),
(319,417,o),
(383,348,o),
(383,276,qs),
(383,0,l),
(449,0,l),
(449,277,ls),
(449,378,o),
(357,477,o),
(265,477,qs),
(230,477,o),
(167,447,o),
(123,399,o),
(113,373,q),
(113,472,l),
(47,472,l),
(47,0,l)
);
},
{
closed = 1;
nodes = (
(429,0,l),
(449,0,l),
(449,300,l),
(454,328,o),
(494,382,o),
(555,417,o),
(591,417,qs),
(654,417,o),
(719,348,o),
(719,276,qs),
(719,0,l),
(785,0,l),
(785,277,ls),
(785,378,o),
(693,477,o),
(601,477,qs),
(545,477,o),
(467,418,o),
(429,337,o),
(429,305,qs)
);
}
);
width = 832;
},
{
layerId = "4DE8B86A-429B-4593-9BC8-49866BB1A430";
shapes = (
{
closed = 1;
nodes = (
(71,0,l),
(71,299,l),
(73,334,o),
(117,407,o),
(194,456,o),
(242,456,qs),
(318,456,o),
(395,372,o),
(395,283,qs),
(395,0,l),
(419,0,l),
(419,285,ls),
(419,390,o),
(327,477,o),
(242,477,qs),
(201,477,o),
(130,438,o),
(81,379,o),
(71,348,q),
(71,472,l),
(47,472,l),
(47,0,l)
);
},
{
closed = 1;
nodes = (
(407,0,l),
(419,0,l),
(419,299,ls),
(420,333,o),
(464,407,o),
(542,456,o),
(590,456,qs),
(666,456,o),
(742,373,o),
(742,283,qs),
(743,0,l),
(767,0,l),
(767,285,ls),
(767,390,o),
(675,477,o),
(590,477,qs),
(533,477,o),
(451,420,o),
(409,339,o),
(409,306,qs)
);
}
);
width = 814;
},
{
layerId = "0BE882A4-FC89-4865-8E81-154FB3EE808B";
shapes = (
{
closed = 1;
nodes = (
(176,0,l),
(176,301,l),
(185,319,o),
(218,345,o),
(257,357,o),
(275,357,qs),
(319,357,o),
(365,312,o),
(365,266,qs),
(365,0,l),
(494,0,l),
(494,266,ls),
(494,361,o),
(404,477,o),
(299,477,qs),
(271,477,o),
(222,460,o),
(186,430,o),
(176,411,q),
(176,472,l),
(47,472,l),
(47,0,l)
);
},
{
closed = 1;
nodes = (
(462,0,l),
(494,0,l),
(494,301,l),
(503,319,o),
(536,345,o),
(575,357,o),
(593,357,qs),
(637,357,o),
(683,312,o),
(683,266,qs),
(683,0,l),
(812,0,l),
(812,266,ls),
(812,361,o),
(722,477,o),
(617,477,qs),
(561,477,o),
(490,416,o),
(459,333,o),
(459,302,qs)
);
}
);
width = 859;
},
{
layerId = "9C2CFEA6-85BB-4338-BB26-B1BEA40B5780";
shapes = (
{
closed = 1;
nodes = (
(187,0,l),
(187,301,l),
(196,318,o),
(228,339,o),
(263,348,o),
(279,348,qs),
(320,348,o),
(362,306,o),
(362,264,qs),
(362,0,l),
(502,0,l),
(502,264,ls),
(502,358,o),
(412,477,o),
(305,477,qs),
(278,477,o),
(231,462,o),
(196,436,o),
(187,418,q),
(187,472,l),
(47,472,l),
(47,0,l)
);
},
{
closed = 1;
nodes = (
(468,0,l),
(502,0,l),
(502,301,l),
(511,318,o),
(543,339,o),
(578,348,o),
(593,348,qs),
(634,348,o),
(677,306,o),
(677,264,qs),
(678,0,l),
(817,0,l),
(817,264,ls),
(817,358,o),
(727,477,o),
(620,477,qs),
(564,477,o),
(494,415,o),
(463,333,o),
(464,302,qs)
);
}
);
width = 864;
}
);
note = m;
unicode = 109;
},
{
glyphname = n;
kernLeft = m;
kernRight = h;
layers = (
{
layerId = m01;
shapes = (
{
closed = 1;
nodes = (
(113,0,l),
(113,300,l),
(118,328,o),
(158,382,o),
(220,417,o),
(256,417,qs),
(319,417,o),
(383,348,o),
(383,276,qs),
(383,0,l),
(449,0,l),
(449,277,ls),
(449,378,o),
(357,477,o),
(265,477,qs),
(230,477,o),
(167,447,o),
(123,399,o),
(113,373,q),
(113,472,l),
(47,472,l),
(47,0,l)
);
}
);
width = 496;
},
{
layerId = "4DE8B86A-429B-4593-9BC8-49866BB1A430";
shapes = (
{
closed = 1;
nodes = (
(71,0,l),
(71,299,l),
(73,334,o),
(117,407,o),
(194,456,o),
(242,456,qs),
(318,456,o),
(395,372,o),
(395,283,qs),
(395,0,l),
(419,0,l),
(419,285,ls),
(419,390,o),
(327,477,o),
(242,477,qs),
(201,477,o),
(130,438,o),
(81,379,o),
(71,348,q),
(71,472,l),
(47,472,l),
(47,0,l)
);
}
);
width = 466;
},
{
layerId = "0BE882A4-FC89-4865-8E81-154FB3EE808B";
shapes = (
{
closed = 1;
nodes = (
(176,0,l),
(176,301,l),
(185,319,o),
(218,345,o),
(257,357,o),
(275,357,qs),
(319,357,o),
(365,312,o),
(365,266,qs),
(365,0,l),
(494,0,l),
(494,266,ls),
(494,361,o),
(404,477,o),
(299,477,qs),
(271,477,o),
(222,460,o),
(186,430,o),
(176,411,q),
(176,472,l),
(47,472,l),
(47,0,l)
);
}
);
width = 541;
},
{
layerId = "9C2CFEA6-85BB-4338-BB26-B1BEA40B5780";
shapes = (
{
closed = 1;
nodes = (
(187,0,l),
(187,301,l),
(196,318,o),
(228,339,o),
(263,348,o),
(279,348,qs),
(320,348,o),
(362,306,o),
(362,264,qs),
(362,0,l),
(502,0,l),
(502,264,ls),
(502,358,o),
(412,477,o),
(305,477,qs),
(278,477,o),
(231,462,o),
(196,436,o),
(187,418,q),
(187,472,l),
(47,472,l),
(47,0,l)
);
}
);
width = 549;
}
);
note = n;
unicode = 110;
},
{
glyphname = nhookleft;
kernLeft = m;
kernRight = h;
layers = (
{
layerId = m01;
shapes = (
{
closed = 1;
nodes = (
(113,0,l),
(47,0,l),
(47,-91,ls),
(47,-113,o),
(32,-132,o),
(19,-132,qs),
(1,-132,o),
(-35,-117,o),
(-53,-102,q),
(-53,-159,l),
(-49,-163,ls),
(-36,-175,o),
(3,-191,o),
(28,-191,qs),
(72,-191,o),
(113,-129,o),
(113,-80,qs)
);
},
{
closed = 1;
nodes = (
(113,0,l),
(113,300,l),
(118,328,o),
(158,382,o),
(220,417,o),
(256,417,qs),
(319,417,o),
(383,348,o),
(383,276,qs),
(383,0,l),
(449,0,l),
(449,277,ls),
(449,378,o),
(357,477,o),
(265,477,qs),
(230,477,o),
(167,447,o),
(123,399,o),
(113,373,q),
(113,472,l),
(47,472,l),
(47,0,l)
);
}
);
width = 487;
},
{
layerId = "4DE8B86A-429B-4593-9BC8-49866BB1A430";
shapes = (
{
closed = 1;
nodes = (
(71,0,l),
(47,0,l),
(47,-130,ls),
(47,-152,o),
(30,-173,o),
(17,-173,qs),
(-2,-173,o),
(-34,-158,o),
(-53,-141,q),
(-53,-159,l),
(-50,-163,ls),
(-42,-173,o),
(-4,-191,o),
(17,-191,qs),
(50,-191,o),
(71,-141,o),
(71,-111,qs)
);
},
{
closed = 1;
nodes = (
(71,0,l),
(71,299,l),
(73,334,o),
(117,407,o),
(194,456,o),
(242,456,qs),
(318,456,o),
(395,372,o),
(395,283,qs),
(395,0,l),
(419,0,l),
(419,285,ls),
(419,390,o),
(327,477,o),
(242,477,qs),
(201,477,o),
(130,438,o),
(81,379,o),
(71,348,q),
(71,472,l),
(47,472,l),
(47,0,l)
);
}
);
width = 457;
},
{
layerId = "0BE882A4-FC89-4865-8E81-154FB3EE808B";
shapes = (
{
closed = 1;
nodes = (
(176,0,l),
(47,0,l),
(47,-33,ls),
(47,-55,o),
(34,-72,o),
(22,-72,qs),
(5,-72,o),
(-35,-57,o),
(-53,-42,q),
(-53,-159,l),
(-46,-164,ls),
(-25,-177,o),
(14,-191,o),
(45,-191,qs),
(107,-191,o),
(176,-117,o),
(176,-33,qs)
);
},
{
closed = 1;
nodes = (
(176,0,l),
(176,301,l),
(185,319,o),
(218,345,o),
(257,357,o),
(275,357,qs),
(319,357,o),
(365,312,o),
(365,266,qs),
(365,0,l),
(494,0,l),
(494,266,ls),
(494,361,o),
(404,477,o),
(299,477,qs),
(271,477,o),
(222,460,o),
(186,430,o),
(176,411,q),
(176,472,l),
(47,472,l),
(47,0,l)
);
}
);
width = 532;
},
{
layerId = "9C2CFEA6-85BB-4338-BB26-B1BEA40B5780";
shapes = (
{
closed = 1;
nodes = (
(187,0,l),
(47,0,l),
(47,-24,ls),
(47,-46,o),
(35,-61,o),
(23,-61,qs),
(6,-61,o),
(-35,-46,o),
(-53,-32,q),
(-53,-159,l),
(-46,-164,ls),
(-23,-177,o),
(16,-191,o),
(48,-191,qs),
(113,-191,o),
(187,-115,o),
(187,-25,qs)
);
},
{
closed = 1;
nodes = (
(187,0,l),
(187,301,l),
(196,318,o),
(228,339,o),
(263,348,o),
(279,348,qs),
(320,348,o),
(362,306,o),
(362,264,qs),
(362,0,l),
(502,0,l),
(502,264,ls),
(502,358,o),
(412,477,o),
(305,477,qs),
(278,477,o),
(231,462,o),
(196,436,o),
(187,418,q),
(187,472,l),
(47,472,l),
(47,0,l)
);
}
);
width = 540;
}
);
note = uni0272;
unicode = 626;
},
{
glyphname = eng;
kernLeft = m;
kernRight = h;
layers = (
{
layerId = m01;
shapes = (
{
closed = 1;
nodes = (
(449,0,l),
(383,0,l),
(383,-91,ls),
(383,-113,o),
(367,-132,o),
(355,-132,qs),
(337,-132,o),
(301,-117,o),
(283,-102,q),
(283,-159,l),
(287,-163,ls),
(300,-175,o),
(339,-191,o),
(364,-191,qs),
(407,-191,o),
(449,-129,o),
(449,-80,qs)
);
},
{
closed = 1;
nodes = (
(113,0,l),
(113,300,l),
(118,328,o),
(158,382,o),
(220,417,o),
(256,417,qs),
(319,417,o),
(383,348,o),
(383,276,qs),
(383,0,l),
(449,0,l),
(449,277,ls),
(449,378,o),
(357,477,o),
(265,477,qs),
(230,477,o),
(167,447,o),
(123,399,o),
(113,373,q),
(113,472,l),
(47,472,l),
(47,0,l)
);
}
);
width = 487;
},
{
layerId = "4DE8B86A-429B-4593-9BC8-49866BB1A430";
shapes = (
{
closed = 1;
nodes = (
(419,0,l),
(395,0,l),
(395,-130,ls),
(395,-152,o),
(378,-173,o),
(365,-173,qs),
(346,-173,o),
(314,-158,o),
(295,-141,q),
(295,-159,l),
(297,-163,l),
(305,-173,o),
(344,-191,o),
(365,-191,qs),
(397,-191,o),
(419,-140,o),
(419,-111,qs)
);
},
{
closed = 1;
nodes = (
(71,0,l),
(71,299,l),
(73,334,o),
(117,407,o),
(194,456,o),
(242,456,qs),
(318,456,o),
(395,372,o),
(395,283,qs),
(395,0,l),
(419,0,l),
(419,285,ls),
(419,390,o),
(327,477,o),
(242,477,qs),
(201,477,o),
(130,438,o),
(81,379,o),
(71,348,q),
(71,472,l),
(47,472,l),
(47,0,l)
);
}
);
width = 457;
},
{
layerId = "0BE882A4-FC89-4865-8E81-154FB3EE808B";
shapes = (
{
closed = 1;
nodes = (
(494,0,l),
(365,0,l),
(365,-33,ls),
(365,-55,o),
(352,-72,o),
(339,-72,qs),
(323,-72,o),
(283,-57,o),
(265,-42,q),
(265,-159,l),
(272,-164,ls),
(293,-177,o),
(332,-191,o),
(363,-191,qs),
(425,-191,o),
(494,-117,o),
(494,-33,qs)
);
},
{
closed = 1;
nodes = (
(176,0,l),
(176,301,l),
(185,319,o),
(218,345,o),
(257,357,o),
(275,357,qs),
(319,357,o),
(365,312,o),
(365,266,qs),
(365,0,l),
(494,0,l),
(494,266,ls),
(494,361,o),
(404,477,o),
(299,477,qs),
(271,477,o),
(222,460,o),
(186,430,o),
(176,411,q),
(176,472,l),
(47,472,l),
(47,0,l)
);
}
);
width = 532;
},
{
layerId = "9C2CFEA6-85BB-4338-BB26-B1BEA40B5780";
shapes = (
{
closed = 1;
nodes = (
(502,0,l),
(362,0,l),
(362,-24,ls),
(362,-46,o),
(349,-61,o),
(337,-61,qs),
(321,-61,o),
(280,-46,o),
(262,-32,q),
(262,-159,l),
(269,-164,ls),
(292,-177,o),
(331,-191,o),
(363,-191,qs),
(428,-191,o),
(502,-115,o),
(502,-25,qs)
);
},
{
closed = 1;
nodes = (
(187,0,l),
(187,301,l),
(196,318,o),
(228,339,o),
(263,348,o),
(279,348,qs),
(320,348,o),
(362,306,o),
(362,264,qs),
(362,0,l),
(502,0,l),
(502,264,ls),
(502,358,o),
(412,477,o),
(305,477,qs),
(278,477,o),
(231,462,o),
(196,436,o),
(187,418,q),
(187,472,l),
(47,472,l),
(47,0,l)
);
}
);
width = 540;
}
);
note = eng;
unicode = 331;
},
{
glyphname = o;
kernLeft = c;
kernRight = o;
layers = (
{
layerId = m01;
shapes = (
{
closed = 1;
nodes = (
(343,-6,o),
(455,57,o),
(520,167,o),
(520,236,qs),
(520,305,o),
(454,415,o),
(343,477,o),
(276,477,qs),
(210,477,o),
(99,415,o),
(33,305,o),
(33,236,qs),
(33,167,o),
(98,56,o),
(210,-6,o),
(276,-6,qs)
);
},
{
closed = 1;
nodes = (
(228,55,o),
(147,100,o),
(99,183,o),
(99,236,qs),
(99,289,o),
(147,371,o),
(229,417,o),
(276,417,qs),
(324,417,o),
(406,371,o),
(454,289,o),
(454,236,qs),
(454,183,o),
(406,100,o),
(324,55,o),
(276,55,qs)
);
}
);
width = 553;
},
{
layerId = "4DE8B86A-429B-4593-9BC8-49866BB1A430";
shapes = (
{
closed = 1;
nodes = (
(341.371,-6,o),
(452,56,o),
(517,167,o),
(517,236,qs),
(517,305,o),
(451.541,415,o),
(341.451,477,o),
(275,477,qs),
(210,477,o),
(98,415,o),
(33,305,o),
(33,235.5,qs),
(33,166,o),
(98,55.642,o),
(210,-6,o),
(275.192,-6,qs)
);
},
{
closed = 1;
nodes = (
(215.837,14,o),
(116,71,o),
(57,171.566,o),
(57,235.783,qs),
(57,300,o),
(116.077,400.578,o),
(217,457,o),
(275.379,457,qs),
(335,457,o),
(434,401,o),
(493,300,o),
(493,235.783,qs),
(493,171.566,o),
(434,71,o),
(335,14,o),
(275,14,qs)
);
}
);
width = 550;
},
{
layerId = "0BE882A4-FC89-4865-8E81-154FB3EE808B";
shapes = (
{
closed = 1;
nodes = (
(346,-6,o),
(458,57,o),
(523,167,o),
(523,236,qs),
(523,305,o),
(458,415,o),
(346,477,o),
(278,477,qs),
(211,477,o),
(99,415,o),
(33,305,o),
(33,236,qs),
(33,167,o),
(98,57,o),
(210,-6,o),
(278,-6,qs)
);
},
{
closed = 1;
nodes = (
(247,115,o),
(194,144,o),
(162,199,o),
(162,236,qs),
(162,273,o),
(194,327,o),
(247,356,o),
(278,356,qs),
(310,356,o),
(363,327,o),
(394,273,o),
(394,236,qs),
(394,199,o),
(363,144,o),
(310,115,o),
(278,115,qs)
);
}
);
width = 557;
},
{
layerId = "9C2CFEA6-85BB-4338-BB26-B1BEA40B5780";
shapes = (
{
closed = 1;
nodes = (
(345.749,-6,o),
(459,57,o),
(524,167,o),
(524,236,qs),
(524,305,o),
(459,415,o),
(346.18,477,o),
(278.082,477,qs),
(211,477,o),
(99.373,415,o),
(33,305,o),
(33,236,qs),
(33,167.383,o),
(98,57,o),
(210,-6,o),
(278,-6,qs)
);
},
{
closed = 1;
nodes = (
(249,125,o),
(201.279,152.07,o),
(173,202,o),
(173,236,qs),
(173,270,o),
(202,320,o),
(250,346,o),
(278.147,346,qs),
(306.893,346,o),
(356,320,o),
(385,270,o),
(385,236,qs),
(385,202,o),
(356.115,152.07,o),
(306.77,125,o),
(277.885,125,qs)
);
}
);
width = 557;
}
);
note = o;
unicode = 111;
},
{
glyphname = oslash;
kernLeft = c;
kernRight = o;
layers = (
{
layerId = m01;
shapes = (
{
closed = 1;
nodes = (
(428,588,l),
(372,604,l),
(139,-103,l),
(195,-118,l)
);
},
{
closed = 1;
nodes = (
(344,0,o),
(456,66,o),
(521,178,o),
(521,244,qs),
(521,311,o),
(456,423,o),
(344,488,o),
(278,488,qs),
(213,488,o),
(101,423,o),
(35,310,o),
(35,244,qs),
(35,178,o),
(101,66,o),
(212,0,o),
(278,0,qs)
);
},
{
closed = 1;
nodes = (
(231,60,o),
(149,109,o),
(101,194,o),
(101,244,qs),
(101,295,o),
(150,379,o),
(231,428,o),
(278,428,qs),
(326,428,o),
(407,379,o),
(455,295,o),
(455,244,qs),
(455,194,o),
(407,110,o),
(326,60,o),
(278,60,qs)
);
}
);
width = 557;
},
{
layerId = "4DE8B86A-429B-4593-9BC8-49866BB1A430";
shapes = (
{
closed = 1;
nodes = (
(414,589,l),
(388,594,l),
(153,-111,l),
(179,-117,l)
);
},
{
closed = 1;
nodes = (
(343.918,5,o),
(455,71,o),
(521,183,o),
(521,249,qs),
(521,316,o),
(455,428,o),
(343.629,493,o),
(278,493,qs),
(213.367,493,o),
(102,427,o),
(36,315,o),
(36,249,qs),
(36,183,o),
(102,71,o),
(213,5,o),
(278.459,5,qs)
);
},
{
closed = 1;
nodes = (
(219,25,o),
(118.708,84.652,o),
(60,188.13,o),
(60,249,qs),
(60,310,o),
(120.308,412.947,o),
(220,473,o),
(277.911,473,qs),
(337.054,473,o),
(436.857,412.947,o),
(496,310,o),
(496,249,qs),
(496,188.13,o),
(436.881,85.87,o),
(337.119,25,o),
(278,25,qs)
);
}
);
width = 557;
},
{
layerId = "0BE882A4-FC89-4865-8E81-154FB3EE808B";
shapes = (
{
closed = 1;
nodes = (
(449,587,l),
(347,620,l),
(118,-90,l),
(220,-119,l)
);
},
{
closed = 1;
nodes = (
(344.623,-8,o),
(458,59,o),
(523,171,o),
(523,236.731,qs),
(523,303.457,o),
(457,415,o),
(345,481,o),
(278.185,481,qs),
(212.383,481,o),
(99,415,o),
(33,303,o),
(33,236.787,qs),
(33,170.574,o),
(99.373,58.213,o),
(211,-8,o),
(277.811,-8,qs)
);
},
{
closed = 1;
nodes = (
(247.277,113,o),
(194,146,o),
(162,203,o),
(162,236.547,qs),
(162,270.765,o),
(194.415,327.124,o),
(248,360,o),
(278.179,360,qs),
(309,360,o),
(362.372,327.211,o),
(394,271,o),
(394,236.541,qs),
(394,202.757,o),
(362,146,o),
(309,113,o),
(277.814,113,qs)
);
}
);
width = 557;
},
{
layerId = "9C2CFEA6-85BB-4338-BB26-B1BEA40B5780";
shapes = (
{
closed = 1;
nodes = (
(453,587,l),
(344,623,l),
(114,-88,l),
(223,-119,l)
);
},
{
closed = 1;
nodes = (
(345,-8,o),
(457.633,58,o),
(523,170,o),
(523,235.731,qs),
(523,302.457,o),
(457,414,o),
(345,480,o),
(278.185,480,qs),
(212.383,480,o),
(99,414,o),
(33,302,o),
(33,236,qs),
(33,170,o),
(99,58,o),
(211.37,-8,o),
(278.185,-8,qs)
);
},
{
closed = 1;
nodes = (
(250.181,122,o),
(202,152,o),
(173,204,o),
(173,236,qs),
(173,267.321,o),
(202.4,318.908,o),
(251,349,o),
(278.211,349,qs),
(306,349,o),
(354.977,318.908,o),
(384,267.321,o),
(384,236,qs),
(384,204.657,o),
(355,152,o),
(306,122,o),
(277.797,122,qs)
);
}
);
width = 557;
}
);
note = oslash;
unicode = 248;
},
{
glyphname = oe;
kernLeft = c;
kernRight = ae;
layers = (
{
layerId = m01;
shapes = (
{
closed = 1;
nodes = (
(765,-9,o),
(869,52,o),
(900,101,q),
(845,145,l),
(823,100,o),
(747,51,o),
(697,51,qs),
(643,51,o),
(566,100,o),
(526,183,o),
(524,233,q),
(896,233,l),
(905,301,o),
(887,387,o),
(861,419,qs),
(832,452,o),
(748,488,o),
(696,488,qs),
(623,488,o),
(518,422,o),
(488,367,q),
(457,422,o),
(344,488,o),
(278,488,qs),
(213,488,o),
(101,423,o),
(35,310,o),
(35,244,qs),
(35,178,o),
(101,66,o),
(212,0,o),
(278,0,qs),
(343,0,o),
(453,63,o),
(486,117,q),
(514,59,o),
(622,-9,o),
(697,-9,qs)
);
},
{
closed = 1;
nodes = (
(231,60,o),
(149,109,o),
(101,194,o),
(101,244,qs),
(101,295,o),
(150,379,o),
(231,428,o),
(278,428,qs),
(326,428,o),
(407,379,o),
(455,295,o),
(455,244,qs),
(455,194,o),
(407,110,o),
(326,60,o),
(278,60,qs)
);
},
{
closed = 1;
nodes = (
(530,290,l),
(543,352,o),
(629,428,o),
(696,428,qs),
(740,428,o),
(807,393,o),
(841,331,o),
(836,290,q)
);
}
);
width = 944;
},
{
layerId = "4DE8B86A-429B-4593-9BC8-49866BB1A430";
shapes = (
{
closed = 1;
nodes = (
(764,-8,o),
(869,53,o),
(900,101,q),
(874,121,l),
(844,69,o),
(754,14,o),
(698,14,qs),
(630,14,o),
(535,81,o),
(486,188,o),
(484,251,q),
(897,251,l),
(905,316,o),
(889,395,o),
(865,423,qs),
(836,457,o),
(750,491,o),
(697,491,qs),
(624,491,o),
(519,425,o),
(489,368,q),
(459,425,o),
(345,493,o),
(278,493,qs),
(213,493,o),
(102,427,o),
(36,315,o),
(36,249,qs),
(36,183,o),
(102,71,o),
(213,5,o),
(278,5,qs),
(343,5,o),
(452,68,o),
(485,123,q),
(512,63,o),
(621,-8,o),
(698,-8,qs)
);
},
{
closed = 1;
nodes = (
(219,25,o),
(119,85,o),
(60,188,o),
(60,249,qs),
(60,310,o),
(120,413,o),
(220,473,o),
(278,473,qs),
(337,473,o),
(437,413,o),
(496,310,o),
(496,249,qs),
(496,188,o),
(437,86,o),
(337,25,o),
(278,25,qs)
);
},
{
closed = 1;
nodes = (
(486,278,l),
(502,359,o),
(611,461,o),
(697,461,qs),
(755,461,o),
(840,418,o),
(882,335,o),
(875,278,q)
);
}
);
width = 943;
},
{
layerId = "0BE882A4-FC89-4865-8E81-154FB3EE808B";
shapes = (
{
closed = 1;
nodes = (
(767,-10,o),
(869,50,o),
(900,101,q),
(802,180,l),
(792,147,o),
(736,106,o),
(696,106,qs),
(663,106,o),
(613,128,o),
(585,173,o),
(585,207,q),
(895,207,l),
(906,280,o),
(884,376,o),
(855,412,qs),
(827,446,o),
(746,484,o),
(695,484,qs),
(622,484,o),
(517,419,o),
(488,365,q),
(454,418,o),
(343,481,o),
(278,481,qs),
(212,481,o),
(99,415,o),
(33,303,o),
(33,237,qs),
(33,171,o),
(99,58,o),
(211,-8,o),
(278,-8,qs),
(343,-8,o),
(454,56,o),
(487,108,q),
(517,54,o),
(622,-10,o),
(696,-10,qs)
);
},
{
closed = 1;
nodes = (
(247,113,o),
(194,146,o),
(162,203,o),
(162,237,qs),
(162,271,o),
(194,327,o),
(248,360,o),
(278,360,qs),
(309,360,o),
(362,327,o),
(394,271,o),
(394,237,qs),
(394,203,o),
(362,146,o),
(309,113,o),
(278,113,qs)
);
},
{
closed = 1;
nodes = (
(596,308,l),
(605,340,o),
(657,379,o),
(695,379,qs),
(718,379,o),
(758,357,o),
(779,324,o),
(778,308,q)
);
}
);
width = 946;
},
{
layerId = "9C2CFEA6-85BB-4338-BB26-B1BEA40B5780";
shapes = (
{
closed = 1;
nodes = (
(767,-10,o),
(869,50,o),
(900,101,q),
(794,186,l),
(787,155,o),
(735,115,o),
(696,115,qs),
(666,115,o),
(620,133,o),
(595,172,o),
(595,202,q),
(895,202,l),
(906,277,o),
(884,375,o),
(854,411,qs),
(826,445,o),
(746,483,o),
(695,483,qs),
(622,483,o),
(517,418,o),
(488,365,q),
(454,417,o),
(343,480,o),
(278,480,qs),
(212,480,o),
(99,414,o),
(33,302,o),
(33,236,qs),
(33,170,o),
(99,58,o),
(211,-8,o),
(278,-8,qs),
(343,-8,o),
(454,55,o),
(487,108,q),
(518,53,o),
(623,-10,o),
(696,-10,qs)
);
},
{
closed = 1;
nodes = (
(250,122,o),
(202,152,o),
(173,204,o),
(173,236,qs),
(173,267,o),
(202,319,o),
(251,349,o),
(278,349,qs),
(306,349,o),
(355,319,o),
(384,267,o),
(384,236,qs),
(384,205,o),
(355,152,o),
(306,122,o),
(278,122,qs)
);
},
{
closed = 1;
nodes = (
(607,311,l),
(615,338,o),
(661,371,o),
(695,371,qs),
(715,371,o),
(750,351,o),
(770,322,o),
(769,311,q)
);
}
);
width = 946;
}
);
note = oe;
unicode = 339;
},
{
glyphname = p;
kernLeft = m;
kernRight = b;
layers = (
{
layerId = m01;
shapes = (
{
closed = 1;
nodes = (
(123,-189,l),
(123,67,l),
(149,29,o),
(225,-6,o),
(275,-6,qs),
(341,-6,o),
(448,58,o),
(510,168,o),
(510,236,qs),
(510,303,o),
(446,413,o),
(335,477,o),
(270,477,qs),
(172,477,o),
(123,405,q),
(123,472,l),
(57,472,l),
(57,-189,l)
);
},
{
closed = 1;
nodes = (
(219,55,o),
(139,109,o),
(123,148,q),
(123,325,l),
(137,363,o),
(213,417,o),
(270,417,qs),
(317,417,o),
(397,370,o),
(444,287,o),
(444,236,qs),
(444,184,o),
(399,101,o),
(322,55,o),
(275,55,qs)
);
}
);
width = 543;
},
{
layerId = "4DE8B86A-429B-4593-9BC8-49866BB1A430";
shapes = (
{
closed = 1;
nodes = (
(81,-189,l),
(81,95,l),
(112,42,o),
(205,-6,o),
(265,-6,qs),
(327,-6,o),
(430,57,o),
(491,167,o),
(491,236,qs),
(491,303,o),
(428,414,o),
(321,477,o),
(258,477,qs),
(142,477,o),
(80,378,q),
(81,472,l),
(57,472,l),
(57,-189,l)
);
},
{
closed = 1;
nodes = (
(199,15,o),
(99,84,o),
(80,134,q),
(81,338,l),
(98,386,o),
(191,456,o),
(258,456,qs),
(314,456,o),
(410,399,o),
(468,298,o),
(468,236,qs),
(468,172,o),
(413,71,o),
(320,15,o),
(265,15,qs)
);
}
);
width = 524;
},
{
layerId = "0BE882A4-FC89-4865-8E81-154FB3EE808B";
shapes = (
{
closed = 1;
nodes = (
(187,-189,l),
(187,25,l),
(206,9,o),
(256,-6,o),
(291,-6,qs),
(363,-6,o),
(475,58,o),
(538,169,o),
(538,236,qs),
(538,303,o),
(473,413,o),
(358,477,o),
(287,477,qs),
(217,477,o),
(187,444,q),
(187,472,l),
(57,472,l),
(57,-189,l)
);
},
{
closed = 1;
nodes = (
(250,114,o),
(198,146,o),
(187,170,q),
(187,305,l),
(196,328,o),
(245,357,o),
(287,357,qs),
(321,357,o),
(377,327,o),
(409,271,o),
(409,236,qs),
(409,202,o),
(379,146,o),
(325,114,o),
(291,114,qs)
);
}
);
width = 571;
},
{
layerId = "9C2CFEA6-85BB-4338-BB26-B1BEA40B5780";
shapes = (
{
closed = 1;
nodes = (
(197,-189,l),
(197,18,l),
(215,6,o),
(261,-6,o),
(294,-6,qs),
(366,-6,o),
(480,59,o),
(543,169,o),
(543,236,qs),
(543,303,o),
(477,413,o),
(361,477,o),
(290,477,qs),
(225,477,o),
(197,451,q),
(197,472,l),
(57,472,l),
(57,-189,l)
);
},
{
closed = 1;
nodes = (
(256,124,o),
(207,152,o),
(197,174,q),
(197,302,l),
(206,323,o),
(251,348,o),
(290,348,qs),
(322,348,o),
(374,320,o),
(404,269,o),
(404,236,qs),
(404,205,o),
(376,154,o),
(326,124,o),
(294,124,qs)
);
}
);
width = 576;
}
);
note = p;
unicode = 112;
},
{
glyphname = thorn;
kernLeft = b;
kernRight = b;
layers = (
{
layerId = m01;
shapes = (
{
closed = 1;
nodes = (
(113,-189,l),
(113,67,l),
(140,29,o),
(216,-6,o),
(266,-6,qs),
(332,-6,o),
(439,58,o),
(501,168,o),
(501,236,qs),
(501,303,o),
(436,413,o),
(326,477,o),
(260,477,qs),
(163,477,o),
(113,405,q),
(113,660,l),
(47,660,l),
(47,-189,l)
);
},
{
closed = 1;
nodes = (
(210,55,o),
(129,109,o),
(113,148,q),
(113,325,l),
(128,363,o),
(203,417,o),
(260,417,qs),
(307,417,o),
(387,370,o),
(435,287,o),
(435,236,qs),
(435,184,o),
(390,101,o),
(312,55,o),
(266,55,qs)
);
}
);
width = 534;
},
{
layerId = "4DE8B86A-429B-4593-9BC8-49866BB1A430";
shapes = (
{
closed = 1;
nodes = (
(71,-189,l),
(71,95,l),
(103,42,o),
(196,-6,o),
(256,-6,qs),
(317,-6,o),
(421,57,o),
(482,167,o),
(482,236,qs),
(482,303,o),
(418,414,o),
(311,477,o),
(249,477,qs),
(133,477,o),
(71,378,q),
(71,660,l),
(47,660,l),
(47,-189,l)
);
},
{
closed = 1;
nodes = (
(189,15,o),
(90,84,o),
(71,134,q),
(71,338,l),
(88,386,o),
(182,456,o),
(249,456,qs),
(304,456,o),
(401,399,o),
(458,298,o),
(458,236,qs),
(458,172,o),
(403,71,o),
(310,15,o),
(256,15,qs)
);
}
);
width = 515;
},
{
layerId = "0BE882A4-FC89-4865-8E81-154FB3EE808B";
shapes = (
{
closed = 1;
nodes = (
(177,-189,l),
(177,25,l),
(196,9,o),
(247,-6,o),
(282,-6,qs),
(353,-6,o),
(466,58,o),
(529,169,o),
(529,236,qs),
(529,303,o),
(463,413,o),
(348,477,o),
(277,477,qs),
(207,477,o),
(177,444,q),
(177,660,l),
(47,660,l),
(47,-189,l)
);
},
{
closed = 1;
nodes = (
(241,114,o),
(188,146,o),
(177,170,q),
(177,305,l),
(187,328,o),
(236,357,o),
(277,357,qs),
(312,357,o),
(368,327,o),
(400,271,o),
(400,236,qs),
(400,202,o),
(370,146,o),
(316,114,o),
(282,114,qs)
);
}
);
width = 562;
},
{
layerId = "9C2CFEA6-85BB-4338-BB26-B1BEA40B5780";
shapes = (
{
closed = 1;
nodes = (
(187,-189,l),
(187,18,l),
(206,6,o),
(252,-6,o),
(285,-6,qs),
(357,-6,o),
(470,59,o),
(534,169,o),
(534,236,qs),
(534,303,o),
(468,413,o),
(352,477,o),
(280,477,qs),
(216,477,o),
(188,451,q),
(187,660,l),
(47,660,l),
(47,-189,l)
);
},
{
closed = 1;
nodes = (
(247,124,o),
(198,152,o),
(188,174,q),
(187,302,l),
(196,323,o),
(241,348,o),
(280,348,qs),
(312,348,o),
(364,320,o),
(394,269,o),
(394,236,qs),
(394,205,o),
(366,154,o),
(317,124,o),
(285,124,qs)
);
}
);
width = 567;
}
);
note = thorn;
unicode = 254;
},
{
glyphname = q;
kernLeft = d;
kernRight = q;
layers = (
{
layerId = m01;
shapes = (
{
closed = 1;
nodes = (
(487,472,l),
(421,472,l),
(421,405,l),
(371,477,o),
(273,477,qs),
(208,477,o),
(97,413,o),
(33,303,o),
(33,236,qs),
(33,168,o),
(95,58,o),
(202,-6,o),
(268,-6,qs),
(318,-6,o),
(394,29,o),
(421,67,q),
(421,-189,l),
(487,-189,l)
);
},
{
closed = 1;
nodes = (
(221,55,o),
(144,101,o),
(99,184,o),
(99,236,qs),
(99,287,o),
(146,370,o),
(227,417,o),
(273,417,qs),
(330,417,o),
(406,363,o),
(421,325,q),
(421,148,l),
(404,109,o),
(324,55,o),
(268,55,qs)
);
}
);
width = 543;
},
{
layerId = "4DE8B86A-429B-4593-9BC8-49866BB1A430";
shapes = (
{
closed = 1;
nodes = (
(468,472,l),
(445,472,l),
(445,379,l),
(382,477,o),
(266,477,qs),
(204,477,o),
(97,414,o),
(33,303,o),
(33,236,qs),
(33,167,o),
(94,57,o),
(198,-6,o),
(259,-6,qs),
(319,-6,o),
(412,42,o),
(444,95,q),
(445,-189,l),
(468,-189,l)
);
},
{
closed = 1;
nodes = (
(204,15,o),
(112,71,o),
(57,172,o),
(57,236,qs),
(57,298,o),
(114,399,o),
(211,456,o),
(266,456,qs),
(333,456,o),
(426,386,o),
(444,339,q),
(445,134,l),
(425,84,o),
(326,15,o),
(259,15,qs)
);
}
);
width = 524;
},
{
layerId = "0BE882A4-FC89-4865-8E81-154FB3EE808B";
shapes = (
{
closed = 1;
nodes = (
(515,472,l),
(385,472,l),
(385,445,l),
(355,477,o),
(285,477,qs),
(214,477,o),
(99,413,o),
(33,303,o),
(33,236,qs),
(33,169,o),
(96,58,o),
(209,-6,o),
(280,-6,qs),
(315,-6,o),
(366,9,o),
(385,25,q),
(385,-189,l),
(515,-189,l)
);
},
{
closed = 1;
nodes = (
(246,114,o),
(192,146,o),
(162,202,o),
(162,236,qs),
(162,271,o),
(195,327,o),
(251,357,o),
(285,357,qs),
(326,357,o),
(375,328,o),
(385,306,q),
(385,170,l),
(374,146,o),
(321,114,o),
(280,114,qs)
);
}
);
width = 571;
},
{
layerId = "9C2CFEA6-85BB-4338-BB26-B1BEA40B5780";
shapes = (
{
closed = 1;
nodes = (
(520,472,l),
(380,472,l),
(380,451,l),
(351,477,o),
(287,477,qs),
(215,477,o),
(99,413,o),
(33,303,o),
(33,236,qs),
(33,169,o),
(96,59,o),
(210,-6,o),
(282,-6,qs),
(315,-6,o),
(361,6,o),
(379,18,q),
(380,-189,l),
(520,-189,l)
);
},
{
closed = 1;
nodes = (
(250,124,o),
(200,154,o),
(173,205,o),
(173,236,qs),
(173,269,o),
(202,320,o),
(254,348,o),
(287,348,qs),
(326,348,o),
(370,323,o),
(379,303,q),
(380,173,l),
(369,152,o),
(320,124,o),
(282,124,qs)
);
}
);
width = 576;
}
);
note = q;
unicode = 113;
},
{
glyphname = r;
kernLeft = m;
kernRight = r;
layers = (
{
layerId = m01;
shapes = (
{
closed = 1;
nodes = (
(137,0,l),
(137,282,ls),
(137,346,o),
(198,417,o),
(240,417,qs),
(270,417,o),
(311,383,o),
(319,345,q),
(361,387,l),
(353,424,o),
(300,477,o),
(247,477,qs),
(219,477,o),
(165,445,o),
(129,379,o),
(127,333,q),
(137,333,l),
(137,472,l),
(71,472,l),
(71,0,l)
);
}
);
width = 371;
},
{
layerId = "4DE8B86A-429B-4593-9BC8-49866BB1A430";
shapes = (
{
closed = 1;
nodes = (
(111,0,l),
(111,285,ls),
(110,362,o),
(179,454,o),
(230,454,qs),
(264,454,o),
(308,417,o),
(316,376,q),
(336,387,l),
(331,425,o),
(288,477,o),
(230,477,qs),
(199,477,o),
(144,443,o),
(106,366,o),
(103,306,q),
(111,306,l),
(111,472,l),
(87,472,l),
(87,0,l)
);
}
);
width = 349;
},
{
layerId = "0BE882A4-FC89-4865-8E81-154FB3EE808B";
shapes = (
{
closed = 1;
nodes = (
(177,0,l),
(177,278,ls),
(176,321,o),
(226,361,o),
(256,361,qs),
(279,361,o),
(315,332,o),
(323,299,q),
(399,387,l),
(384,430,o),
(321,477,o),
(273,477,qs),
(246,477,o),
(197,454,o),
(165,407,o),
(164,374,q),
(177,374,l),
(177,472,l),
(47,472,l),
(47,0,l)
);
}
);
width = 404;
},
{
layerId = "9C2CFEA6-85BB-4338-BB26-B1BEA40B5780";
shapes = (
{
closed = 1;
nodes = (
(183,0,l),
(183,277,ls),
(183,317,o),
(230,352,o),
(259,352,qs),
(281,352,o),
(316,324,o),
(324,291,q),
(405,387,l),
(390,431,o),
(325,477,o),
(277,477,qs),
(250,477,o),
(199,458,o),
(166,415,o),
(166,381,q),
(183,381,l),
(183,472,l),
(44,472,l),
(44,0,l)
);
}
);
width = 410;
}
);
note = r;
unicode = 114;
},
{
glyphname = s;
kernLeft = s;
kernRight = s;
layers = (
{
layerId = m01;
shapes = (
{
closed = 1;
nodes = (
(265,-6,o),
(361,73,o),
(361,141,qs),
(361,186,o),
(318,242,o),
(258,271,o),
(210,287,qs),
(177,298,o),
(139,314,o),
(114,339,o),
(114,357,qs),
(114,385,o),
(153,418,o),
(188,418,qs),
(214,418,o),
(261,393,o),
(281,368,q),
(328,410,l),
(299,445,o),
(230,477,o),
(185,477,qs),
(144,477,o),
(82,447,o),
(48,392,o),
(48,357,qs),
(48,324,o),
(83,280,o),
(134,256,o),
(177,242,qs),
(216,229,o),
(263,207,o),
(295,169,o),
(295,141,qs),
(295,102,o),
(240,55,o),
(196,55,qs),
(156,55,o),
(90,88,o),
(66,119,q),
(19,75,l),
(96,-6,o),
(196,-6,qs)
);
}
);
width = 385;
},
{
layerId = "4DE8B86A-429B-4593-9BC8-49866BB1A430";
shapes = (
{
closed = 1;
nodes = (
(240,-6,o),
(328,72,o),
(328,136,qs),
(328,181,o),
(286,236,o),
(225,264,o),
(176,279,qs),
(136,291,o),
(91,310,o),
(60,343,o),
(60,370,qs),
(60,407,o),
(114,455,o),
(163,455,qs),
(194,455,o),
(247,429,o),
(271,401,q),
(289,415,l),
(265,446,o),
(201,477,o),
(161,477,qs),
(122,477,o),
(66,451,o),
(37,402,o),
(37,368,qs),
(37,337,o),
(71,297,o),
(121,275,o),
(163,261,qs),
(210,247,o),
(265,221,o),
(304,174,o),
(304,136,qs),
(304,83,o),
(231,18,o),
(174,18,qs),
(131,18,o),
(56,52,o),
(31,82,q),
(12,65,l),
(83,-6,o),
(174,-6,qs)
);
}
);
width = 345;
},
{
layerId = "0BE882A4-FC89-4865-8E81-154FB3EE808B";
shapes = (
{
closed = 1;
nodes = (
(304,-6,o),
(411,73,o),
(411,148,qs),
(411,194,o),
(364,254,o),
(302,286,o),
(256,302,qs),
(240,307,o),
(210,319,o),
(194,332,o),
(194,339,qs),
(194,352,o),
(212,363,o),
(224,363,qs),
(246,363,o),
(282,338,o),
(296,319,q),
(386,403,l),
(351,442,o),
(272,477,o),
(220,477,qs),
(175,477,o),
(105,440,o),
(65,378,o),
(65,341,qs),
(65,302,o),
(103,253,o),
(155,226,o),
(197,212,qs),
(227,202,o),
(260,187,o),
(282,165,o),
(282,148,qs),
(282,131,o),
(254,110,o),
(228,110,qs),
(195,110,o),
(142,142,o),
(118,174,q),
(28,90,l),
(116,-6,o),
(228,-6,qs)
);
}
);
width = 444;
},
{
layerId = "9C2CFEA6-85BB-4338-BB26-B1BEA40B5780";
shapes = (
{
closed = 1;
nodes = (
(310,-6,o),
(420,73,o),
(420,149,qs),
(420,196,o),
(372,257,o),
(308,289,o),
(263,305,qs),
(248,310,o),
(221,320,o),
(207,331,o),
(207,337,qs),
(207,347,o),
(221,354,o),
(231,354,qs),
(252,354,o),
(287,329,o),
(299,310,q),
(396,402,l),
(360,442,o),
(279,477,o),
(225,477,qs),
(180,477,o),
(108,439,o),
(68,376,o),
(68,339,qs),
(68,298,o),
(106,248,o),
(159,221,o),
(201,207,qs),
(229,197,o),
(260,184,o),
(280,164,o),
(280,149,qs),
(280,136,o),
(256,120,o),
(234,120,qs),
(201,120,o),
(150,151,o),
(126,184,q),
(30,93,l),
(118,-6,o),
(234,-6,qs)
);
}
);
width = 454;
}
);
note = s;
unicode = 115;
},
{
glyphname = germandbls;
kernLeft = germandbls;
kernRight = germandbls;
layers = (
{
layerId = m01;
shapes = (
{
closed = 1;
nodes = (
(113,0,l),
(113,660,l),
(47,660,l),
(47,0,l)
);
},
{
closed = 1;
nodes = (
(433,-3,o),
(528,51,o),
(580,142,o),
(580,196,qs),
(580,254,o),
(533,338,o),
(454,381,o),
(408,381,q),
(408,354,l),
(448,354,o),
(509,396,o),
(541,463,o),
(541,499,qs),
(541,542,o),
(496,616,o),
(419,660,o),
(373,660,q),
(373,596,l),
(401,596,o),
(448,571,o),
(475,526,o),
(475,499,qs),
(475,452,o),
(415,392,o),
(355,392,qs),
(334,392,l),
(334,338,l),
(355,338,ls),
(405,338,o),
(477,300,o),
(514,236,o),
(514,196,qs),
(514,137,o),
(436,61,o),
(373,61,qs),
(328,61,o),
(264,104,o),
(241,150,q),
(182,123,l),
(198,84,o),
(256,28,o),
(332,-3,o),
(373,-3,qs)
);
},
{
closed = 1;
nodes = (
(47,596,l),
(373,596,l),
(373,660,l),
(47,660,l)
);
}
);
width = 608;
},
{
layerId = "4DE8B86A-429B-4593-9BC8-49866BB1A430";
shapes = (
{
closed = 1;
nodes = (
(67,0,l),
(67,660,l),
(47,660,l),
(47,0,l)
);
},
{
closed = 1;
nodes = (
(390,-3,o),
(479,48,o),
(529,135,o),
(529,187,qs),
(529,244,o),
(477,328,o),
(397,372,o),
(355,372,q),
(354,366,l),
(391,366,o),
(450,406,o),
(485,474,o),
(485,514,qs),
(485,554,o),
(443,621,o),
(373,660,o),
(333,660,q),
(332,643,l),
(367,643,o),
(427,609,o),
(463,549,o),
(463,514,qs),
(463,455,o),
(388,378,o),
(316,378,qs),
(297,378,l),
(297,360,l),
(318,360,ls),
(376,359,o),
(463,313,o),
(508,235,o),
(508,187,qs),
(508,114,o),
(411,21,o),
(333,21,qs),
(282,21,o),
(206,59,o),
(174,111,q),
(157,101,l),
(178,61,o),
(237,15,o),
(300,-3,o),
(333,-3,qs)
);
},
{
closed = 1;
nodes = (
(47,643,l),
(332,643,l),
(332,660,l),
(47,660,l)
);
}
);
width = 557;
},
{
layerId = "0BE882A4-FC89-4865-8E81-154FB3EE808B";
shapes = (
{
closed = 1;
nodes = (
(182,0,l),
(182,660,l),
(47,660,l),
(47,0,l)
);
},
{
closed = 1;
nodes = (
(499,-3,o),
(600,55,o),
(656,153,o),
(656,210,qs),
(656,269,o),
(616,352,o),
(540,394,o),
(488,394,q),
(488,335,l),
(535,335,o),
(597,381,o),
(626,447,o),
(626,476,qs),
(626,524,o),
(575,608,o),
(487,660,o),
(435,660,q),
(434,525,l),
(453,525,o),
(480,513,o),
(494,491,o),
(494,476,qs),
(494,448,o),
(455,414,o),
(412,414,qs),
(390,414,l),
(390,305,l),
(410,305,ls),
(447,305,o),
(498,279,o),
(522,237,o),
(522,210,qs),
(522,171,o),
(475,123,o),
(435,123,qs),
(392,123,o),
(348,173,o),
(342,208,q),
(220,156,l),
(227,120,o),
(285,47,o),
(377,-3,o),
(435,-3,qs)
);
},
{
closed = 1;
nodes = (
(47,525,l),
(434,525,l),
(434,660,l),
(47,660,l)
);
}
);
width = 684;
},
{
layerId = "9C2CFEA6-85BB-4338-BB26-B1BEA40B5780";
shapes = (
{
closed = 1;
nodes = (
(193,0,l),
(193,660,l),
(47,660,l),
(47,0,l)
);
},
{
closed = 1;
nodes = (
(511,-3,o),
(613,56,o),
(670,155,o),
(670,213,qs),
(670,272,o),
(630,354,o),
(554,396,o),
(502,396,q),
(501,332,l),
(549,332,o),
(612,379,o),
(640,445,o),
(640,472,qs),
(640,521,o),
(589,607,o),
(499,660,o),
(445,660,q),
(445,514,l),
(462,514,o),
(485,504,o),
(497,486,o),
(497,472,qs),
(497,447,o),
(462,418,o),
(422,418,qs),
(399,417,l),
(399,299,l),
(419,299,ls),
(454,299,o),
(502,276,o),
(524,237,o),
(524,213,qs),
(524,177,o),
(481,133,o),
(445,133,qs),
(403,133,o),
(362,185,o),
(359,218,q),
(226,162,l),
(232,127,o),
(289,50,o),
(385,-3,o),
(445,-3,qs)
);
},
{
closed = 1;
nodes = (
(47,514,l),
(445,514,l),
(445,660,l),
(47,660,l)
);
}
);
width = 697;
}
);
note = germandbls;
unicode = 223;
},
{
glyphname = t;
kernLeft = t;
kernRight = t;
layers = (
{
layerId = m01;
shapes = (
{
closed = 1;
nodes = (
(232,-6,o),
(294,12,o),
(315,26,q),
(287,79,l),
(270,68,o),
(233,57,o),
(210,57,qs),
(178,57,o),
(151,103,o),
(151,151,qs),
(151,418,l),
(299,418,l),
(299,478,l),
(151,478,l),
(151,660,l),
(85,660,l),
(85,478,l),
(9,478,l),
(9,418,l),
(85,418,l),
(85,146,ls),
(85,98,o),
(105,32,o),
(158,-6,o),
(206,-6,qs)
);
}
);
width = 322;
},
{
layerId = "4DE8B86A-429B-4593-9BC8-49866BB1A430";
shapes = (
{
closed = 1;
nodes = (
(216,-6,o),
(275,8,o),
(294,21,q),
(283,41,l),
(262,30,o),
(216,19,o),
(189,19,qs),
(145,19,o),
(112,83,o),
(112,150,qs),
(112,457,l),
(278,457,l),
(278,479,l),
(112,479,l),
(112,660,l),
(89,660,l),
(89,479,l),
(9,479,l),
(9,457,l),
(89,457,l),
(89,159,ls),
(89,105,o),
(101,38,o),
(149,-6,o),
(199,-6,qs)
);
}
);
width = 306;
},
{
layerId = "0BE882A4-FC89-4865-8E81-154FB3EE808B";
shapes = (
{
closed = 1;
nodes = (
(259,-6,o),
(322,17,o),
(346,35,q),
(293,136,l),
(284,126,o),
(259,113,o),
(243,113,qs),
(227,113,o),
(208,131,o),
(208,152,qs),
(209,360,l),
(330,360,l),
(330,477,l),
(209,477,l),
(209,660,l),
(79,660,l),
(79,477,l),
(9,477,l),
(9,360,l),
(79,360,l),
(79,126,ls),
(79,81,o),
(110,22,o),
(170,-6,o),
(215,-6,qs)
);
}
);
width = 347;
},
{
layerId = "9C2CFEA6-85BB-4338-BB26-B1BEA40B5780";
shapes = (
{
closed = 1;
nodes = (
(264,-6,o),
(327,18,o),
(352,37,q),
(294,145,l),
(286,135,o),
(263,123,o),
(249,123,qs),
(235,123,o),
(218,135,o),
(218,152,qs),
(218,351,l),
(336,351,l),
(336,477,l),
(218,477,l),
(218,660,l),
(78,660,l),
(78,477,l),
(9,477,l),
(9,351,l),
(78,351,l),
(78,123,ls),
(78,78,o),
(111,21,o),
(172,-6,o),
(217,-6,qs)
);
}
);
width = 351;
}
);
note = t;
unicode = 116;
},
{
glyphname = tbar;
kernLeft = t;
kernRight = t;
layers = (
{
layerId = m01;
shapes = (
{
closed = 1;
nodes = (
(232,-6,o),
(294,12,o),
(315,26,q),
(287,79,l),
(270,68,o),
(233,57,o),
(210,57,qs),
(178,57,o),
(151,103,o),
(151,151,qs),
(151,418,l),
(299,418,l),
(299,478,l),
(151,478,l),
(151,660,l),
(85,660,l),
(85,478,l),
(9,478,l),
(9,418,l),
(85,418,l),
(85,146,ls),
(85,98,o),
(105,32,o),
(158,-6,o),
(206,-6,qs)
);
},
{
closed = 1;
nodes = (
(15,288,l),
(315,288,l),
(315,347,l),
(15,347,l)
);
}
);
width = 322;
},
{
layerId = "4DE8B86A-429B-4593-9BC8-49866BB1A430";
shapes = (
{
closed = 1;
nodes = (
(216,-6,o),
(275,8,o),
(294,21,q),
(283,41,l),
(262,30,o),
(216,19,o),
(189,19,qs),
(145,19,o),
(112,83,o),
(112,150,qs),
(112,457,l),
(278,457,l),
(278,479,l),
(112,479,l),
(112,660,l),
(89,660,l),
(89,479,l),
(9,479,l),
(9,457,l),
(89,457,l),
(89,159,ls),
(89,105,o),
(101,38,o),
(149,-6,o),
(199,-6,qs)
);
},
{
closed = 1;
nodes = (
(18,337,l),
(291,337,l),
(291,358,l),
(18,358,l)
);
}
);
width = 306;
},
{
layerId = "0BE882A4-FC89-4865-8E81-154FB3EE808B";
shapes = (
{
closed = 1;
nodes = (
(259,-6,o),
(322,17,o),
(346,35,q),
(293,136,l),
(284,126,o),
(259,113,o),
(243,113,qs),
(227,113,o),
(208,131,o),
(208,152,qs),
(209,360,l),
(330,360,l),
(330,477,l),
(209,477,l),
(209,660,l),
(79,660,l),
(79,477,l),
(9,477,l),
(9,360,l),
(79,360,l),
(79,126,ls),
(79,81,o),
(110,22,o),
(170,-6,o),
(215,-6,qs)
);
},
{
closed = 1;
nodes = (
(11,209,l),
(354,209,l),
(354,330,l),
(11,330,l)
);
}
);
width = 347;
},
{
layerId = "9C2CFEA6-85BB-4338-BB26-B1BEA40B5780";
shapes = (
{
closed = 1;
nodes = (
(264,-6,o),
(327,18,o),
(352,37,q),
(294,145,l),
(286,135,o),
(263,123,o),
(249,123,qs),
(235,123,o),
(218,135,o),
(218,152,qs),
(218,351,l),
(336,351,l),
(336,477,l),
(218,477,l),
(218,660,l),
(78,660,l),
(78,477,l),
(9,477,l),
(9,351,l),
(78,351,l),
(78,123,ls),
(78,78,o),
(111,21,o),
(172,-6,o),
(217,-6,qs)
);
},
{
closed = 1;
nodes = (
(3,197,l),
(363,197,l),
(363,328,l),
(3,328,l)
);
}
);
width = 351;
}
);
note = tbar;
unicode = 359;
},
{
glyphname = v;
kernLeft = v;
kernRight = v;
layers = (
{
layerId = m01;
shapes = (
{
closed = 1;
nodes = (
(259,0,l),
(455,472,l),
(384,472,l),
(227,87,l),
(237,87,l),
(80,472,l),
(9,472,l),
(205,0,l)
);
}
);
width = 464;
},
{
layerId = "4DE8B86A-429B-4593-9BC8-49866BB1A430";
shapes = (
{
closed = 1;
nodes = (
(224,0,l),
(418,472,l),
(393,472,l),
(209,22,l),
(219,22,l),
(34,472,l),
(9,472,l),
(203,0,l)
);
}
);
width = 428;
},
{
layerId = "0BE882A4-FC89-4865-8E81-154FB3EE808B";
shapes = (
{
closed = 1;
nodes = (
(311,0,l),
(510,472,l),
(370,472,l),
(254,185,l),
(264,185,l),
(149,472,l),
(9,472,l),
(208,0,l)
);
}
);
width = 519;
},
{
layerId = "9C2CFEA6-85BB-4338-BB26-B1BEA40B5780";
shapes = (
{
closed = 1;
nodes = (
(319,0,l),
(519,472,l),
(368,472,l),
(259,201,l),
(269,201,l),
(160,472,l),
(9,472,l),
(209,0,l)
);
}
);
width = 528;
}
);
note = v;
unicode = 118;
},
{
glyphname = w;
kernLeft = w;
kernRight = w;
layers = (
{
layerId = m01;
shapes = (
{
closed = 1;
nodes = (
(9,472,l),
(167,0,l),
(221,0,l),
(350,391,l),
(334,391,l),
(463,0,l),
(517,0,l),
(674,472,l),
(604,472,l),
(483,74,l),
(497,74,l),
(376,472,l),
(307,472,l),
(187,74,l),
(201,74,l),
(80,472,l)
);
}
);
width = 684;
},
{
layerId = "4DE8B86A-429B-4593-9BC8-49866BB1A430";
shapes = (
{
closed = 1;
nodes = (
(9,472,l),
(165,0,l),
(184,0,l),
(330,448,l),
(322,448,l),
(468,0,l),
(487,0,l),
(642,472,l),
(618,472,l),
(473,19,l),
(481,19,l),
(336,472,l),
(315,472,l),
(171,19,l),
(179,19,l),
(34,472,l)
);
}
);
width = 652;
},
{
layerId = "0BE882A4-FC89-4865-8E81-154FB3EE808B";
shapes = (
{
closed = 1;
nodes = (
(9,472,l),
(170,0,l),
(276,0,l),
(380,306,l),
(352,306,l),
(456,0,l),
(562,0,l),
(722,472,l),
(583,472,l),
(498,156,l),
(521,156,l),
(435,472,l),
(296,472,l),
(212,156,l),
(234,156,l),
(149,472,l)
);
}
);
width = 732;
},
{
layerId = "9C2CFEA6-85BB-4338-BB26-B1BEA40B5780";
shapes = (
{
closed = 1;
nodes = (
(9,472,l),
(171,0,l),
(285,0,l),
(385,292,l),
(355,292,l),
(455,0,l),
(570,0,l),
(731,472,l),
(579,472,l),
(501,170,l),
(524,170,l),
(446,472,l),
(294,472,l),
(215,170,l),
(240,170,l),
(160,472,l)
);
}
);
width = 740;
}
);
note = w;
unicode = 119;
},
{
glyphname = x;
kernLeft = x;
kernRight = x;
layers = (
{
layerId = m01;
shapes = (
{
closed = 1;
nodes = (
(88,0,l),
(249,190,l),
(410,0,l),
(493,0,l),
(293,237,l),
(488,472,l),
(405,472,l),
(252,286,l),
(94,472,l),
(10,472,l),
(207,240,l),
(5,0,l)
);
}
);
width = 498;
},
{
layerId = "4DE8B86A-429B-4593-9BC8-49866BB1A430";
shapes = (
{
closed = 1;
nodes = (
(33,0,l),
(222,222,l),
(410,0,l),
(439,0,l),
(238,239,l),
(432,472,l),
(403,472,l),
(225,256,l),
(36,472,l),
(5,472,l),
(207,241,l),
(5,0,l)
);
}
);
width = 444;
},
{
layerId = "0BE882A4-FC89-4865-8E81-154FB3EE808B";
shapes = (
{
closed = 1;
nodes = (
(170,0,l),
(290,142,l),
(410,0,l),
(574,0,l),
(375,234,l),
(572,472,l),
(408,472,l),
(293,331,l),
(181,472,l),
(17,472,l),
(207,239,l),
(5,0,l)
);
}
);
width = 579;
},
{
layerId = "9C2CFEA6-85BB-4338-BB26-B1BEA40B5780";
shapes = (
{
closed = 1;
nodes = (
(184,0,l),
(296,134,l),
(410,0,l),
(587,0,l),
(389,234,l),
(586,472,l),
(409,472,l),
(300,339,l),
(195,472,l),
(18,472,l),
(207,239,l),
(5,0,l)
);
}
);
width = 593;
}
);
note = x;
unicode = 120;
},
{
glyphname = y;
kernLeft = y;
kernRight = y;
layers = (
{
layerId = m01;
shapes = (
{
closed = 1;
nodes = (
(170,-189,l),
(555,472,l),
(481,472,l),
(284,135,l),
(86,472,l),
(9,472,l),
(246,71,l),
(94,-189,l)
);
}
);
width = 560;
},
{
layerId = "4DE8B86A-429B-4593-9BC8-49866BB1A430";
shapes = (
{
closed = 1;
nodes = (
(130,-189,l),
(520,472,l),
(494,472,l),
(265,87,l),
(38,472,l),
(9,472,l),
(251,64,l),
(102,-189,l)
);
}
);
width = 522;
},
{
layerId = "0BE882A4-FC89-4865-8E81-154FB3EE808B";
shapes = (
{
closed = 1;
nodes = (
(229,-189,l),
(607,472,l),
(461,472,l),
(312,207,l),
(158,472,l),
(9,472,l),
(238,81,l),
(82,-189,l)
);
}
);
width = 617;
},
{
layerId = "9C2CFEA6-85BB-4338-BB26-B1BEA40B5780";
shapes = (
{
closed = 1;
nodes = (
(240,-189,l),
(615,472,l),
(458,472,l),
(317,219,l),
(170,472,l),
(9,472,l),
(238,83,l),
(80,-189,l)
);
}
);
width = 626;
}
);
note = y;
unicode = 121;
},
{
glyphname = z;
kernLeft = z;
kernRight = z;
layers = (
{
layerId = m01;
shapes = (
{
closed = 1;
nodes = (
(432,0,l),
(432,66,l),
(133,66,l),
(438,428,l),
(438,472,l),
(41,472,l),
(41,405,l),
(337,405,l),
(38,49,l),
(38,0,l)
);
}
);
width = 475;
},
{
layerId = "4DE8B86A-429B-4593-9BC8-49866BB1A430";
shapes = (
{
closed = 1;
nodes = (
(411,0,l),
(411,30,l),
(67,30,l),
(427,454,l),
(427,468,l),
(44,468,l),
(44,441,l),
(382,441,l),
(30,24,l),
(30,0,l)
);
}
);
width = 458;
},
{
layerId = "0BE882A4-FC89-4865-8E81-154FB3EE808B";
shapes = (
{
closed = 1;
nodes = (
(463,0,l),
(463,120,l),
(232,120,l),
(455,388,l),
(455,478,l),
(37,478,l),
(37,351,l),
(269,351,l),
(49,88,l),
(49,0,l)
);
}
);
width = 500;
},
{
layerId = "9C2CFEA6-85BB-4338-BB26-B1BEA40B5780";
shapes = (
{
closed = 1;
nodes = (
(469,0,l),
(469,129,l),
(249,129,l),
(458,382,l),
(458,479,l),
(36,479,l),
(36,343,l),
(258,343,l),
(51,94,l),
(51,0,l)
);
}
);
width = 505;
}
);
note = z;
unicode = 122;
},
{
glyphname = saltillo;
layers = (
{
layerId = m01;
shapes = (
{
closed = 1;
nodes = (
(287,416,l),
(340,416,l),
(346,777,l),
(280,777,l)
);
}
);
width = 600;
},
{
layerId = "4DE8B86A-429B-4593-9BC8-49866BB1A430";
shapes = (
{
closed = 1;
nodes = (
(313,416,l),
(329,416,l),
(330,778,l),
(310,778,l)
);
}
);
width = 600;
},
{
layerId = "0BE882A4-FC89-4865-8E81-154FB3EE808B";
shapes = (
{
closed = 1;
nodes = (
(257,416,l),
(365,416,l),
(378,777,l),
(243,777,l)
);
}
);
width = 600;
},
{
layerId = "9C2CFEA6-85BB-4338-BB26-B1BEA40B5780";
shapes = (
{
closed = 1;
nodes = (
(258,416,l),
(375,416,l),
(389,778,l),
(243,778,l)
);
}
);
width = 600;
}
);
note = uniA78C;
unicode = 42892;
},
{
glyphname = a.ss01;
kernLeft = d;
layers = (
{
layerId = m01;
shapes = (
{
closed = 1;
nodes = (
(421,472,l),
(421,405,l),
(394,443,o),
(318,477,o),
(268,477,qs),
(202,477,o),
(95,414,o),
(33,304,o),
(33,236,qs),
(33,169,o),
(97,58,o),
(208,-6,o),
(273,-6,qs),
(371,-6,o),
(421,67,q),
(421,0,l),
(487,0,l),
(487,472,l)
);
},
{
closed = 1;
nodes = (
(324,417,o),
(404,363,o),
(421,323,q),
(421,146,l),
(406,108,o),
(330,55,o),
(273,55,qs),
(227,55,o),
(146,101,o),
(99,184,o),
(99,236,qs),
(99,288,o),
(144,371,o),
(221,417,o),
(268,417,qs)
);
}
);
width = 543;
},
{
layerId = "4DE8B86A-429B-4593-9BC8-49866BB1A430";
shapes = (
{
closed = 1;
nodes = (
(445,472,l),
(445,377,l),
(412,430,o),
(319,477,o),
(259,477,qs),
(198,477,o),
(94,414,o),
(33,304,o),
(33,236,qs),
(33,169,o),
(97,58,o),
(204,-6,o),
(266,-6,qs),
(382,-6,o),
(444,93,q),
(445,0,l),
(468,0,l),
(468,472,l)
);
},
{
closed = 1;
nodes = (
(326,456,o),
(425,387,o),
(444,338,q),
(445,133,l),
(426,85,o),
(333,15,o),
(266,15,qs),
(211,15,o),
(114,73,o),
(57,174,o),
(57,236,qs),
(57,300,o),
(112,401,o),
(205,456,o),
(259,456,qs)
);
}
);
width = 524;
},
{
layerId = "0BE882A4-FC89-4865-8E81-154FB3EE808B";
shapes = (
{
closed = 1;
nodes = (
(385,472,l),
(385,447,l),
(366,463,o),
(315,477,o),
(280,477,qs),
(209,477,o),
(96,413,o),
(33,303,o),
(33,236,qs),
(33,169,o),
(99,58,o),
(214,-6,o),
(285,-6,qs),
(355,-6,o),
(385,27,q),
(385,0,l),
(515,0,l),
(515,472,l)
);
},
{
closed = 1;
nodes = (
(321,357,o),
(374,326,o),
(385,302,q),
(385,166,l),
(375,143,o),
(326,114,o),
(285,114,qs),
(251,114,o),
(195,145,o),
(162,200,o),
(162,236,qs),
(162,270,o),
(192,325,o),
(246,357,o),
(280,357,qs)
);
}
);
width = 571;
},
{
layerId = "9C2CFEA6-85BB-4338-BB26-B1BEA40B5780";
shapes = (
{
closed = 1;
nodes = (
(380,472,l),
(380,455,l),
(361,466,o),
(315,477,o),
(282,477,qs),
(210,477,o),
(96,413,o),
(33,303,o),
(33,236,qs),
(33,169,o),
(99,58,o),
(215,-6,o),
(287,-6,qs),
(351,-6,o),
(379,21,q),
(380,0,l),
(520,0,l),
(520,472,l)
);
},
{
closed = 1;
nodes = (
(321,348,o),
(369,320,o),
(379,298,q),
(380,170,l),
(370,149,o),
(326,124,o),
(287,124,qs),
(255,124,o),
(203,152,o),
(173,203,o),
(173,236,qs),
(173,267,o),
(201,318,o),
(251,348,o),
(282,348,qs)
);
}
);
width = 576;
}
);
note = a.ss01;
},
{
glyphname = f_f;
lastChange = "2025-01-07 20:57:39 +0000";
layers = (
{
anchors = (
{
name = caret_1;
pos = (286.5,0);
}
);
layerId = m01;
shapes = (
{
closed = 1;
nodes = (
(291,616,o),
(330,581,o),
(345,527,o),
(346,491,qs),
(346,472,l),
(412,472,l),
(411,489,o),
(411,506,q),
(406,555,o),
(373,630,o),
(307,674,o),
(256,674,qs),
(204,674,o),
(133,635,o),
(97,569,o),
(97,529,qs),
(97,472,l),
(8,472,l),
(8,411,l),
(97,411,l),
(97,0,l),
(163,0,l),
(163,411,l),
(298,411,l),
(298,472,l),
(163,472,l),
(163,520,ls),
(163,565,o),
(211,616,o),
(256,616,qs)
);
},
{
closed = 1;
nodes = (
(412,0,l),
(412,411,l),
(547,411,l),
(547,472,l),
(412,472,l),
(412,538,ls),
(412,576,o),
(440,616,o),
(472,616,qs),
(510,616,o),
(540,581,q),
(574,629,l),
(559,651,o),
(501,674,o),
(467,674,qs),
(402,674,o),
(346,602,o),
(346,538,qs),
(346,472,l),
(257,472,l),
(257,411,l),
(346,411,l),
(346,0,l)
);
}
);
width = 573;
},
{
anchors = (
{
name = caret_1;
pos = (260,0);
}
);
layerId = "4DE8B86A-429B-4593-9BC8-49866BB1A430";
shapes = (
{
closed = 1;
nodes = (
(277,656,o),
(320,609,o),
(329,544,o),
(328,494,qs),
(328,472,l),
(353,472,l),
(353,485,o),
(353,499,qs),
(355,552,o),
(344,624,o),
(290,677,o),
(231,677,qs),
(191,677,o),
(133,647,o),
(102,586,o),
(102,541,qs),
(102,472,l),
(4,472,l),
(4,451,l),
(102,451,l),
(102,0,l),
(125,0,l),
(125,451,l),
(273,451,l),
(273,472,l),
(125,472,l),
(125,546,ls),
(125,596,o),
(178,656,o),
(231,656,qs)
);
},
{
closed = 1;
nodes = (
(353,0,l),
(353,451,l),
(501,451,l),
(501,472,l),
(353,472,l),
(353,556,ls),
(353,604,o),
(388,654,o),
(432,654,qs),
(478,654,o),
(510,621,q),
(525,637,l),
(518,653,o),
(467,677,o),
(435,677,qs),
(380,677,o),
(329,617,o),
(329,556,qs),
(329,472,l),
(232,472,l),
(232,451,l),
(329,451,l),
(329,0,l)
);
}
);
width = 520;
},
{
anchors = (
{
name = caret_1;
pos = (326.5,0);
}
);
layerId = "0BE882A4-FC89-4865-8E81-154FB3EE808B";
shapes = (
{
closed = 1;
nodes = (
(312,555,o),
(345,539,o),
(368,508,o),
(371,486,qs),
(372,472,l),
(502,472,l),
(502,496,o),
(497,518,qs),
(486,572,o),
(419,640,o),
(334,670,o),
(294,670,qs),
(224,670,o),
(133,618,o),
(91,544,o),
(91,511,qs),
(90,472,l),
(14,472,l),
(14,352,l),
(90,352,l),
(90,0,l),
(220,0,l),
(220,352,l),
(335,352,l),
(335,472,l),
(220,472,l),
(220,480,ls),
(220,518,o),
(260,555,o),
(294,555,qs)
);
},
{
closed = 1;
nodes = (
(502,0,l),
(502,352,l),
(617,352,l),
(617,472,l),
(502,472,l),
(502,511,ls),
(502,535,o),
(519,557,o),
(532,557,qs),
(559,557,o),
(587,520,q),
(648,616,l),
(622,646,o),
(554,670,o),
(516,670,qs),
(434,670,o),
(372,580,o),
(372,511,qs),
(372,472,l),
(296,472,l),
(296,352,l),
(372,352,l),
(372,0,l)
);
}
);
width = 653;
},
{
anchors = (
{
name = caret_1;
pos = (333.5,0);
}
);
layerId = "9C2CFEA6-85BB-4338-BB26-B1BEA40B5780";
shapes = (
{
closed = 1;
nodes = (
(316,545,o),
(348,532,o),
(373,505,o),
(376,486,qs),
(377,472,l),
(517,472,l),
(517,497,o),
(512,520,qs),
(500,575,o),
(427,642,o),
(340,670,o),
(301,670,qs),
(228,670,o),
(133,615,o),
(90,539,o),
(90,508,qs),
(89,472,l),
(15,472,l),
(15,342,l),
(89,342,l),
(89,0,l),
(229,0,l),
(229,342,l),
(341,342,l),
(341,472,l),
(229,472,l),
(229,474,ls),
(229,510,o),
(268,545,o),
(301,545,qs)
);
},
{
closed = 1;
nodes = (
(517,0,l),
(517,342,l),
(629,342,l),
(629,472,l),
(517,472,l),
(517,506,ls),
(517,529,o),
(532,548,o),
(542,548,qs),
(567,548,o),
(594,509,q),
(660,614,l),
(633,645,o),
(564,670,o),
(524,670,qs),
(440,670,o),
(377,577,o),
(377,506,qs),
(377,472,l),
(302,472,l),
(302,342,l),
(377,342,l),
(377,0,l)
);
}
);
width = 667;
}
);
note = f_f;
},
{
glyphname = f_f_i;
lastChange = "2025-01-07 20:58:05 +0000";
layers = (
{
anchors = (
{
name = caret_1;
pos = (265.333,0);
},
{
name = caret_2;
pos = (530.667,0);
}
);
layerId = m01;
shapes = (
{
closed = 1;
nodes = (
(291,616,o),
(330,581,o),
(345,527,o),
(346,491,qs),
(346,472,l),
(412,472,l),
(411,489,o),
(411,506,q),
(406,555,o),
(373,630,o),
(307,674,o),
(256,674,qs),
(204,674,o),
(133,635,o),
(97,569,o),
(97,529,qs),
(97,472,l),
(8,472,l),
(8,411,l),
(97,411,l),
(97,0,l),
(163,0,l),
(163,411,l),
(298,411,l),
(298,472,l),
(163,472,l),
(163,520,ls),
(163,565,o),
(211,616,o),
(256,616,qs)
);
},
{
closed = 1;
nodes = (
(412,0,l),
(412,411,l),
(695,411,l),
(695,472,l),
(412,472,l),
(412,538,ls),
(412,576,o),
(440,616,o),
(471,616,qs),
(510,616,o),
(540,581,q),
(574,629,l),
(559,651,o),
(501,674,o),
(467,674,qs),
(402,674,o),
(346,602,o),
(346,538,qs),
(346,472,l),
(257,472,l),
(257,411,l),
(346,411,l),
(346,0,l)
);
},
{
closed = 1;
nodes = (
(738,0,l),
(738,472,l),
(672,472,l),
(672,0,l)
);
},
{
closed = 1;
nodes = (
(729,524,o),
(764,559,o),
(764,585,qs),
(764,609,o),
(729,644,o),
(704,644,qs),
(679,644,o),
(644,609,o),
(644,585,qs),
(644,559,o),
(679,524,o),
(704,524,qs)
);
}
);
width = 796;
},
{
anchors = (
{
name = caret_1;
pos = (249,0);
},
{
name = caret_2;
pos = (498,0);
}
);
layerId = "4DE8B86A-429B-4593-9BC8-49866BB1A430";
shapes = (
{
closed = 1;
nodes = (
(277,656,o),
(320,609,o),
(329,544,o),
(328,494,qs),
(328,472,l),
(353,472,l),
(353,485,o),
(353,499,qs),
(355,552,o),
(344,624,o),
(290,677,o),
(231,677,qs),
(191,677,o),
(133,647,o),
(102,586,o),
(102,541,qs),
(102,472,l),
(4,472,l),
(4,451,l),
(102,451,l),
(102,0,l),
(125,0,l),
(125,451,l),
(273,451,l),
(273,472,l),
(125,472,l),
(125,546,ls),
(125,596,o),
(178,656,o),
(231,656,qs)
);
},
{
closed = 1;
nodes = (
(353,0,l),
(353,451,l),
(671,451,l),
(671,472,l),
(353,472,l),
(353,556,ls),
(353,604,o),
(388,654,o),
(432,654,qs),
(478,654,o),
(510,621,q),
(525,637,l),
(518,653,o),
(467,677,o),
(435,677,qs),
(380,677,o),
(329,617,o),
(329,556,qs),
(329,472,l),
(232,472,l),
(232,451,l),
(329,451,l),
(329,0,l)
);
},
{
closed = 1;
nodes = (
(681,0,l),
(681,472,l),
(658,472,l),
(658,0,l)
);
},
{
closed = 1;
nodes = (
(688,532,o),
(714,558,o),
(714,578,qs),
(714,598,o),
(688,624,o),
(669,624,qs),
(648,624,o),
(622,598,o),
(622,578,qs),
(622,558,o),
(648,532,o),
(669,532,qs)
);
}
);
width = 747;
},
{
anchors = (
{
name = caret_1;
pos = (290,0);
},
{
name = caret_2;
pos = (580,0);
}
);
layerId = "0BE882A4-FC89-4865-8E81-154FB3EE808B";
shapes = (
{
closed = 1;
nodes = (
(312,555,o),
(345,539,o),
(368,508,o),
(371,486,qs),
(372,472,l),
(502,472,l),
(502,496,o),
(497,518,qs),
(486,572,o),
(419,640,o),
(334,670,o),
(294,670,qs),
(224,670,o),
(133,618,o),
(91,544,o),
(91,511,qs),
(90,472,l),
(14,472,l),
(14,352,l),
(90,352,l),
(90,0,l),
(220,0,l),
(220,352,l),
(335,352,l),
(335,472,l),
(220,472,l),
(220,480,ls),
(220,518,o),
(260,555,o),
(294,555,qs)
);
},
{
closed = 1;
nodes = (
(502,0,l),
(502,352,l),
(731,352,l),
(731,472,l),
(502,472,l),
(502,511,ls),
(502,535,o),
(519,557,o),
(532,557,qs),
(559,557,o),
(587,520,q),
(648,616,l),
(622,646,o),
(554,670,o),
(516,670,qs),
(434,670,o),
(372,580,o),
(372,511,qs),
(372,472,l),
(296,472,l),
(296,352,l),
(372,352,l),
(372,0,l)
);
},
{
closed = 1;
nodes = (
(823,0,l),
(823,472,l),
(694,472,l),
(694,0,l)
);
},
{
closed = 1;
nodes = (
(791,513,o),
(838,561,o),
(838,594,qs),
(838,627,o),
(791,674,o),
(758,674,qs),
(725,674,o),
(677,627,o),
(677,594,qs),
(677,561,o),
(725,513,o),
(758,513,qs)
);
}
);
width = 870;
},
{
anchors = (
{
name = caret_1;
pos = (294.333,0);
},
{
name = caret_2;
pos = (588.667,0);
}
);
layerId = "9C2CFEA6-85BB-4338-BB26-B1BEA40B5780";
shapes = (
{
closed = 1;
nodes = (
(316,545,o),
(348,532,o),
(373,505,o),
(376,486,qs),
(377,472,l),
(517,472,l),
(517,497,o),
(512,520,qs),
(500,575,o),
(427,642,o),
(340,670,o),
(301,670,qs),
(228,670,o),
(133,615,o),
(90,539,o),
(90,508,qs),
(89,472,l),
(15,472,l),
(15,342,l),
(89,342,l),
(89,0,l),
(229,0,l),
(229,342,l),
(341,342,l),
(341,472,l),
(229,472,l),
(229,474,ls),
(229,510,o),
(268,545,o),
(301,545,qs)
);
},
{
closed = 1;
nodes = (
(517,0,l),
(517,342,l),
(737,342,l),
(737,472,l),
(517,472,l),
(517,506,ls),
(517,529,o),
(532,548,o),
(542,548,qs),
(567,548,o),
(594,509,q),
(660,614,l),
(633,645,o),
(564,670,o),
(524,670,qs),
(440,670,o),
(377,577,o),
(377,506,qs),
(377,472,l),
(302,472,l),
(302,342,l),
(377,342,l),
(377,0,l)
);
},
{
closed = 1;
nodes = (
(837,0,l),
(837,472,l),
(697,472,l),
(697,0,l)
);
},
{
closed = 1;
nodes = (
(802,511,o),
(852,561,o),
(852,596,qs),
(852,630,o),
(802,679,o),
(768,679,qs),
(733,679,o),
(683,630,o),
(683,596,qs),
(683,561,o),
(733,511,o),
(768,511,qs)
);
}
);
width = 883;
}
);
note = f_f_i;
},
{
glyphname = f_f_ij;
lastChange = "2025-01-07 20:57:39 +0000";
layers = (
{
anchors = (
{
name = bottom_1;
pos = (158,0);
},
{
name = bottom_2;
pos = (475,0);
},
{
name = bottom_3;
pos = (791,0);
},
{
name = caret_1;
pos = (322.667,0);
},
{
name = caret_2;
pos = (645.333,0);
},
{
name = top_1;
pos = (158,943);
},
{
name = top_2;
pos = (475,943);
},
{
name = top_3;
pos = (791,943);
}
);
layerId = m01;
shapes = (
{
closed = 1;
nodes = (
(291,616,o),
(330,581,o),
(345,527,o),
(346,491,qs),
(346,472,l),
(412,472,l),
(411,489,o),
(411,506,q),
(406,555,o),
(373,630,o),
(307,674,o),
(256,674,qs),
(204,674,o),
(133,635,o),
(97,569,o),
(97,529,qs),
(97,472,l),
(8,472,l),
(8,411,l),
(97,411,l),
(97,0,l),
(163,0,l),
(163,411,l),
(298,411,l),
(298,472,l),
(163,472,l),
(163,520,ls),
(163,565,o),
(211,616,o),
(256,616,qs)
);
},
{
closed = 1;
nodes = (
(412,0,l),
(412,411,l),
(695,411,l),
(695,472,l),
(412,472,l),
(412,538,ls),
(412,576,o),
(440,616,o),
(472,616,qs),
(510,616,o),
(540,581,q),
(574,629,l),
(559,651,o),
(501,674,o),
(467,674,qs),
(402,674,o),
(346,602,o),
(346,538,qs),
(346,472,l),
(257,472,l),
(257,411,l),
(346,411,l),
(346,0,l)
);
},
{
closed = 1;
nodes = (
(738,0,l),
(738,472,l),
(672,472,l),
(672,0,l)
);
},
{
closed = 1;
nodes = (
(729,524,o),
(764,559,o),
(764,585,qs),
(764,609,o),
(729,644,o),
(704,644,qs),
(679,644,o),
(644,609,o),
(644,585,qs),
(644,559,o),
(679,524,o),
(704,524,qs)
);
},
{
closed = 1;
nodes = (
(726,-192,l),
(778,-192,o),
(867,-149,o),
(920,-66,o),
(920,-8,qs),
(920,472,l),
(854,472,l),
(854,-8,ls),
(854,-67,o),
(781,-132,o),
(726,-132,q)
);
},
{
closed = 1;
nodes = (
(912,524,o),
(947,559,o),
(947,585,qs),
(947,609,o),
(912,644,o),
(887,644,qs),
(862,644,o),
(827,609,o),
(827,585,qs),
(827,559,o),
(862,524,o),
(887,524,qs)
);
}
);
width = 968;
},
{
anchors = (
{
name = bottom_1;
pos = (147,0);
},
{
name = bottom_2;
pos = (442,0);
},
{
name = bottom_3;
pos = (736,0);
},
{
name = caret_1;
pos = (294.333,0);
},
{
name = caret_2;
pos = (588.667,0);
},
{
name = top_1;
pos = (147,930);
},
{
name = top_2;
pos = (442,930);
},
{
name = top_3;
pos = (736,930);
}
);
layerId = "4DE8B86A-429B-4593-9BC8-49866BB1A430";
shapes = (
{
closed = 1;
nodes = (
(277,656,o),
(320,609,o),
(329,544,o),
(328,494,qs),
(328,472,l),
(353,472,l),
(353,485,o),
(353,499,qs),
(355,552,o),
(344,624,o),
(290,677,o),
(231,677,qs),
(191,677,o),
(133,647,o),
(102,586,o),
(102,541,qs),
(102,472,l),
(4,472,l),
(4,451,l),
(102,451,l),
(102,0,l),
(125,0,l),
(125,451,l),
(273,451,l),
(273,472,l),
(125,472,l),
(125,546,ls),
(125,596,o),
(178,656,o),
(231,656,qs)
);
},
{
closed = 1;
nodes = (
(353,0,l),
(353,451,l),
(671,451,l),
(671,472,l),
(353,472,l),
(353,556,ls),
(353,604,o),
(388,654,o),
(432,654,qs),
(478,654,o),
(510,621,q),
(525,637,l),
(518,653,o),
(467,677,o),
(435,677,qs),
(380,677,o),
(329,617,o),
(329,556,qs),
(329,472,l),
(232,472,l),
(232,451,l),
(329,451,l),
(329,0,l)
);
},
{
closed = 1;
nodes = (
(681,0,l),
(681,472,l),
(658,472,l),
(658,0,l)
);
},
{
closed = 1;
nodes = (
(688,532,o),
(714,558,o),
(714,578,qs),
(714,598,o),
(688,624,o),
(669,624,qs),
(648,624,o),
(622,598,o),
(622,578,qs),
(622,558,o),
(648,532,o),
(669,532,qs)
);
},
{
closed = 1;
nodes = (
(671,-208,l),
(719,-203,o),
(793,-157,o),
(835,-80,o),
(835,-28,qs),
(835,472,l),
(812,472,l),
(812,-28,ls),
(812,-96,o),
(732,-181,o),
(671,-190,q)
);
},
{
closed = 1;
nodes = (
(844,532,o),
(869,558,o),
(869,578,qs),
(869,598,o),
(844,624,o),
(824,624,qs),
(804,624,o),
(778,598,o),
(778,578,qs),
(778,558,o),
(804,532,o),
(824,532,qs)
);
}
);
width = 883;
},
{
anchors = (
{
name = bottom_1;
pos = (182,0);
},
{
name = bottom_2;
pos = (547,0);
},
{
name = bottom_3;
pos = (912,0);
},
{
name = caret_1;
pos = (364.667,0);
},
{
name = caret_2;
pos = (729.333,0);
},
{
name = top_1;
pos = (182,930);
},
{
name = top_2;
pos = (547,930);
},
{
name = top_3;
pos = (912,930);
}
);
layerId = "0BE882A4-FC89-4865-8E81-154FB3EE808B";
shapes = (
{
closed = 1;
nodes = (
(312,555,o),
(345,539,o),
(368,508,o),
(371,486,qs),
(372,472,l),
(502,472,l),
(502,496,o),
(497,518,qs),
(486,572,o),
(419,640,o),
(334,670,o),
(294,670,qs),
(224,670,o),
(133,618,o),
(91,544,o),
(91,511,qs),
(90,472,l),
(14,472,l),
(14,352,l),
(90,352,l),
(90,0,l),
(220,0,l),
(220,352,l),
(335,352,l),
(335,472,l),
(220,472,l),
(220,480,ls),
(220,518,o),
(260,555,o),
(294,555,qs)
);
},
{
closed = 1;
nodes = (
(502,0,l),
(502,352,l),
(731,352,l),
(731,472,l),
(502,472,l),
(502,511,ls),
(502,535,o),
(519,557,o),
(532,557,qs),
(559,557,o),
(587,520,q),
(648,616,l),
(622,646,o),
(554,670,o),
(516,670,qs),
(434,670,o),
(372,580,o),
(372,511,qs),
(372,472,l),
(296,472,l),
(296,352,l),
(372,352,l),
(372,0,l)
);
},
{
closed = 1;
nodes = (
(823,0,l),
(823,472,l),
(694,472,l),
(694,0,l)
);
},
{
closed = 1;
nodes = (
(791,513,o),
(838,561,o),
(838,594,qs),
(838,627,o),
(791,674,o),
(758,674,qs),
(725,674,o),
(677,627,o),
(677,594,qs),
(677,561,o),
(725,513,o),
(758,513,qs)
);
},
{
closed = 1;
nodes = (
(807,-167,l),
(866,-177,o),
(977,-138,o),
(1047,-46,o),
(1047,21,qs),
(1046,472,l),
(917,472,l),
(917,21,ls),
(918,-24,o),
(853,-59,o),
(807,-46,q)
);
},
{
closed = 1;
nodes = (
(1014,513,o),
(1062,561,o),
(1062,594,qs),
(1062,627,o),
(1014,674,o),
(982,674,qs),
(948,674,o),
(901,627,o),
(901,594,qs),
(901,561,o),
(948,513,o),
(982,513,qs)
);
}
);
width = 1094;
},
{
anchors = (
{
name = bottom_1;
pos = (186,0);
},
{
name = bottom_2;
pos = (558,0);
},
{
name = bottom_3;
pos = (929,0);
},
{
name = caret_1;
pos = (371.667,0);
},
{
name = caret_2;
pos = (743.333,0);
},
{
name = top_1;
pos = (186,930);
},
{
name = top_2;
pos = (558,930);
},
{
name = top_3;
pos = (929,930);
}
);
layerId = "9C2CFEA6-85BB-4338-BB26-B1BEA40B5780";
shapes = (
{
closed = 1;
nodes = (
(316,545,o),
(348,532,o),
(373,505,o),
(376,486,qs),
(377,472,l),
(517,472,l),
(517,497,o),
(512,520,qs),
(500,575,o),
(427,642,o),
(340,670,o),
(301,670,qs),
(228,670,o),
(133,615,o),
(90,539,o),
(90,508,qs),
(89,472,l),
(15,472,l),
(15,342,l),
(89,342,l),
(89,0,l),
(229,0,l),
(229,342,l),
(341,342,l),
(341,472,l),
(229,472,l),
(229,474,ls),
(229,510,o),
(268,545,o),
(301,545,qs)
);
},
{
closed = 1;
nodes = (
(517,0,l),
(517,342,l),
(737,342,l),
(737,472,l),
(517,472,l),
(517,506,ls),
(517,529,o),
(532,548,o),
(542,548,qs),
(567,548,o),
(594,509,q),
(660,614,l),
(633,645,o),
(564,670,o),
(524,670,qs),
(440,670,o),
(377,577,o),
(377,506,qs),
(377,472,l),
(302,472,l),
(302,342,l),
(377,342,l),
(377,0,l)
);
},
{
closed = 1;
nodes = (
(837,0,l),
(837,472,l),
(697,472,l),
(697,0,l)
);
},
{
closed = 1;
nodes = (
(802,511,o),
(852,561,o),
(852,596,qs),
(852,630,o),
(802,679,o),
(768,679,qs),
(733,679,o),
(683,630,o),
(683,596,qs),
(683,561,o),
(733,511,o),
(768,511,qs)
);
},
{
closed = 1;
nodes = (
(820,-164,l),
(881,-175,o),
(995,-136,o),
(1067,-43,o),
(1067,25,qs),
(1067,472,l),
(928,472,l),
(928,26,ls),
(928,-16,o),
(865,-47,o),
(820,-32,q)
);
},
{
closed = 1;
nodes = (
(1032,511,o),
(1082,561,o),
(1082,596,qs),
(1082,630,o),
(1032,679,o),
(998,679,qs),
(963,679,o),
(913,630,o),
(913,596,qs),
(913,561,o),
(963,511,o),
(998,511,qs)
);
}
);
width = 1115;
}
);
note = f_f_ij;
},
{
glyphname = f_f_l;
lastChange = "2025-01-07 20:57:39 +0000";
layers = (
{
anchors = (
{
name = caret_1;
pos = (253,0);
},
{
name = caret_2;
pos = (506,0);
}
);
layerId = m01;
shapes = (
{
closed = 1;
nodes = (
(466,616,o),
(412,566,o),
(412,520,qs),
(412,472,l),
(547,472,l),
(547,411,l),
(412,411,l),
(412,0,l),
(346,0,l),
(346,411,l),
(163,411,l),
(163,0,l),
(97,0,l),
(97,411,l),
(8,411,l),
(8,472,l),
(97,472,l),
(97,529,ls),
(97,569,o),
(133,635,o),
(204,674,o),
(256,674,qs),
(297,674,o),
(359,638,o),
(377,604,q),
(398,638,o),
(469,674,o),
(524,674,qs),
(620,674,o),
(703,594,o),
(703,529,qs),
(703,0,l),
(637,0,l),
(637,520,ls),
(637,566,o),
(583,616,o),
(524,616,qs)
);
},
{
closed = 1;
nodes = (
(163,472,l),
(346,472,l),
(346,478,ls),
(346,517,o),
(333,577,o),
(293,616,o),
(256,616,qs),
(211,616,o),
(163,565,o),
(163,520,qs)
);
}
);
width = 759;
},
{
anchors = (
{
name = caret_1;
pos = (219,0);
},
{
name = caret_2;
pos = (438,0);
}
);
layerId = "4DE8B86A-429B-4593-9BC8-49866BB1A430";
shapes = (
{
closed = 1;
nodes = (
(408,656,o),
(353,592,o),
(353,541,qs),
(353,472,l),
(501,472,l),
(501,451,l),
(353,451,l),
(353,0,l),
(328,0,l),
(328,451,l),
(125,451,l),
(125,0,l),
(102,0,l),
(102,451,l),
(4,451,l),
(4,472,l),
(102,472,l),
(102,541,ls),
(102,586,o),
(133,647,o),
(191,677,o),
(231,677,qs),
(277,677,o),
(331,629,o),
(340,588,q),
(356,631,o),
(415,677,o),
(465,677,qs),
(529,677,o),
(601,608,o),
(601,541,qs),
(601,0,l),
(578,0,l),
(578,548,ls),
(577,598,o),
(523,656,o),
(465,656,qs)
);
},
{
closed = 1;
nodes = (
(125,472,l),
(328,472,l),
(328,476,ls),
(328,538,o),
(322,601,o),
(280,656,o),
(231,656,qs),
(178,656,o),
(125,596,o),
(125,546,qs)
);
}
);
width = 657;
},
{
anchors = (
{
name = caret_1;
pos = (304,0);
},
{
name = caret_2;
pos = (608,0);
}
);
layerId = "0BE882A4-FC89-4865-8E81-154FB3EE808B";
shapes = (
{
closed = 1;
nodes = (
(552,555,o),
(502,526,o),
(502,487,qs),
(502,472,l),
(617,472,l),
(617,352,l),
(502,352,l),
(502,0,l),
(372,0,l),
(372,352,l),
(220,352,l),
(220,0,l),
(90,0,l),
(90,352,l),
(14,352,l),
(14,472,l),
(90,472,l),
(90,511,ls),
(91,544,o),
(133,618,o),
(224,670,o),
(294,670,qs),
(329,670,o),
(403,651,o),
(433,629,q),
(461,649,o),
(551,670,o),
(614,670,qs),
(757,670,o),
(855,573,o),
(855,511,qs),
(856,0,l),
(727,0,l),
(727,478,ls),
(726,517,o),
(674,555,o),
(614,555,qs)
);
},
{
closed = 1;
nodes = (
(220,472,l),
(372,472,l),
(372,481,ls),
(372,507,o),
(350,540,o),
(315,555,o),
(294,555,qs),
(260,555,o),
(220,518,o),
(220,480,qs)
);
}
);
width = 912;
},
{
anchors = (
{
name = caret_1;
pos = (312.333,0);
},
{
name = caret_2;
pos = (624.667,0);
}
);
layerId = "9C2CFEA6-85BB-4338-BB26-B1BEA40B5780";
shapes = (
{
closed = 1;
nodes = (
(566,545,o),
(517,519,o),
(517,481,qs),
(517,472,l),
(628,472,l),
(628,342,l),
(517,342,l),
(517,0,l),
(377,0,l),
(377,342,l),
(229,342,l),
(229,0,l),
(89,0,l),
(89,342,l),
(15,342,l),
(15,472,l),
(89,472,l),
(89,508,ls),
(90,539,o),
(133,615,o),
(228,670,o),
(301,670,qs),
(336,670,o),
(411,653,o),
(442,633,q),
(472,650,o),
(564,670,o),
(629,670,qs),
(779,670,o),
(881,570,o),
(881,508,qs),
(881,0,l),
(742,0,l),
(742,471,ls),
(741,510,o),
(689,545,o),
(629,545,qs)
);
},
{
closed = 1;
nodes = (
(229,472,l),
(377,472,l),
(377,482,ls),
(377,506,o),
(354,535,o),
(319,545,o),
(301,545,qs),
(268,545,o),
(229,510,o),
(229,473,qs)
);
}
);
width = 937;
}
);
note = f_f_l;
},
{
glyphname = f_i;
lastChange = "2025-01-07 20:57:39 +0000";
layers = (
{
anchors = (
{
name = bottom_1;
pos = (137,0);
},
{
name = bottom_2;
pos = (410,0);
},
{
name = caret_1;
pos = (273.5,0);
},
{
name = top_1;
pos = (137,943);
},
{
name = top_2;
pos = (410,943);
}
);
layerId = m01;
shapes = (
{
closed = 1;
nodes = (
(163,0,l),
(163,411,l),
(446,411,l),
(446,472,l),
(163,472,l),
(163,538,ls),
(163,576,o),
(191,616,o),
(223,616,qs),
(261,616,o),
(291,581,q),
(325,629,l),
(310,651,o),
(252,674,o),
(218,674,qs),
(153,674,o),
(97,602,o),
(97,538,qs),
(97,472,l),
(8,472,l),
(8,411,l),
(97,411,l),
(97,0,l)
);
},
{
closed = 1;
nodes = (
(489,0,l),
(489,472,l),
(423,472,l),
(423,0,l)
);
},
{
closed = 1;
nodes = (
(480,524,o),
(515,559,o),
(515,585,qs),
(515,609,o),
(480,644,o),
(455,644,qs),
(430,644,o),
(395,609,o),
(395,585,qs),
(395,559,o),
(430,524,o),
(455,524,qs)
);
}
);
width = 547;
},
{
anchors = (
{
name = bottom_1;
pos = (130,0);
},
{
name = bottom_2;
pos = (389,0);
},
{
name = caret_1;
pos = (259.5,0);
},
{
name = top_1;
pos = (130,930);
},
{
name = top_2;
pos = (389,930);
}
);
layerId = "4DE8B86A-429B-4593-9BC8-49866BB1A430";
shapes = (
{
closed = 1;
nodes = (
(125,0,l),
(125,451,l),
(444,451,l),
(444,472,l),
(125,472,l),
(125,556,ls),
(125,604,o),
(161,654,o),
(205,654,qs),
(251,654,o),
(283,621,q),
(298,637,l),
(290,653,o),
(240,677,o),
(207,677,qs),
(153,677,o),
(102,617,o),
(102,556,qs),
(102,472,l),
(4,472,l),
(4,451,l),
(102,451,l),
(102,0,l)
);
},
{
closed = 1;
nodes = (
(454,0,l),
(454,472,l),
(431,472,l),
(431,0,l)
);
},
{
closed = 1;
nodes = (
(461,532,o),
(487,558,o),
(487,578,qs),
(487,598,o),
(461,624,o),
(441,624,qs),
(421,624,o),
(395,598,o),
(395,578,qs),
(395,558,o),
(421,532,o),
(441,532,qs)
);
}
);
width = 519;
},
{
anchors = (
{
name = bottom_1;
pos = (147,0);
},
{
name = bottom_2;
pos = (441,0);
},
{
name = caret_1;
pos = (294,0);
},
{
name = top_1;
pos = (147,930);
},
{
name = top_2;
pos = (441,930);
}
);
layerId = "0BE882A4-FC89-4865-8E81-154FB3EE808B";
shapes = (
{
closed = 1;
nodes = (
(220,0,l),
(220,352,l),
(449,352,l),
(449,472,l),
(220,472,l),
(220,511,ls),
(220,535,o),
(237,557,o),
(250,557,qs),
(277,557,o),
(305,520,q),
(366,616,l),
(340,646,o),
(273,670,o),
(234,670,qs),
(152,670,o),
(91,580,o),
(91,511,qs),
(90,472,l),
(14,472,l),
(14,352,l),
(90,352,l),
(90,0,l)
);
},
{
closed = 1;
nodes = (
(541,0,l),
(541,472,l),
(412,472,l),
(412,0,l)
);
},
{
closed = 1;
nodes = (
(509,513,o),
(556,561,o),
(556,594,qs),
(556,627,o),
(509,674,o),
(476,674,qs),
(443,674,o),
(395,627,o),
(395,594,qs),
(395,561,o),
(443,513,o),
(476,513,qs)
);
}
);
width = 588;
},
{
anchors = (
{
name = bottom_1;
pos = (149,0);
},
{
name = bottom_2;
pos = (446,0);
},
{
name = caret_1;
pos = (297.5,0);
},
{
name = top_1;
pos = (149,930);
},
{
name = top_2;
pos = (446,930);
}
);
layerId = "9C2CFEA6-85BB-4338-BB26-B1BEA40B5780";
shapes = (
{
closed = 1;
nodes = (
(229,0,l),
(229,342,l),
(450,342,l),
(450,472,l),
(229,472,l),
(229,506,ls),
(229,529,o),
(245,548,o),
(255,548,qs),
(280,548,o),
(306,509,q),
(372,614,l),
(345,645,o),
(276,670,o),
(237,670,qs),
(152,670,o),
(90,577,o),
(90,506,qs),
(89,472,l),
(15,472,l),
(15,342,l),
(89,342,l),
(89,0,l)
);
},
{
closed = 1;
nodes = (
(549,0,l),
(549,472,l),
(410,472,l),
(410,0,l)
);
},
{
closed = 1;
nodes = (
(514,511,o),
(564,561,o),
(564,596,qs),
(564,630,o),
(514,679,o),
(480,679,qs),
(445,679,o),
(395,630,o),
(395,596,qs),
(395,561,o),
(445,511,o),
(480,511,qs)
);
}
);
width = 595;
}
);
note = f_i;
},
{
glyphname = f_l;
kernLeft = f;
kernRight = l;
lastChange = "2025-01-07 20:57:39 +0000";
layers = (
{
anchors = (
{
name = bottom_1;
pos = (127,0);
},
{
name = bottom_2;
pos = (383,0);
},
{
name = caret_1;
pos = (255,0);
},
{
name = top_1;
pos = (127,943);
},
{
name = top_2;
pos = (383,943);
}
);
layerId = m01;
shapes = (
{
closed = 1;
nodes = (
(217,616,o),
(163,566,o),
(163,520,qs),
(163,472,l),
(298,472,l),
(298,411,l),
(163,411,l),
(163,0,l),
(97,0,l),
(97,411,l),
(8,411,l),
(8,472,l),
(97,472,l),
(97,529,ls),
(97,594,o),
(180,674,o),
(275,674,qs),
(371,674,o),
(454,594,o),
(454,529,qs),
(454,0,l),
(388,0,l),
(388,520,ls),
(388,566,o),
(334,616,o),
(275,616,qs)
);
}
);
width = 510;
},
{
anchors = (
{
name = bottom_1;
pos = (108,0);
},
{
name = bottom_2;
pos = (323,0);
},
{
name = caret_1;
pos = (215,0);
},
{
name = top_1;
pos = (108,930);
},
{
name = top_2;
pos = (323,930);
}
);
layerId = "4DE8B86A-429B-4593-9BC8-49866BB1A430";
shapes = (
{
closed = 1;
nodes = (
(180,656,o),
(125,592,o),
(125,541,qs),
(125,472,l),
(273,472,l),
(273,451,l),
(125,451,l),
(125,0,l),
(102,0,l),
(102,451,l),
(4,451,l),
(4,472,l),
(102,472,l),
(102,541,ls),
(102,608,o),
(174,677,o),
(238,677,qs),
(301,677,o),
(373,608,o),
(373,541,qs),
(374,0,l),
(350,0,l),
(350,548,ls),
(350,598,o),
(296,656,o),
(238,656,qs)
);
}
);
width = 430;
},
{
anchors = (
{
name = bottom_1;
pos = (158,0);
},
{
name = bottom_2;
pos = (473,0);
},
{
name = caret_1;
pos = (315,0);
},
{
name = top_1;
pos = (158,930);
},
{
name = top_2;
pos = (473,930);
}
);
layerId = "0BE882A4-FC89-4865-8E81-154FB3EE808B";
shapes = (
{
closed = 1;
nodes = (
(270,555,o),
(220,526,o),
(220,487,qs),
(220,472,l),
(335,472,l),
(335,352,l),
(220,352,l),
(220,0,l),
(90,0,l),
(90,352,l),
(14,352,l),
(14,472,l),
(90,472,l),
(90,511,ls),
(91,573,o),
(189,670,o),
(332,670,qs),
(475,670,o),
(573,573,o),
(573,511,qs),
(574,0,l),
(445,0,l),
(445,478,ls),
(444,517,o),
(392,555,o),
(332,555,qs)
);
}
);
width = 630;
},
{
anchors = (
{
name = bottom_1;
pos = (163,0);
},
{
name = bottom_2;
pos = (488,0);
},
{
name = caret_1;
pos = (325,0);
},
{
name = top_1;
pos = (163,930);
},
{
name = top_2;
pos = (488,930);
}
);
layerId = "9C2CFEA6-85BB-4338-BB26-B1BEA40B5780";
shapes = (
{
closed = 1;
nodes = (
(278,545,o),
(229,519,o),
(229,481,qs),
(229,472,l),
(341,472,l),
(341,342,l),
(229,342,l),
(229,0,l),
(89,0,l),
(89,342,l),
(15,342,l),
(15,472,l),
(89,472,l),
(89,508,ls),
(90,570,o),
(191,670,o),
(341,670,qs),
(492,670,o),
(593,570,o),
(593,508,qs),
(594,0,l),
(454,0,l),
(454,471,ls),
(454,510,o),
(402,545,o),
(341,545,qs)
);
}
);
width = 650;
}
);
note = f_l;
},
{
glyphname = s_t;
layers = (
{
layerId = m01;
shapes = (
{
closed = 1;
nodes = (
(265,-6,o),
(361,73,o),
(361,141,qs),
(361,186,o),
(318,242,o),
(258,271,o),
(210,287,qs),
(177,298,o),
(139,314,o),
(114,339,o),
(114,357,qs),
(114,385,o),
(153,418,o),
(188,418,qs),
(214,418,o),
(261,393,o),
(281,368,q),
(328,410,l),
(299,445,o),
(230,477,o),
(185,477,qs),
(144,477,o),
(82,447,o),
(48,392,o),
(48,357,qs),
(48,324,o),
(83,280,o),
(134,256,o),
(177,242,qs),
(216,229,o),
(263,207,o),
(295,169,o),
(295,141,qs),
(295,102,o),
(240,55,o),
(196,55,qs),
(156,55,o),
(90,88,o),
(66,119,q),
(19,75,l),
(96,-6,o),
(196,-6,qs)
);
},
{
closed = 1;
nodes = (
(617,-6,o),
(679,12,o),
(700,26,q),
(671,79,l),
(655,68,o),
(618,57,o),
(595,57,qs),
(562,57,o),
(536,103,o),
(536,151,qs),
(536,418,l),
(684,418,l),
(684,478,l),
(536,478,l),
(536,524,o),
(500,610,o),
(424,666,o),
(369,666,qs),
(300,666,o),
(222,582,o),
(231,452,o),
(283,388,q),
(328,410,l),
(294,457,o),
(282,545,o),
(325,600,o),
(369,600,qs),
(417,600,o),
(470,531,o),
(470,478,q),
(394,478,l),
(394,418,l),
(470,418,l),
(470,146,ls),
(470,98,o),
(489,32,o),
(542,-6,o),
(590,-6,qs)
);
}
);
width = 706;
},
{
layerId = "4DE8B86A-429B-4593-9BC8-49866BB1A430";
shapes = (
{
closed = 1;
nodes = (
(240,-6,o),
(328,72,o),
(328,136,qs),
(328,181,o),
(286,236,o),
(225,264,o),
(176,279,qs),
(136,291,o),
(91,310,o),
(60,343,o),
(60,370,qs),
(60,407,o),
(114,455,o),
(163,455,qs),
(194,455,o),
(247,429,o),
(271,401,q),
(289,415,l),
(265,446,o),
(201,477,o),
(161,477,qs),
(122,477,o),
(66,451,o),
(37,402,o),
(37,368,qs),
(37,337,o),
(71,297,o),
(121,275,o),
(163,261,qs),
(210,247,o),
(265,221,o),
(304,174,o),
(304,136,qs),
(304,83,o),
(231,18,o),
(174,18,qs),
(131,18,o),
(56,52,o),
(31,82,q),
(12,65,l),
(83,-6,o),
(174,-6,qs)
);
},
{
closed = 1;
nodes = (
(561,-6,o),
(620,8,o),
(639,21,q),
(628,41,l),
(607,30,o),
(561,19,o),
(534,19,qs),
(490,19,o),
(457,83,o),
(457,150,qs),
(458,457,l),
(624,457,l),
(624,479,l),
(458,479,l),
(457,534,o),
(439,615,o),
(390,666,o),
(345,666,qs),
(289,666,o),
(229,589,o),
(236,470,o),
(274,412,q),
(289,415,l),
(259,471,o),
(252,577,o),
(299,642,o),
(345,642,qs),
(397,642,o),
(434,554,o),
(434,479,q),
(354,479,l),
(354,457,l),
(434,457,l),
(434,159,ls),
(434,105,o),
(446,38,o),
(494,-6,o),
(544,-6,qs)
);
}
);
width = 650;
},
{
layerId = "0BE882A4-FC89-4865-8E81-154FB3EE808B";
shapes = (
{
closed = 1;
nodes = (
(304,-6,o),
(411,73,o),
(411,148,qs),
(411,194,o),
(364,254,o),
(302,286,o),
(256,302,qs),
(240,307,o),
(210,319,o),
(194,332,o),
(194,339,qs),
(194,352,o),
(212,363,o),
(224,363,qs),
(246,363,o),
(282,338,o),
(296,319,q),
(386,403,l),
(351,442,o),
(272,477,o),
(220,477,qs),
(175,477,o),
(105,440,o),
(65,378,o),
(65,341,qs),
(65,302,o),
(103,253,o),
(155,226,o),
(197,212,qs),
(227,202,o),
(260,187,o),
(282,165,o),
(282,148,qs),
(282,131,o),
(254,110,o),
(228,110,qs),
(195,110,o),
(142,142,o),
(118,174,q),
(28,90,l),
(116,-6,o),
(228,-6,qs)
);
},
{
closed = 1;
nodes = (
(703,-6,o),
(766,17,o),
(790,35,q),
(736,136,l),
(728,126,o),
(703,113,o),
(687,113,qs),
(671,113,o),
(653,131,o),
(653,152,qs),
(653,360,l),
(775,360,l),
(775,477,l),
(653,477,l),
(652,529,o),
(601,620,o),
(503,676,o),
(436,676,qs),
(352,676,o),
(239,572,o),
(241,424,o),
(310,363,q),
(386,403,l),
(365,434,o),
(362,507,o),
(404,557,o),
(446,557,qs),
(480,557,o),
(523,511,o),
(523,477,q),
(453,477,l),
(453,360,l),
(524,360,l),
(524,126,ls),
(523,81,o),
(554,22,o),
(614,-6,o),
(659,-6,qs)
);
}
);
width = 790;
},
{
layerId = "9C2CFEA6-85BB-4338-BB26-B1BEA40B5780";
shapes = (
{
closed = 1;
nodes = (
(310,-6,o),
(420,73,o),
(420,149,qs),
(420,196,o),
(372,257,o),
(308,289,o),
(263,305,qs),
(248,310,o),
(221,320,o),
(207,331,o),
(207,337,qs),
(207,347,o),
(221,354,o),
(231,354,qs),
(252,354,o),
(287,329,o),
(299,310,q),
(396,402,l),
(360,442,o),
(279,477,o),
(225,477,qs),
(180,477,o),
(108,439,o),
(68,376,o),
(68,339,qs),
(68,298,o),
(106,248,o),
(159,221,o),
(201,207,qs),
(229,197,o),
(260,184,o),
(280,164,o),
(280,149,qs),
(280,136,o),
(256,120,o),
(234,120,qs),
(201,120,o),
(150,151,o),
(126,184,q),
(30,93,l),
(118,-6,o),
(234,-6,qs)
);
},
{
closed = 1;
nodes = (
(718,-6,o),
(781,18,o),
(806,37,q),
(747,145,l),
(741,135,o),
(717,123,o),
(703,123,qs),
(689,123,o),
(672,135,o),
(672,152,qs),
(672,351,l),
(790,351,l),
(790,477,l),
(672,477,l),
(672,530,o),
(623,620,o),
(521,676,o),
(445,676,qs),
(361,676,o),
(248,571,o),
(249,419,o),
(319,353,q),
(396,402,l),
(374,433,o),
(371,506,o),
(413,557,o),
(455,557,qs),
(489,557,o),
(532,511,o),
(532,477,q),
(463,477,l),
(463,351,l),
(533,351,l),
(533,123,ls),
(532,78,o),
(565,21,o),
(626,-6,o),
(671,-6,qs)
);
}
);
width = 804;
}
);
note = s_t;
},
{
glyphname = Wsuperior;
layers = (
{
layerId = m01;
shapes = (
{
closed = 1;
nodes = (
(81,357,l),
(81,662,l),
(43,662,l),
(43,285,l),
(86,285,l),
(228,555,l),
(372,285,l),
(414,285,l),
(414,662,l),
(376,662,l),
(376,358,l),
(228,636,l)
);
}
);
width = 457;
},
{
layerId = "4DE8B86A-429B-4593-9BC8-49866BB1A430";
shapes = (
{
closed = 1;
nodes = (
(55,313,l),
(55,662,l),
(42,662,l),
(42,285,l),
(57,285,l),
(226,596,l),
(397,285,l),
(411,285,l),
(411,662,l),
(397,662,l),
(397,315,l),
(226,625,l)
);
}
);
width = 452;
},
{
layerId = "0BE882A4-FC89-4865-8E81-154FB3EE808B";
shapes = (
{
closed = 1;
nodes = (
(120,430,l),
(120,662,l),
(43,662,l),
(43,285,l),
(131,285,l),
(230,489,l),
(330,285,l),
(417,285,l),
(417,662,l),
(340,662,l),
(340,431,l),
(230,655,l)
);
}
);
width = 460;
},
{
layerId = "9C2CFEA6-85BB-4338-BB26-B1BEA40B5780";
shapes = (
{
closed = 1;
nodes = (
(127,443,l),
(127,662,l),
(43,662,l),
(43,285,l),
(138,285,l),
(230,479,l),
(323,285,l),
(418,285,l),
(418,662,l),
(334,662,l),
(334,443,l),
(230,659,l)
);
}
);
width = 461;
}
);
note = Wsuperior;
},
{
glyphname = ordfeminine;
kernLeft = ordfeminine;
layers = (
{
layerId = m01;
shapes = (
{
closed = 1;
nodes = (
(187,416,o),
(250,462,o),
(250,501,q),
(229,501,l),
(229,420,l),
(290,420,l),
(290,623,ls),
(290,673,o),
(218,737,o),
(168,737,qs),
(126,737,o),
(68,703,o),
(55,687,q),
(96,652,l),
(101,656,ls),
(116,669,o),
(149,686,o),
(168,686,qs),
(195,686,o),
(229,652,o),
(229,623,qs),
(229,609,l),
(201,614,o),
(178,614,qs),
(117,614,o),
(35,564,o),
(35,507,qs),
(35,486,o),
(59,444,o),
(107,416,o),
(141,416,qs)
);
},
{
closed = 1;
nodes = (
(118,467,o),
(95,489,o),
(95,507,qs),
(95,541,o),
(139,567,o),
(187,567,qs),
(200,567,o),
(216,565,qs),
(229,563,l),
(228,516,o),
(182,467,o),
(141,467,qs)
);
}
);
width = 352;
},
{
layerId = "4DE8B86A-429B-4593-9BC8-49866BB1A430";
shapes = (
{
closed = 1;
nodes = (
(199,410,o),
(260,470,o),
(260,520,q),
(251,520,l),
(251,415,l),
(297,415,l),
(297,627,ls),
(296,676,o),
(224,741,o),
(173,741,qs),
(130,741,o),
(76,710,o),
(63,697,q),
(94,672,l),
(99,675,ls),
(119,687,o),
(153,702,o),
(173,702,qs),
(207,702,o),
(251,663,o),
(251,627,qs),
(251,606,l),
(204,612,o),
(185,611,qs),
(123,608,o),
(41,555,o),
(41,499,qs),
(41,479,o),
(66,438,o),
(114,410,o),
(147,410,qs)
);
},
{
closed = 1;
nodes = (
(117,445,o),
(91,473,o),
(91,496,qs),
(91,540,o),
(144,573,o),
(205,573,qs),
(216,573,o),
(236,571,qs),
(251,569,l),
(248,508,o),
(195,445,o),
(145,445,qs)
);
}
);
width = 359;
},
{
layerId = "0BE882A4-FC89-4865-8E81-154FB3EE808B";
shapes = (
{
closed = 1;
nodes = (
(165,424,o),
(215,454,o),
(215,487,q),
(197,487,l),
(197,428,l),
(280,428,l),
(280,617,ls),
(279,669,o),
(210,732,o),
(160,732,qs),
(120,732,o),
(62,698,o),
(42,670,q),
(99,622,l),
(104,628,ls),
(116,645,o),
(143,661,o),
(160,661,qs),
(177,661,o),
(197,637,o),
(197,618,qs),
(197,614,l),
(189,616,o),
(169,618,qs),
(107,623,o),
(25,578,o),
(25,520,qs),
(25,496,o),
(49,453,o),
(96,424,o),
(131,424,qs)
);
},
{
closed = 1;
nodes = (
(118,500,o),
(102,514,o),
(102,524,qs),
(102,543,o),
(131,557,o),
(160,557,qs),
(174,557,o),
(187,556,qs),
(197,554,l),
(197,529,o),
(163,500,o),
(134,500,qs)
);
}
);
width = 342;
},
{
layerId = "9C2CFEA6-85BB-4338-BB26-B1BEA40B5780";
shapes = (
{
closed = 1;
nodes = (
(162,426,o),
(215,456,o),
(215,487,q),
(191,487,l),
(191,428,l),
(278,428,l),
(278,616,ls),
(277,668,o),
(209,731,o),
(159,731,qs),
(119,731,o),
(61,696,o),
(41,668,q),
(100,617,l),
(105,624,ls),
(117,641,o),
(142,657,o),
(159,657,qs),
(175,657,o),
(191,635,o),
(191,617,qs),
(191,615,l),
(185,617,o),
(167,619,qs),
(105,624,o),
(24,580,o),
(24,521,qs),
(24,498,o),
(47,455,o),
(94,426,o),
(129,426,qs)
);
},
{
closed = 1;
nodes = (
(118,505,o),
(103,519,o),
(103,527,qs),
(103,543,o),
(130,555,o),
(156,555,qs),
(169,555,o),
(182,555,qs),
(191,554,l),
(192,531,o),
(160,505,o),
(133,505,qs)
);
}
);
width = 340;
}
);
note = ordfeminine;
unicode = 170;
},
{
glyphname = ordmasculine;
kernLeft = ordmasculine;
layers = (
{
layerId = m01;
shapes = (
{
closed = 1;
nodes = (
(234,414,o),
(309,458,o),
(354,532,o),
(354,575,qs),
(354,618,o),
(309,693,o),
(234,737,o),
(190,737,qs),
(146,737,o),
(70,693,o),
(25,618,o),
(25,575,qs),
(25,532,o),
(70,458,o),
(145,414,o),
(190,414,qs)
);
},
{
closed = 1;
nodes = (
(163,465,o),
(115,495,o),
(86,545,o),
(86,575,qs),
(86,605,o),
(115,656,o),
(163,686,o),
(190,686,qs),
(217,686,o),
(264,656,o),
(292,605,o),
(292,575,qs),
(292,546,o),
(264,495,o),
(216,465,o),
(190,465,qs)
);
}
);
width = 380;
},
{
layerId = "4DE8B86A-429B-4593-9BC8-49866BB1A430";
shapes = (
{
closed = 1;
nodes = (
(235.849,409,o),
(314,455,o),
(360,532,o),
(360,575,qs),
(360,619.093,o),
(314,696,o),
(235.849,742,o),
(190,742,qs),
(144.9,742,o),
(67,696,o),
(21,619,o),
(21,574.925,qs),
(21,530.85,o),
(66,455,o),
(143.5,409,o),
(190,409,qs)
);
},
{
closed = 1;
nodes = (
(157.6,443,o),
(100,479,o),
(66,540,o),
(66,575,qs),
(66,610.676,o),
(101.026,671.324,o),
(159,707,o),
(190,707,qs),
(222.108,707,o),
(278,671,o),
(312,611,o),
(312,575,qs),
(312,540.2,o),
(278,479,o),
(222,443,o),
(190,443,qs)
);
}
);
width = 381;
},
{
layerId = "0BE882A4-FC89-4865-8E81-154FB3EE808B";
shapes = (
{
closed = 1;
nodes = (
(231.201,421,o),
(303,463,o),
(344,534,o),
(344,575.5,qs),
(344,617,o),
(303,688,o),
(231.221,730,o),
(189.11,730,qs),
(147,730,o),
(75.397,688.218,o),
(33,617,o),
(33,575,qs),
(33,533.47,o),
(75,462,o),
(146,421,o),
(189.079,421,qs)
);
},
{
closed = 1;
nodes = (
(170.218,497,o),
(136,518,o),
(116,554,o),
(116,575.351,qs),
(116,596.703,o),
(136,633,o),
(169,653,o),
(188.515,653,qs),
(208.03,653,o),
(242,633,o),
(262,597,o),
(262,575,qs),
(262,554.436,o),
(242.105,518.273,o),
(208,497,o),
(189.465,497,qs)
);
}
);
width = 379;
},
{
layerId = "9C2CFEA6-85BB-4338-BB26-B1BEA40B5780";
shapes = (
{
closed = 1;
nodes = (
(230.573,422,o),
(301,464,o),
(342,534,o),
(342,575.5,qs),
(342,617,o),
(301,688,o),
(231,729,o),
(189,729,qs),
(147,729,o),
(76.025,687.588,o),
(34,617,o),
(34,575,qs),
(34,533.838,o),
(76,463,o),
(147,422,o),
(189.256,422,qs)
);
},
{
closed = 1;
nodes = (
(171.36,503,o),
(140,522,o),
(121,555,o),
(121,575,qs),
(121,595,o),
(140,629,o),
(171,648,o),
(189.178,648,qs),
(207.356,648,o),
(239,629,o),
(257,594.691,o),
(257,574.509,qs),
(257,555,o),
(238,522,o),
(207,503,o),
(189,503,qs)
);
}
);
width = 379;
}
);
note = ordmasculine;
unicode = 186;
},
{
glyphname = Delta;
layers = (
{
layerId = m01;
shapes = (
{
closed = 1;
nodes = (
(573,0,l),
(304,652,l),
(33,0,l)
);
},
{
closed = 1;
nodes = (
(304,482,l),
(478,60,l),
(128,60,l)
);
}
);
width = 566;
},
{
layerId = "4DE8B86A-429B-4593-9BC8-49866BB1A430";
shapes = (
{
closed = 1;
nodes = (
(555,-3,l),
(304,608,l),
(51,-3,l)
);
},
{
closed = 1;
nodes = (
(304,556,l),
(527,15,l),
(78,15,l)
);
}
);
width = 566;
},
{
layerId = "0BE882A4-FC89-4865-8E81-154FB3EE808B";
shapes = (
{
closed = 1;
nodes = (
(599,4,l),
(304,719,l),
(7,4,l)
);
},
{
closed = 1;
nodes = (
(304,371,l),
(404,128,l),
(202,128,l)
);
}
);
width = 566;
},
{
layerId = "9C2CFEA6-85BB-4338-BB26-B1BEA40B5780";
shapes = (
{
closed = 1;
nodes = (
(604,5,l),
(304,730,l),
(2,5,l)
);
},
{
closed = 1;
nodes = (
(304,352,l),
(392,139,l),
(215,139,l)
);
}
);
width = 566;
}
);
note = uni0394;
unicode = 916;
},
{
glyphname = Omega;
layers = (
{
layerId = m01;
shapes = (
{
closed = 1;
nodes = (
(271,0,l),
(271,54,l),
(235,72,o),
(172,149,o),
(134,251,o),
(134,302,qs),
(134,383,o),
(205,518,o),
(325,597,o),
(394,597,qs),
(463,597,o),
(582,518,o),
(653,383,o),
(653,302,qs),
(653,251,o),
(616,149,o),
(553,71,o),
(518,54,q),
(516,0,l),
(759,0,l),
(759,60,l),
(624,60,l),
(668,107,o),
(720,236,o),
(720,302,qs),
(720,398,o),
(632,562,o),
(482,657,o),
(394,657,qs),
(306,657,o),
(156,562,o),
(68,398,o),
(68,302,qs),
(68,236,o),
(120,108,o),
(163,60,q),
(28,60,l),
(28,0,l)
);
}
);
width = 787;
},
{
layerId = "4DE8B86A-429B-4593-9BC8-49866BB1A430";
shapes = (
{
closed = 1;
nodes = (
(255,1,l),
(255,8,l),
(211,27,o),
(135,119,o),
(90,240,o),
(90,300,qs),
(90,401,o),
(172,564,o),
(312,657,o),
(394,657,qs),
(476,657,o),
(615,564,o),
(698,401,o),
(698,300,qs),
(698,240,o),
(652,119,o),
(577,26,o),
(535,8,q),
(532,1,l),
(760,1,l),
(760,24,l),
(600,24,l),
(654,76,o),
(718,223,o),
(718,300,qs),
(718,405,o),
(630,577,o),
(482,675,o),
(394,675,qs),
(306,675,o),
(157,577,o),
(70,406,o),
(70,300,qs),
(70,223,o),
(134,77,o),
(187,25,q),
(27,24,l),
(27,1,l)
);
}
);
width = 787;
},
{
layerId = "0BE882A4-FC89-4865-8E81-154FB3EE808B";
shapes = (
{
closed = 1;
nodes = (
(296,-1,l),
(296,124,l),
(270,140,o),
(227,196,o),
(200,267,o),
(200,305,qs),
(200,355,o),
(254,449,o),
(344,506,o),
(394,506,qs),
(444,506,o),
(534,449,o),
(587,355,o),
(587,305,qs),
(587,266,o),
(561,194,o),
(517,139,o),
(492,124,q),
(492,-1,l),
(758,-1,l),
(758,114,l),
(660,114,l),
(689,154,o),
(722,256,o),
(722,305,qs),
(722,387,o),
(634,538,o),
(483,631,o),
(394,631,qs),
(305,631,o),
(153,538,o),
(65,387,o),
(65,305,qs),
(65,255,o),
(99,154,o),
(128,114,q),
(29,114,l),
(29,-1,l)
);
}
);
width = 787;
},
{
layerId = "9C2CFEA6-85BB-4338-BB26-B1BEA40B5780";
shapes = (
{
closed = 1;
nodes = (
(299,-1,l),
(299,135,l),
(276,151,o),
(236,204,o),
(211,270,o),
(211,306,qs),
(211,351,o),
(263,437,o),
(347,491,o),
(394,491,qs),
(441,491,o),
(525,437,o),
(576,351,o),
(576,306,qs),
(576,269,o),
(552,202,o),
(512,151,o),
(488,135,q),
(489,-1,l),
(758,-1,l),
(758,123,l),
(665,123,l),
(692,162,o),
(723,260,o),
(723,306,qs),
(723,386,o),
(635,534,o),
(483,626,o),
(394,626,qs),
(305,626,o),
(153,534,o),
(65,386,o),
(65,306,qs),
(65,259,o),
(96,162,o),
(123,124,q),
(29,123,l),
(29,-1,l)
);
}
);
width = 787;
}
);
note = uni03A9;
unicode = 937;
},
{
glyphname = mu;
layers = (
{
layerId = m01;
shapes = (
{
closed = 1;
nodes = (
(157,-224,l),
(157,34,l),
(202,-2,o),
(275,-2,qs),
(318,-2,o),
(383,28,o),
(404,54,q),
(441,1,o),
(515,1,q),
(515,61,l),
(474,61,o),
(442,116,o),
(442,148,qs),
(442,448,l),
(376,448,l),
(376,168,ls),
(376,119,o),
(325,58,o),
(275,58,qs),
(228,58,o),
(175,99,o),
(157,165,o),
(157,208,qs),
(157,448,l),
(91,448,l),
(91,-224,l)
);
}
);
width = 566;
},
{
layerId = "4DE8B86A-429B-4593-9BC8-49866BB1A430";
shapes = (
{
closed = 1;
nodes = (
(122,-225,l),
(122,67,l),
(174,14,o),
(273,14,qs),
(323,14,o),
(392,51,o),
(411,84,q),
(437,23,o),
(505,15,q),
(505,25,l),
(461,39,o),
(427,116,o),
(427,151,qs),
(427,449,l),
(407,449,l),
(407,170,ls),
(407,109,o),
(338,31,o),
(273,31,qs),
(216,31,o),
(149,81,o),
(122,154,o),
(122,192,qs),
(122,449,l),
(101,449,l),
(101,-225,l)
);
}
);
width = 566;
},
{
layerId = "0BE882A4-FC89-4865-8E81-154FB3EE808B";
shapes = (
{
closed = 1;
nodes = (
(210,-223,l),
(210,-16,l),
(242,-25,o),
(278,-25,qs),
(312,-25,o),
(369,-8,o),
(392,8,q),
(445,-32,o),
(530,-20,q),
(530,115,l),
(493,94,o),
(465,116,o),
(465,144,qs),
(465,447,l),
(330,447,l),
(330,165,ls),
(331,133,o),
(305,100,o),
(278,100,qs),
(245,100,o),
(216,127,o),
(209,177,o),
(209,233,qs),
(210,447,l),
(76,447,l),
(76,-223,l)
);
}
);
width = 566;
},
{
layerId = "9C2CFEA6-85BB-4338-BB26-B1BEA40B5780";
shapes = (
{
closed = 1;
nodes = (
(218,-223,l),
(218,-24,l),
(249,-29,o),
(279,-29,qs),
(312,-29,o),
(368,-14,o),
(390,1,q),
(445,-37,o),
(533,-24,q),
(533,124,l),
(496,99,o),
(469,116,o),
(469,143,qs),
(468,447,l),
(322,447,l),
(322,165,ls),
(323,135,o),
(302,107,o),
(279,107,qs),
(248,107,o),
(223,131,o),
(218,177,o),
(218,237,qs),
(218,447,l),
(73,447,l),
(73,-223,l)
);
}
);
width = 566;
}
);
note = uni03BC;
unicode = 956;
},
{
glyphname = pi;
layers = (
{
layerId = m01;
shapes = (
{
closed = 1;
nodes = (
(168,0,l),
(168,385,l),
(378,385,l),
(378,148,ls),
(378,121,o),
(400,53,o),
(462,0,o),
(518,0,q),
(518,60,l),
(476,60,o),
(444,116,o),
(444,148,qs),
(444,385,l),
(551,385,l),
(551,445,l),
(15,445,l),
(15,385,l),
(102,385,l),
(102,0,l)
);
}
);
width = 566;
},
{
layerId = "4DE8B86A-429B-4593-9BC8-49866BB1A430";
shapes = (
{
closed = 1;
nodes = (
(135,8,l),
(135,420,l),
(410,420,l),
(410,143,ls),
(410,119,o),
(425,62,o),
(470,13,o),
(509,6,q),
(510,16,l),
(464,30,o),
(430,108,o),
(430,143,qs),
(430,420,l),
(544,420,l),
(544,437,l),
(22,437,l),
(22,420,l),
(114,420,l),
(114,8,l)
);
}
);
width = 566;
},
{
layerId = "0BE882A4-FC89-4865-8E81-154FB3EE808B";
shapes = (
{
closed = 1;
nodes = (
(218,-11,l),
(218,332,l),
(330,332,l),
(330,156,ls),
(330,124,o),
(361,40,o),
(450,-20,o),
(530,-8,q),
(530,126,l),
(494,105,o),
(465,128,o),
(465,156,qs),
(465,332,l),
(560,332,l),
(560,456,l),
(6,456,l),
(6,332,l),
(83,332,l),
(83,-11,l)
);
}
);
width = 566;
},
{
layerId = "9C2CFEA6-85BB-4338-BB26-B1BEA40B5780";
shapes = (
{
closed = 1;
nodes = (
(226,-13,l),
(226,324,l),
(322,324,l),
(322,156,ls),
(323,124,o),
(355,38,o),
(448,-23,o),
(532,-9,q),
(532,137,l),
(497,113,o),
(469,129,o),
(469,157,qs),
(469,324,l),
(562,324,l),
(562,458,l),
(4,458,l),
(4,324,l),
(80,324,l),
(80,-13,l)
);
}
);
width = 566;
}
);
note = pi;
unicode = 960;
},
{
glyphname = zero;
kernLeft = zero;
kernRight = zero;
layers = (
{
layerId = m01;
shapes = (
{
closed = 1;
nodes = (
(353,-6,o),
(457,71,o),
(518,223,o),
(518,332,qs),
(518,441,o),
(457,591,o),
(353,665,o),
(288,665,qs),
(222,665,o),
(118,591,o),
(57,441,o),
(57,332,qs),
(57,223,o),
(118,71,o),
(223,-6,o),
(288,-6,qs)
);
},
{
closed = 1;
nodes = (
(243,55,o),
(168,115,o),
(123,240,o),
(123,332,qs),
(123,424,o),
(168,546,o),
(242,604,o),
(288,604,qs),
(333,604,o),
(407,546,o),
(452,424,o),
(452,332,qs),
(452,240,o),
(406,115,o),
(332,55,o),
(288,55,qs)
);
}
);
width = 574;
},
{
layerId = "4DE8B86A-429B-4593-9BC8-49866BB1A430";
shapes = (
{
closed = 1;
nodes = (
(350,-7,o),
(452,69,o),
(512,222.232,o),
(512,332.116,qs),
(512,442,o),
(452.479,592,o),
(351,666,o),
(288.481,666,qs),
(225,666,o),
(123,592,o),
(62,442,o),
(62,332.116,qs),
(62,222.232,o),
(123,69,o),
(225,-7,o),
(287.5,-7,qs)
);
},
{
closed = 1;
nodes = (
(232.5,13,o),
(140,84,o),
(86,226.799,o),
(86,331.9,qs),
(86,437,o),
(140,578,o),
(231,646,o),
(287.873,646,qs),
(343.509,646,o),
(435,578,o),
(488,437,o),
(488,331.9,qs),
(488,226.799,o),
(434,84,o),
(343,13,o),
(288,13,qs)
);
}
);
width = 574;
},
{
layerId = "0BE882A4-FC89-4865-8E81-154FB3EE808B";
shapes = (
{
closed = 1;
nodes = (
(386,-5,o),
(505,73,o),
(571,225,o),
(571,332,qs),
(571,439,o),
(505,589,o),
(386,664,o),
(308,664,qs),
(229,664,o),
(110,589,o),
(43,439,o),
(43,332,qs),
(43,225,o),
(109,73,o),
(229,-5,o),
(308,-5,qs)
);
},
{
closed = 1;
nodes = (
(270,119,o),
(212,163,o),
(178,259,o),
(178,332,qs),
(178,405,o),
(211,497,o),
(269,539,o),
(308,539,qs),
(346,539,o),
(403,497,o),
(436,405,o),
(436,332,qs),
(436,259,o),
(403,163,o),
(345,119,o),
(308,119,qs)
);
}
);
width = 614;
},
{
layerId = "9C2CFEA6-85BB-4338-BB26-B1BEA40B5780";
shapes = (
{
closed = 1;
nodes = (
(387,-5,o),
(507,73,o),
(573,225,o),
(573,332,qs),
(573,439,o),
(507,588,o),
(387,664,o),
(308,664,qs),
(228,664,o),
(108,588,o),
(41,439,o),
(41,332,qs),
(41,225,o),
(108,73,o),
(228,-5,o),
(308,-5,qs)
);
},
{
closed = 1;
nodes = (
(273,129,o),
(219,171,o),
(188,262,o),
(188,332,qs),
(188,402,o),
(218,489,o),
(272,529,o),
(308,529,qs),
(343,529,o),
(396,489,o),
(427,402,o),
(427,332,qs),
(427,262,o),
(396,171,o),
(342,129,o),
(308,129,qs)
);
}
);
width = 614;
}
);
note = zero;
unicode = 48;
},
{
glyphname = one;
kernLeft = one;
kernRight = one;
layers = (
{
layerId = m01;
shapes = (
{
closed = 1;
nodes = (
(473,0,l),
(473,60,l),
(280,60,l),
(280,660,l),
(220,660,l),
(41,584,l),
(41,516,l),
(225,594,l),
(214,603,l),
(214,60,l),
(23,60,l),
(23,0,l)
);
}
);
width = 496;
},
{
layerId = "4DE8B86A-429B-4593-9BC8-49866BB1A430";
shapes = (
{
closed = 1;
nodes = (
(449,0,l),
(449,24,l),
(248,24,l),
(248,660,l),
(223,660,l),
(32,562,l),
(32,539,l),
(237,644,l),
(224,655,l),
(224,24,l),
(23,24,l),
(23,0,l)
);
}
);
width = 471;
},
{
layerId = "0BE882A4-FC89-4865-8E81-154FB3EE808B";
shapes = (
{
closed = 1;
nodes = (
(509,0,l),
(509,125,l),
(332,125,l),
(332,660,l),
(215,660,l),
(38,560,l),
(38,419,l),
(207,511,l),
(198,526,l),
(198,125,l),
(23,125,l),
(23,0,l)
);
}
);
width = 533;
},
{
layerId = "9C2CFEA6-85BB-4338-BB26-B1BEA40B5780";
shapes = (
{
closed = 1;
nodes = (
(514,0,l),
(514,136,l),
(340,136,l),
(340,660,l),
(214,660,l),
(33,560,l),
(33,406,l),
(204,497,l),
(195,512,l),
(195,136,l),
(23,136,l),
(23,0,l)
);
}
);
width = 539;
}
);
note = one;
unicode = 49;
},
{
glyphname = two;
kernLeft = two;
kernRight = two;
layers = (
{
layerId = m01;
shapes = (
{
closed = 1;
nodes = (
(17,0,l),
(434,0,l),
(434,60,l),
(102,60,l),
(185,147,ls),
(262,228,o),
(352,327,o),
(377,361,qs),
(427,430,o),
(408,573,o),
(297,666,o),
(218,666,qs),
(175,666,o),
(98,631,o),
(42,569,o),
(29,530,q),
(94,509,l),
(108,550,o),
(175,600,o),
(218,600,qs),
(272,600,o),
(346,540,o),
(357,446,o),
(323,400,qs),
(291,354,o),
(151,204,o),
(46,96,qs),
(31,81,o),
(17,66,q)
);
}
);
width = 449;
},
{
layerId = "4DE8B86A-429B-4593-9BC8-49866BB1A430";
shapes = (
{
closed = 1;
nodes = (
(16,0,l),
(412,0,l),
(412,24,l),
(47,24,l),
(139,123,ls),
(210,200,o),
(326,336,o),
(356,377,qs),
(403,443,o),
(387,578,o),
(281,666,o),
(206,666,qs),
(169,666,o),
(103,640,o),
(52,593,o),
(35,561,q),
(56,549,l),
(79,593,o),
(157,642,o),
(206,642,qs),
(271,642,o),
(363,568,o),
(378,451,o),
(337,393,qs),
(308,352,o),
(184,205,o),
(114,128,qs),
(61,69,o),
(16,24,q)
);
}
);
width = 418;
},
{
layerId = "0BE882A4-FC89-4865-8E81-154FB3EE808B";
shapes = (
{
closed = 1;
nodes = (
(19,0,l),
(467,0,l),
(467,130,l),
(207,130,l),
(270,189,ls),
(317,234,o),
(389,309,o),
(409,338,qs),
(462,411,o),
(441,565,o),
(321,666,o),
(237,666,qs),
(183,666,o),
(91,618,o),
(31,535,o),
(24,486,q),
(155,443,l),
(156,484,o),
(202,537,o),
(237,537,qs),
(270,537,o),
(315,500,o),
(321,442,o),
(300,413,qs),
(277,381,o),
(194,298,o),
(125,233,qs),
(48,161,o),
(19,130,q)
);
}
);
width = 495;
},
{
layerId = "9C2CFEA6-85BB-4338-BB26-B1BEA40B5780";
shapes = (
{
closed = 1;
nodes = (
(19,0,l),
(473,0,l),
(473,140,l),
(224,140,l),
(284,195,ls),
(330,238,o),
(396,306,o),
(415,334,qs),
(468,408,o),
(446,564,o),
(324,666,o),
(240,666,qs),
(185,666,o),
(90,616,o),
(29,529,o),
(23,478,q),
(166,432,l),
(165,473,o),
(207,526,o),
(240,526,qs),
(270,526,o),
(310,493,o),
(315,441,o),
(296,415,qs),
(274,385,o),
(195,307,o),
(129,246,qs),
(49,172,o),
(19,141,q)
);
}
);
width = 503;
}
);
note = two;
unicode = 50;
},
{
glyphname = three;
kernLeft = three;
kernRight = three;
layers = (
{
layerId = m01;
shapes = (
{
closed = 1;
nodes = (
(265,-3,o),
(359,51,o),
(411,142,o),
(411,196,qs),
(411,254,o),
(364,338,o),
(285,381,o),
(240,381,q),
(240,354,l),
(280,354,o),
(340,396,o),
(372,463,o),
(372,499,qs),
(372,543,o),
(327,619,o),
(250,664,o),
(205,664,qs),
(138,664,o),
(53,590,o),
(43,538,q),
(107,527,l),
(114,559,o),
(168,600,o),
(205,600,qs),
(233,600,o),
(279,574,o),
(306,528,o),
(306,499,qs),
(306,447,o),
(246,392,o),
(174,392,q),
(174,338,l),
(261,338,o),
(345,261,o),
(345,196,qs),
(345,137,o),
(268,61,o),
(205,61,qs),
(159,61,o),
(95,104,o),
(73,150,q),
(13,123,l),
(30,84,o),
(88,28,o),
(163,-3,o),
(205,-3,qs)
);
}
);
width = 438;
},
{
layerId = "4DE8B86A-429B-4593-9BC8-49866BB1A430";
shapes = (
{
closed = 1;
nodes = (
(248,-3,o),
(338,48,o),
(388,135,o),
(388,187,qs),
(388,245,o),
(334,330,o),
(246,375,o),
(195,375,q),
(196,363,l),
(240,363,o),
(307,403,o),
(343,470,o),
(343,511,qs),
(343,553,o),
(302,623,o),
(232,664,o),
(191,664,qs),
(137,664,o),
(60,606,o),
(51,571,q),
(73,568,l),
(85,602,o),
(150,640,o),
(191,640,qs),
(226,640,o),
(286,607,o),
(322,548,o),
(322,511,qs),
(322,450,o),
(247,378,o),
(165,378,q),
(165,360,l),
(267,359,o),
(367,259,o),
(367,187,qs),
(367,114,o),
(270,21,o),
(191,21,qs),
(141,21,o),
(65,59,o),
(33,111,q),
(16,101,l),
(37,61,o),
(96,15,o),
(158,-3,o),
(191,-3,qs)
);
}
);
width = 414;
},
{
layerId = "0BE882A4-FC89-4865-8E81-154FB3EE808B";
shapes = (
{
closed = 1;
nodes = (
(289,-3,o),
(390,55,o),
(446,153,o),
(446,210,qs),
(446,269,o),
(404,347,o),
(320,384,o),
(258,384,q),
(259,345,l),
(314,345,o),
(385,389,o),
(416,452,o),
(416,481,qs),
(416,533,o),
(372,616,o),
(286,664,o),
(224,664,qs),
(141,664,o),
(44,566,o),
(32,487,q),
(158,466,l),
(157,495,o),
(194,538,o),
(224,538,qs),
(243,538,o),
(269,524,o),
(284,498,o),
(284,481,qs),
(284,447,o),
(239,414,o),
(189,414,q),
(188,305,l),
(254,305,o),
(312,253,o),
(312,210,qs),
(312,171,o),
(264,123,o),
(224,123,qs),
(182,123,o),
(138,173,o),
(132,208,q),
(9,156,l),
(17,120,o),
(74,47,o),
(167,-3,o),
(224,-3,qs)
);
}
);
width = 474;
},
{
layerId = "9C2CFEA6-85BB-4338-BB26-B1BEA40B5780";
shapes = (
{
closed = 1;
nodes = (
(298,-3,o),
(399,52,o),
(452,150,o),
(452,213,qs),
(452,274,o),
(395,356,o),
(302,396,o),
(247,396,q),
(248,332,l),
(304,332,o),
(384,380,o),
(423,452,o),
(423,488,qs),
(423,538,o),
(379,618,o),
(291,664,o),
(228,664,qs),
(141,664,o),
(43,562,o),
(30,478,q),
(166,455,l),
(166,484,o),
(198,528,o),
(228,528,qs),
(244,528,o),
(268,515,o),
(280,493,o),
(280,478,qs),
(280,447,o),
(239,418,o),
(191,418,q),
(191,299,l),
(254,299,o),
(306,251,o),
(306,213,qs),
(306,177,o),
(264,133,o),
(228,133,qs),
(185,133,o),
(142,186,o),
(142,218,q),
(8,162,l),
(15,126,o),
(72,50,o),
(168,-3,o),
(228,-3,qs)
);
}
);
width = 480;
}
);
note = three;
unicode = 51;
},
{
glyphname = four;
kernLeft = four;
kernRight = four;
layers = (
{
layerId = m01;
shapes = (
{
closed = 1;
nodes = (
(436,0,l),
(436,143,l),
(528,143,l),
(528,213,l),
(436,213,l),
(436,660,l),
(370,660,l),
(35,205,l),
(35,143,l),
(370,143,l),
(370,0,l)
);
},
{
closed = 1;
nodes = (
(370,565,l),
(370,213,l),
(117,213,l)
);
}
);
width = 553;
},
{
layerId = "4DE8B86A-429B-4593-9BC8-49866BB1A430";
shapes = (
{
closed = 1;
nodes = (
(420,0,l),
(420,153,l),
(507,153,l),
(507,178,l),
(420,178,l),
(420,660,l),
(389,660,l),
(27,179,l),
(27,153,l),
(396,153,l),
(396,0,l)
);
},
{
closed = 1;
nodes = (
(396,632,l),
(396,178,l),
(57,178,l)
);
}
);
width = 528;
},
{
layerId = "0BE882A4-FC89-4865-8E81-154FB3EE808B";
shapes = (
{
closed = 1;
nodes = (
(465,0,l),
(465,127,l),
(559,127,l),
(559,260,l),
(465,260,l),
(465,660,l),
(336,660,l),
(41,237,l),
(41,127,l),
(330,127,l),
(330,0,l)
);
},
{
closed = 1;
nodes = (
(330,465,l),
(330,260,l),
(208,260,l)
);
}
);
width = 590;
},
{
layerId = "9C2CFEA6-85BB-4338-BB26-B1BEA40B5780";
shapes = (
{
closed = 1;
nodes = (
(470,0,l),
(470,124,l),
(565,124,l),
(565,268,l),
(470,268,l),
(470,660,l),
(330,660,l),
(42,243,l),
(42,124,l),
(324,124,l),
(324,0,l)
);
},
{
closed = 1;
nodes = (
(324,448,l),
(324,268,l),
(223,268,l)
);
}
);
width = 596;
}
);
note = four;
unicode = 52;
},
{
glyphname = five;
kernLeft = five;
kernRight = five;
layers = (
{
layerId = m01;
shapes = (
{
closed = 1;
nodes = (
(237,-10,o),
(343,29,o),
(411,115,o),
(421,173,qs),
(430,229,o),
(388,333,o),
(300,405,o),
(243,415,qs),
(217,420,o),
(152,414,o),
(124,403,q),
(174,600,l),
(401,600,l),
(401,660,l),
(122,660,l),
(49,377,l),
(81,324,l),
(129,350,o),
(197,361,o),
(233,356,qs),
(271,349,o),
(332,298,o),
(362,222,o),
(356,182,qs),
(348,140,o),
(301,80,o),
(229,52,o),
(186,59,qs),
(147,66,o),
(94,101,o),
(76,131,q),
(20,100,l),
(43,61,o),
(121,9,o),
(175,0,qs)
);
}
);
width = 470;
},
{
layerId = "4DE8B86A-429B-4593-9BC8-49866BB1A430";
shapes = (
{
closed = 1;
nodes = (
(224,-10,o),
(323,27,o),
(388,109,o),
(397,165,qs),
(406,219,o),
(366,319,o),
(282,387,o),
(229,397,qs),
(198,403,o),
(114,395,o),
(81,380,q),
(139,639,l),
(376,639,l),
(376,660,l),
(123,660,l),
(57,372,l),
(69,354,l),
(115,376,o),
(186,384,o),
(225,378,qs),
(273,370,o),
(348,308,o),
(383,217,o),
(375,168,qs),
(367,117,o),
(309,44,o),
(221,11,o),
(167,20,qs),
(126,28,o),
(61,63,o),
(42,87,q),
(25,74,l),
(53,42,o),
(118,7,o),
(164,0,qs)
);
}
);
width = 445;
},
{
layerId = "0BE882A4-FC89-4865-8E81-154FB3EE808B";
shapes = (
{
closed = 1;
nodes = (
(258,-11,o),
(372,32,o),
(446,124,o),
(455,184,qs),
(465,244,o),
(420,355,o),
(326,432,o),
(265,441,qs),
(247,444,o),
(213,443,o),
(195,440,q),
(227,536,l),
(438,536,l),
(438,660,l),
(121,660,l),
(36,384,l),
(101,274,l),
(153,307,o),
(212,323,o),
(244,318,qs),
(268,314,o),
(307,280,o),
(327,230,o),
(323,204,qs),
(318,175,o),
(288,136,o),
(242,119,o),
(214,124,qs),
(179,129,o),
(144,162,o),
(127,202,q),
(12,140,l),
(29,90,o),
(125,12,o),
(192,0,qs)
);
}
);
width = 508;
},
{
layerId = "9C2CFEA6-85BB-4338-BB26-B1BEA40B5780";
shapes = (
{
closed = 1;
nodes = (
(262,-11,o),
(377,33,o),
(451,125,o),
(461,186,qs),
(471,246,o),
(426,359,o),
(330,436,o),
(269,446,qs),
(252,448,o),
(222,448,o),
(207,447,q),
(235,526,l),
(444,526,l),
(444,660,l),
(121,660,l),
(34,385,l),
(105,266,l),
(156,300,o),
(214,316,o),
(246,311,qs),
(267,308,o),
(303,277,o),
(321,231,o),
(317,207,qs),
(313,181,o),
(286,145,o),
(245,130,o),
(219,134,qs),
(185,139,o),
(153,172,o),
(136,214,q),
(12,146,l),
(26,95,o),
(126,12,o),
(195,0,qs)
);
}
);
width = 514;
}
);
note = five;
unicode = 53;
},
{
glyphname = six;
kernLeft = six;
kernRight = six;
layers = (
{
layerId = m01;
shapes = (
{
closed = 1;
nodes = (
(170,-4,o),
(274,-3,o),
(365,48,o),
(391,94,qs),
(418,141,o),
(417,245,o),
(365,335,o),
(319,361,qs),
(293,376,o),
(224,383,o),
(153,366,o),
(126,346,q),
(161,346,l),
(343,660,l),
(267,660,l),
(53,290,ls),
(26,244,o),
(27,139,o),
(79,48,o),
(124,22,qs)
);
},
{
closed = 1;
nodes = (
(127,97,o),
(93,157,o),
(92,226,o),
(109,256,qs),
(127,287,o),
(187,321,o),
(255,321,o),
(286,304,qs),
(316,286,o),
(351,227,o),
(351,158,o),
(334,127,qs),
(317,97,o),
(257,63,o),
(188,62,o),
(157,79,qs)
);
}
);
width = 438;
},
{
layerId = "4DE8B86A-429B-4593-9BC8-49866BB1A430";
shapes = (
{
closed = 1;
nodes = (
(183,-11,o),
(274,1,o),
(348,52,o),
(370,90,qs),
(395,133,o),
(393,232,o),
(344,318,o),
(301,343,qs),
(272,359,o),
(196,367,o),
(120,346,o),
(92,322,q),
(102,321,l),
(297,660,l),
(273,660,l),
(50,275,ls),
(23,230,o),
(27,122,o),
(86,30,o),
(138,7,qs)
);
},
{
closed = 1;
nodes = (
(91,62,o),
(48,137,o),
(47,223,o),
(69,261,qs),
(91,299,o),
(166,341,o),
(252,342,o),
(290,321,qs),
(328,299,o),
(371,225,o),
(372,138,o),
(350,100,qs),
(329,62,o),
(254,19,o),
(168,18,o),
(130,40,qs)
);
}
);
width = 413;
},
{
layerId = "0BE882A4-FC89-4865-8E81-154FB3EE808B";
shapes = (
{
closed = 1;
nodes = (
(151,6,o),
(275,-10,o),
(391,43,o),
(424,102,qs),
(453,152,o),
(452,263,o),
(397,360,o),
(346,389,qs),
(323,401,o),
(262,410,o),
(197,395,o),
(168,373,q),
(228,343,l),
(412,660,l),
(259,660,l),
(58,313,ls),
(30,265,o),
(26,165,o),
(67,76,o),
(105,44,qs)
);
},
{
closed = 1;
nodes = (
(180,149,o),
(160,186,o),
(159,229,o),
(170,249,qs),
(181,268,o),
(218,289,o),
(261,289,o),
(280,278,qs),
(299,267,o),
(321,230,o),
(321,187,o),
(310,168,qs),
(299,149,o),
(262,128,o),
(218,127,o),
(199,139,qs)
);
}
);
width = 476;
},
{
layerId = "9C2CFEA6-85BB-4338-BB26-B1BEA40B5780";
shapes = (
{
closed = 1;
nodes = (
(147,8,o),
(275,-11,o),
(395,42,o),
(430,103,qs),
(459,154,o),
(459,266,o),
(402,364,o),
(351,393,qs),
(328,406,o),
(269,414,o),
(204,399,o),
(174,378,q),
(239,343,l),
(423,660,l),
(258,660,l),
(59,316,ls),
(31,269,o),
(26,169,o),
(65,81,o),
(102,48,qs)
);
},
{
closed = 1;
nodes = (
(190,158,o),
(171,191,o),
(170,230,o),
(180,248,qs),
(190,265,o),
(223,284,o),
(261,284,o),
(279,274,qs),
(296,265,o),
(316,231,o),
(317,192,o),
(306,174,qs),
(296,157,o),
(262,138,o),
(223,139,o),
(206,149,qs)
);
}
);
width = 482;
}
);
note = six;
unicode = 54;
},
{
glyphname = seven;
kernLeft = seven;
kernRight = seven;
layers = (
{
layerId = m01;
shapes = (
{
closed = 1;
nodes = (
(384,594,l),
(70,594,l),
(70,660,l),
(499,660,l),
(109,0,l),
(33,0,l)
);
}
);
width = 508;
},
{
layerId = "4DE8B86A-429B-4593-9BC8-49866BB1A430";
shapes = (
{
closed = 1;
nodes = (
(423,636,l),
(69,636,l),
(69,660,l),
(460,660,l),
(70,0,l),
(46,0,l)
);
}
);
width = 470;
},
{
layerId = "0BE882A4-FC89-4865-8E81-154FB3EE808B";
shapes = (
{
closed = 1;
nodes = (
(326,531,l),
(62,531,l),
(62,660,l),
(557,660,l),
(167,0,l),
(13,0,l)
);
}
);
width = 566;
},
{
layerId = "9C2CFEA6-85BB-4338-BB26-B1BEA40B5780";
shapes = (
{
closed = 1;
nodes = (
(317,520,l),
(52,520,l),
(52,660,l),
(567,660,l),
(177,0,l),
(10,0,l)
);
}
);
width = 575;
}
);
note = seven;
unicode = 55;
},
